<svg height="11.17" viewBox="0 0 19.486 11.17" width="19.486" xmlns="http://www.w3.org/2000/svg"><g fill="#efefef" fill-rule="evenodd"><path d="m71.644 32.365a.822.822 0 0 1 1.15 0l4.871 4.786a.788.788 0 0 1 0 1.13l-4.871 4.786a.823.823 0 0 1 -1.15 0 .789.789 0 0 1 0-1.13l4.3-4.222-4.3-4.222a.788.788 0 0 1 0-1.13z" transform="translate(-58.417 -32.131)"/><path d="m14.283 54.357a.8.8 0 0 1 .812-.8h17.048a.8.8 0 1 1 0 1.6h-17.049a.8.8 0 0 1 -.811-.8z" transform="translate(-14.283 -48.773)"/></g></svg>