<svg height="30" viewBox="0 0 30 30" width="30" xmlns="http://www.w3.org/2000/svg"><path d="m26.25 1.875h-22.5a1.875 1.875 0 0 0 -1.875 1.875v22.5a1.875 1.875 0 0 0 1.875 1.875h22.5a1.875 1.875 0 0 0 1.875-1.875v-22.5a1.875 1.875 0 0 0 -1.875-1.875zm-22.5-1.875a3.75 3.75 0 0 0 -3.75 3.75v22.5a3.75 3.75 0 0 0 3.75 3.75h22.5a3.75 3.75 0 0 0 3.75-3.75v-22.5a3.75 3.75 0 0 0 -3.75-3.75z" fill="#efefef" fill-rule="evenodd"/><g fill="#fff" transform="matrix(-1 0 0 -1 25 24.378)"><path d="m10 11.636a10.174 10.174 0 0 1 -10-10.343 1.25 1.25 0 1 1 2.5 0 7.631 7.631 0 0 0 7.5 7.757h3.749v2.586z"/><path d="m5.886 6.09-3.749 3.878a1.219 1.219 0 0 1 -1.362.272 1.294 1.294 0 0 1 -.775-1.189v-7.758a1.294 1.294 0 0 1 .775-1.193 1.022 1.022 0 0 1 .475-.1 1.229 1.229 0 0 1 .887.375l3.749 3.879a1.325 1.325 0 0 1 0 1.836z" transform="translate(13.744 5.192)"/></g></svg>