<svg xmlns="http://www.w3.org/2000/svg" width="30" height="30" viewBox="0 0 30 30"><defs><style>.a{fill:#efefef;fill-rule:evenodd;}.b{fill:#fff;}</style></defs><path class="a" d="M26.25,1.875H3.75A1.875,1.875,0,0,0,1.875,3.75v22.5A1.875,1.875,0,0,0,3.75,28.125h22.5a1.875,1.875,0,0,0,1.875-1.875V3.75A1.875,1.875,0,0,0,26.25,1.875ZM3.75,0A3.75,3.75,0,0,0,0,3.75v22.5A3.75,3.75,0,0,0,3.75,30h22.5A3.75,3.75,0,0,0,30,26.25V3.75A3.75,3.75,0,0,0,26.25,0Z"/><g transform="translate(25 24.378) rotate(180)"><path class="b" d="M10,11.636A10.174,10.174,0,0,1,0,1.293a1.25,1.25,0,1,1,2.5,0A7.631,7.631,0,0,0,10,9.05h3.749v2.586Z"/><path class="b" d="M5.886,6.09,2.137,9.968a1.219,1.219,0,0,1-1.362.272A1.294,1.294,0,0,1,0,9.051V1.293A1.294,1.294,0,0,1,.775.1,1.022,1.022,0,0,1,1.25,0a1.229,1.229,0,0,1,.887.375L5.886,4.254a1.325,1.325,0,0,1,0,1.836Z" transform="translate(13.744 5.192)"/></g></svg>