<svg viewBox="0 0 58 58" xmlns="http://www.w3.org/2000/svg" xmlns:xlink="http://www.w3.org/1999/xlink"><filter id="a" filterUnits="userSpaceOnUse" height="58" width="58" x="0" y="0"><feOffset dy="3"/><feGaussianBlur result="blur" stdDeviation="3"/><feFlood flood-color="#242424"/><feComposite in2="blur" operator="in"/><feComposite in="SourceGraphic"/></filter><filter id="b" filterUnits="userSpaceOnUse" height="46" width="46" x="6" y="3"><feOffset/><feGaussianBlur result="blur-2" stdDeviation="1"/><feFlood flood-color="#242424"/><feComposite in2="blur-2" operator="in"/><feComposite in="SourceGraphic"/></filter><g filter="url(#a)"><path d="m29.321 0c6.8 0 10.679 3.84 10.679 10.66v18.68c0 6.78-3.859 10.66-10.659 10.66h-18.68c-6.82 0-10.661-3.88-10.661-10.66v-18.68c0-6.82 3.841-10.66 10.661-10.66zm-9.34 11.02a1.656 1.656 0 0 0 -1.66 1.66v5.64h-5.66a1.639 1.639 0 0 0 -1.661 1.66 1.686 1.686 0 0 0 1.66 1.68h5.66v5.66a1.66 1.66 0 0 0 3.32 0v-5.66h5.68a1.686 1.686 0 0 0 1.66-1.68 1.656 1.656 0 0 0 -1.66-1.66h-5.68v-5.64a1.656 1.656 0 0 0 -1.659-1.66z" fill="#efefef" transform="translate(9 6)"/></g><path d="m17.182 13.273h27.273v28.182h-27.273z" fill="#242424"/><g filter="url(#b)"><path d="m29.321 0c6.8 0 10.679 3.84 10.679 10.66v18.68c0 6.78-3.859 10.66-10.659 10.66h-18.68c-6.82 0-10.661-3.88-10.661-10.66v-18.68c0-6.82 3.841-10.66 10.661-10.66zm-9.34 11.02a1.656 1.656 0 0 0 -1.66 1.66v5.64h-5.66a1.639 1.639 0 0 0 -1.661 1.66 1.686 1.686 0 0 0 1.66 1.68h5.66v5.66a1.66 1.66 0 0 0 3.32 0v-5.66h5.68a1.686 1.686 0 0 0 1.66-1.68 1.656 1.656 0 0 0 -1.66-1.66h-5.68v-5.64a1.656 1.656 0 0 0 -1.659-1.66z" fill="#efefef" transform="translate(9 6)"/></g></svg>