<svg height="30" viewBox="0 0 31.543 30" width="31.543" xmlns="http://www.w3.org/2000/svg"><g fill="#efefef" fill-rule="evenodd"><path d="m24.421 16.078a1.125 1.125 0 0 1 0 1.593l-6.75 6.75a1.125 1.125 0 0 1 -1.593 0l-3.378-3.375a1.126 1.126 0 1 1 1.6-1.593l2.579 2.581 5.954-5.956a1.125 1.125 0 0 1 1.593 0z" transform="translate(-1.843 -4.55)"/><path d="m1.971 8.25v20a1.986 1.986 0 0 0 1.971 2h23.658a1.986 1.986 0 0 0 1.971-2v-20zm1.971-6a3.972 3.972 0 0 0 -3.942 4v22a3.972 3.972 0 0 0 3.943 4h23.657a3.972 3.972 0 0 0 3.943-4v-22a3.972 3.972 0 0 0 -3.943-4z" transform="translate(0 -2.25)"/></g></svg>