<svg xmlns="http://www.w3.org/2000/svg" width="31.543" height="30" viewBox="0 0 31.543 30"><path d="M24.421,16.078a1.125,1.125,0,0,1,0,1.593l-6.75,6.75a1.125,1.125,0,0,1-1.593,0L12.7,21.046A1.126,1.126,0,1,1,14.3,19.453l2.579,2.581,5.954-5.956a1.125,1.125,0,0,1,1.593,0Z" transform="translate(-1.843 -4.55)" fill="#efefef" fill-rule="evenodd"/><path d="M1.971,8.25v20a1.986,1.986,0,0,0,1.971,2H27.6a1.986,1.986,0,0,0,1.971-2v-20Zm1.971-6A3.972,3.972,0,0,0,0,6.25v22a3.972,3.972,0,0,0,3.943,4H27.6a3.972,3.972,0,0,0,3.943-4v-22a3.972,3.972,0,0,0-3.943-4Z" transform="translate(0 -2.25)" fill="#efefef" fill-rule="evenodd"/></svg>