<svg id="Layer_3" enable-background="new 0 0 64 64" height="512" viewBox="0 0 64 64" width="512" xmlns="http://www.w3.org/2000/svg"><g><path d="m42 20v22l20-11v-20z" fill="#674025"/><path d="m22 22v-11l20 9v11z" fill="#976947"/><path d="m29 14.15-7-3.15 20-9 20 9-20 9-9-4.05" fill="#c18e59"/><path d="m42 31v20l-20 11-20-11v-20" fill="#976947"/><path d="m22 62-20-11v-20l20 9z" fill="#674025"/><path d="m9 34.15-7-3.15 20-9 20 9-20 9-9-4.05" fill="#c18e59"/><path d="m28.322 24.845-19.322 9.305v6.85l4 2v-7.05l19.543-9.206" fill="#f2c351"/><path d="m30.434 25.795-2.112-.95-19.322 9.305v6.85l2 1v-7.05z" fill="#f7d881"/><path d="m26 43v11l12-6v-10z" fill="#d5cec2"/><path d="m48.322 4.845-19.322 9.305v6.85l4 2v-7.05l19.543-9.206" fill="#f2c351"/><path d="m46 23v11l12-6v-10z" fill="#d5cec2"/><path d="m26 53.107c5.391-2.683 9.254-7.973 9.902-14.233l-9.902 4.126z" fill="#e7e4dd"/><path d="m46 33.107c5.391-2.683 9.254-7.973 9.902-14.233l-9.902 4.126z" fill="#e7e4dd"/><path d="m50.434 5.795-2.112-.95-19.322 9.305v6.85l2 1v-7.05z" fill="#f7d881"/></g></svg>