<svg enable-background="new 0 0 512 512" height="512" viewBox="0 0 512 512" width="512" xmlns="http://www.w3.org/2000/svg"><path d="m256 250h-136l-39.653 6c4.731 15.538 10.159 30.861 16.469 45.826 2.738-.251 5.381-.826 8.184-.826 49.706 0 90 40.284 90 89.99 0 5.142-.687 10.052-1.514 14.959l62.514.025 62.52.026c-.833-4.922-1.52-9.85-1.52-15.01 0-49.706 40.294-89.99 90-89.99 2.809 0 5.457.575 8.199.828 6.304-14.969 11.73-30.291 16.458-45.828l-39.657-6z" fill="#575f64"/><path d="m317 390.99c0-49.706 40.294-89.99 90-89.99 2.809 0 5.457.575 8.199.828 6.304-14.969 11.73-30.291 16.458-45.828l-39.657-6h-136v155.975l62.52.025c-.833-4.922-1.52-9.85-1.52-15.01z" fill="#474f54"/><path d="m437 121c-1.611 0-3.208-.264-4.746-.762-.88-.293-89.858-29.238-176.254-29.238s-175.376 28.945-176.254 29.238c-1.538.498-3.135.762-4.746.762h-15c0 35.435 4.611 70.626 12.647 105l47.353 9h136 136l47.351-9c8.037-34.385 12.649-69.578 12.649-105z" fill="#575f64"/><path d="m439.351 226c8.037-34.385 12.649-69.578 12.649-105h-15c-1.611 0-3.208-.264-4.746-.762-.88-.293-89.858-29.238-176.254-29.238v144h136z" fill="#474f54"/><path d="m256 226h-183.353c2.351 10.058 4.691 20.121 7.7 30h175.653 175.657c3.007-9.88 5.345-19.944 7.694-30z" fill="#474f54"/><path d="m439.351 226h-183.351v30h175.657c3.007-9.88 5.345-19.944 7.694-30z" fill="#32393f"/><circle cx="256" cy="61" fill="#ff9100" r="45"/><path d="m301 61c0-24.814-20.186-45-45-45v90c24.814 0 45-20.186 45-45z" fill="#ff641a"/><path d="m318.036 140.541c-22.017-3.018-42.026-4.526-62.036-4.526s-40.02 1.509-62.036 4.526c-7.427 1.025-12.964 7.368-12.964 14.868v115.591c0 8.291 6.709 15 15 15h60 60c8.291 0 15-6.709 15-15v-115.591c0-7.5-5.537-13.843-12.964-14.868z" fill="#fabe2c"/><path d="m331 271v-115.591c0-7.5-5.537-13.843-12.964-14.868-22.017-3.018-42.026-4.526-62.036-4.526v149.985h60c8.291 0 15-6.709 15-15z" fill="#ff9100"/><path d="m271 166.46v89.54h30v-87.334c-10.466-1.168-20.301-1.807-30-2.206z" fill="#dfe7f4"/><path d="m241 166.46c-9.699.399-19.534 1.038-30 2.206v87.334h30z" fill="#f0f7ff"/><path d="m467 46c-8.291 0-15 6.709-15 15s6.709 15 15 15c8.276 0 15 6.724 15 15s-6.724 15-15 15h-27.627c-15.249-4.863-99.042-30-183.373-30s-168.124 25.137-183.373 30h-27.627c-8.276 0-15-6.724-15-15s6.724-15 15-15c8.291 0 15-6.709 15-15s-6.709-15-15-15c-24.814 0-45 20.186-45 45s20.186 45 45 45h30c1.611 0 3.208-.264 4.746-.762.878-.293 89.858-29.238 176.254-29.238s175.374 28.945 176.254 29.238c1.538.498 3.135.762 4.746.762h30c24.814 0 45-20.186 45-45s-20.186-45-45-45z" fill="#fabe2c"/><path d="m437 136h30c24.814 0 45-20.186 45-45s-20.186-45-45-45c-8.291 0-15 6.709-15 15s6.709 15 15 15c8.276 0 15 6.724 15 15s-6.724 15-15 15h-27.627c-15.249-4.863-99.042-30-183.373-30v30c86.396 0 175.374 28.945 176.254 29.238 1.538.498 3.135.762 4.746.762z" fill="#ff9100"/><path d="m105 286c-58.89 0-105 50.142-105 105 0 55.202 45.691 105 105 105 59.162 0 105-49.663 105-105 0-55.743-46.114-105-105-105zm-75 105c0-8.284 1.672-16.117 4.164-23.573l40.831 23.573-40.831 23.573c-2.492-7.456-4.164-15.289-4.164-23.573zm150 0c0 8.284-1.672 16.117-4.164 23.573l-40.831-23.573 40.831-23.573c2.492 7.456 4.164 15.289 4.164 23.573zm-19.153-49.567-40.847 23.584v-47.499c16.183 3.298 30.269 12.01 40.847 23.915zm-70.847-23.915v47.499l-40.847-23.584c10.578-11.905 24.664-20.617 40.847-23.915zm-40.847 123.049 40.847-23.584v47.499c-16.183-3.298-30.269-12.01-40.847-23.915zm70.847 23.915v-47.499l40.847 23.584c-10.578 11.905-24.664 20.617-40.847 23.915z" fill="#704c55"/><path d="m512 391c0-55.721-46.086-105-105-105-58.895 0-105 50.136-105 105 0 53.946 44.135 105 105 105 58.312 0 105-48.683 105-105zm-180 0c0-8.284 1.672-16.117 4.164-23.573l40.831 23.573-40.831 23.573c-2.492-7.456-4.164-15.289-4.164-23.573zm150 0c0 8.284-1.672 16.117-4.164 23.573l-40.831-23.573 40.831-23.573c2.492 7.456 4.164 15.289 4.164 23.573zm-19.153-49.567-40.847 23.584v-47.499c16.183 3.298 30.269 12.01 40.847 23.915zm-70.847-23.915v47.499l-40.847-23.584c10.578-11.905 24.664-20.617 40.847-23.915zm-40.847 123.049 40.847-23.584v47.499c-16.183-3.298-30.269-12.01-40.847-23.915zm70.847 23.915v-47.499l40.847 23.584c-10.578 11.905-24.664 20.617-40.847 23.915z" fill="#5a344b"/></svg>