<svg height="48" viewBox="0 0 48 48" width="48" xmlns="http://www.w3.org/2000/svg"><g fill="none" fill-rule="evenodd"><circle cx="23.763" cy="16.192" fill="#fc521f" opacity=".6" r="13.271"/><circle cx="15.468" cy="32.308" fill="#66bf3c" opacity=".6" r="13.271"/><path d="m15.4683651 19.0362231c6.0751166 0 11.1968436 4.0819458 12.7720903 9.6527463-1.3984169.5016984-2.906037.7748075-4.4774453.7748075-6.0751165 0-11.1968435-4.0819458-12.7720902-9.6527463 1.3989794-.5018004 2.9063302-.7748075 4.4774452-.7748075z" fill="#ff5f95"/><circle cx="32.532" cy="32.308" fill="#1ea7fd" opacity=".6" r="13.271"/><path d="m24.00025 22.1417324c2.897717 2.4344962 4.7395472 6.0851182 4.7395472 10.1659228 0 4.0808045-1.8418302 7.7314265-4.7395472 10.1659227-2.8984413-2.4349409-4.7400472-6.0853668-4.7400472-10.1659227 0-4.0261236 1.7928015-7.6335159 4.6236334-10.067406z" fill="#87e6e5"/><path d="m32.5316349 19.0362231c1.4098806 0 2.7684129.2198481 4.0431854.6271326-1.5259024 5.6471259-6.6838292 9.8004212-12.8118102 9.8004212-1.4102493 0-2.7691235-.2199631-4.0441854-.6274522 1.5262948-5.646317 6.6844683-9.8001016 12.8128102-9.8001016z" fill="#fbd178"/><path d="m24.00025 22.1417324.0121826.0102475c.1623418.1367211.3213592.2772635.4769137.4214887l-.0996608-.0914678c.0774981.0704072.1541598.1417186.2299685.2139177l-.1303077-.1224499c.0797176.0739117.1585256.1487905.2364056.2246178l-.1060979-.1021679c.0711114.0677256.1414722.1362321.2110686.205506l-.1049707-.1033381c.0863142.0840394.1714884.1692439.2554971.2555881l-.1505264-.15225c.076578.076223.1522305.1533749.2269393.2314375l.0001901.0001985c.2562335.2677362.501539.5463985.7349855.8350474l-.0697801-.0855541c.0755424.0918404.1498751.1847134.2229737.2785946l-.1531936-.1930405c.0695881.0860435.1381225.1729744.2055835.2607731l-.0523899-.0677326c.0614051.0788631.1219393.1584376.1815883.2387092l-.1291984-.1709766c.0679285.088407.1347686.1776939.2005004.2678406l-.071302-.096864c.0772286.1039291.1529732.2090265.2272025.3152611l-.1559005-.2183971c.0689341.0945384.1366492.1900225.2031222.2864291l-.0472217-.068032c.0581794.0832643.1154279.1672272.1717304.2518734l-.1245087-.1838414c.0658352.0954815.130452.191868.193828.2891368l.000058.000089c.1404084.2154976.2747794.435419.4028103.6594308l-.0576737-.0998984c.0562444.0964513.1113074.193676.165169.2916544l-.1074953-.191756c.0552449.0966603.1093093.1940822.1621737.2922459l-.000248-.0004605c.109002.2024057.212677.407491.3111021.6155452l-.0002402-.0005077c.0826666.1747433.1614111.3510612.2363731.5293609.0551157.1310899.1082437.2633999.1592825.3967434l-.0628711-.1610828c.0348362.087554.0687672.1755665.1017816.2640257l-.0389105-.1029429c.0394299.1030141.0776128.2066451.1145305.3108746l-.07562-.2079317c.0403804.1081961.0793895.2170606.1170061.3265724l-.0413861-.1186407c.0327842.0925597.0645706.1855913.0953461.279082l-.05396-.1604413c.0387268.1127443.0759777.2261746.1117297.3402679l-.0577697-.1798266c.0341611.1037752.0670768.208116.0987293.3130047l-.0001093-.000362.0651339.2220216c-.0123442.0044239-.0246969.00883-.0370579.0132183l.0366997-.0136043c-.2886847.103569-.5820232.1973965-.879616.2810906l.0001571.0001924c-.2914467.0817291-.5868122.153942-.8858791.216079l.0634491-.0132485c-.1484447.0315875-.2978076.0606928-.4480432.0872706l.3845941-.0740221c-.1383772.0287506-.2775467.0553441-.4174716.079744l.0328775-.0057219c-.15384.0272154-.3085951.0517805-.4642164.0736465l.4313389-.0679246c-.1558643.0271795-.3126657.0516373-.470353.0733231l.0390141-.0053985c-.1329409.0186793-.266514.0353888-.4006887.0500982l.3616746-.0446997c-.1545952.0212605-.3100418.0398567-.4662916.0557411l.104617-.0110414c-.1685616.0184792-.3380727.0338016-.5084729.045907l.4038559-.0348656c-.1548671.0157439-.3105232.0288238-.4669213.0391937l.0630654-.0043281c-.1558835.0110741-.3125111.0194559-.4698365.0250993l.4067711-.0207712c-.1442363.0095634-.2891037.0168219-.4345652.0217391l.0277941-.0009679c-.160721.0057652-.3221703.0086724-.4842987.0086724l-.4499959-.0074857c-.0137021-.0004565-.0273989-.0009338-.0410905-.0014319-.3122962-.0113634-.6216913-.0335016-.9279746-.0660587l.0447481.0046802c-.1418825-.0145971-.2831022-.0314293-.4236236-.0504609l.3788755.0457807c-.1524976-.0162101-.3042237-.035003-.4551339-.0563342l.0762584.0105535c-.1625209-.0220111-.3241075-.0469642-.4847045-.0748038l.4084461.0642503c-.153597-.0217111-.3063487-.0460515-.4582081-.0729745l.049762.0087242c-.1297406-.0224906-.2588353-.0468651-.3872549-.0730943l.3374929.0643701c-.153367-.0271903-.3058238-.0570145-.4573221-.0894243l.1198292.0250542c-.1664071-.033988-.3316807-.0710903-.4957571-.1112432l.3759279.086189c-.147809-.0316206-.2947055-.0657023-.4406447-.1022002l.0647168.0160112c-.1376887-.0336954-.2745344-.069539-.4104995-.1074935l.3457827.0914823c-.1395581-.0349021-.2782406-.0720138-.4160084-.1112956l.000341.0000972-.3981482-.1203443.0692741-.2468411c.0285639-.0980643.0582289-.1956595.0889809-.2927712l-.0290756.0931556c.0408999-.1325473.0838199-.2642079.128724-.3949459l-.0996484.3017903c.0346284-.1093532.0706351-.2180933.1079996-.3262l.0002324-.0004999c.1299126-.3760487.2765311-.744913.4387614-1.1052314l-.0789851.179158c.0448521-.1036963.0909887-.206707.1383898-.3090122l-.0594047.1298542c.0369879-.0821511.0747873-.163858.1133881-.2451104l-.0539834.1152562c.0509956-.1100633.1034548-.2193099.1573524-.327715l-.103369.2124588c.0496629-.1045378.1006522-.2083233.1529462-.3113347l-.0495772.0988759c.0408408-.0821437.0825076-.1638043.1249895-.2449707l.000061-.000311c.0776451-.1481552.1580783-.2949682.2411722-.4400617.1979698-.3458754.411177-.6819929.638606-1.0074379l-.1170052.1703951c.0590171-.0873114.1190459-.1738826.1800696-.2596968l-.0630644.0893017c.053664-.0767919.1081199-.1529895.1633557-.2285811l-.1002913.1392794c.07391-.1039355.1492795-.2067606.2260785-.3084453l-.1257872.1691659c.0632605-.0865736.1275441-.1723522.1928329-.257318l-.000158.0003487c.3162894-.411757.6559899-.8041103 1.0172401-1.1753892l-.1893003.1987065c.0737503-.078984.1484536-.1570665.2240915-.2342292l-.0347912.0355227c.0645994-.0663928.1298879-.1321117.195854-.1971451l-.1610628.1616224c.0773342-.0788931.1556454-.1568247.234914-.2337752l-.0738512.0721528c.0673375-.0663854.1353809-.1320566.2041181-.1970012l-.1302669.1248484c.0966051-.0937799.1946323-.1861027.2940462-.2769329l-.1637793.1520845c.072362-.0683694.1454928-.1359337.219378-.2026784l-.0555987.0505939c.0889106-.0812338.1789303-.1612737.2700338-.2400944l-.0001181.0000265c.0389095-.033588.0778974-.0669285.1170799-.1000459z" fill="#fff"/></g></svg>