<svg enable-background="new 0 0 512 512" height="512" viewBox="0 0 512 512" width="512" xmlns="http://www.w3.org/2000/svg"><path d="m340.212 432.821 125.404-38.922c22.456-37.013 35.386-80.447 35.386-126.901 0-135.311-109.691-245.002-245.002-245.002s-245.002 109.691-245.002 245.002c0 63.962 24.52 122.191 64.661 165.823z" fill="#4fabf7"/><path d="m322.499 53.725c.571-10.227 10.857-17.687 20.896-14.776 1.747.507 3.616-.09 4.729-1.529 5.474-7.075 14.046-11.632 23.684-11.632 13.317 0 24.596 8.699 28.479 20.724.643 1.992 2.63 3.168 4.71 2.931 7.064-.805 13.912 2.646 17.54 8.6 1.234 2.025 3.84 2.658 5.914 1.508 2.459-1.363 5.373-2.003 8.459-1.629 6.317.765 11.392 5.894 12.094 12.218.933 8.4-5.617 15.511-13.829 15.511h-117.37c-7.792 0-14.388-6.376-14.255-14.167.138-8.102 7.017-13.986 14.499-13.666 2.337.102 4.319-1.756 4.45-4.093z" fill="#73c3f9"/><path d="m253.792 118.185c.881-15.778 16.749-27.287 32.237-22.795 2.695.782 5.579-.14 7.296-2.359 8.445-10.915 21.669-17.945 36.538-17.945 20.545 0 37.945 13.421 43.936 31.972.992 3.073 4.057 4.887 7.266 4.522 10.897-1.242 21.462 4.082 27.059 13.268 1.904 3.125 5.924 4.101 9.124 2.327 3.793-2.103 8.289-3.09 13.05-2.513 9.746 1.18 17.574 9.092 18.658 18.849 1.44 12.959-8.666 23.93-21.334 23.93h-181.072c-12.02 0-22.197-9.837-21.992-21.855.214-12.5 10.826-21.577 22.367-21.083 3.608.152 6.666-2.714 6.867-6.318z" fill="#9bd8f9"/><path d="m203.345 244.499c-1.084-9.757-8.913-17.669-18.658-18.849-4.762-.577-9.257.41-13.05 2.513-3.2 1.774-7.22.798-9.124-2.327-5.597-9.186-16.162-14.51-27.059-13.268-3.209.366-6.273-1.449-7.266-4.522-5.991-18.551-23.391-31.972-43.936-31.972-14.869 0-28.093 7.03-36.538 17.945-1.717 2.219-4.601 3.14-7.296 2.359-7.022-2.037-14.118-.776-19.865 2.673-6.215 21.576-9.554 44.37-9.554 67.946 0 .478.014.953.017 1.431h170.997c12.666.001 22.772-10.97 21.332-23.929z" fill="#73c3f9"/><path d="m371.932 373.021h-1.528v110.664c39.699-21.004 72.931-52.59 95.936-91.01v-177.076l-155.194-73.876v206.844h60.787c6.742 0 12.227 5.485 12.227 12.227s-5.486 12.227-12.228 12.227z" fill="#3c58a0"/><path d="m311.146 348.567h60.787c.014 0 .028.002.043.002v-1.531c-12.191-3.628-11.476-17.038-11.476-17.038s0-123.5 0-137.5 12.381-12.941 12.381-12.941l-1.508-9.167-60.226-28.669v206.844z" fill="#2a428c"/><path d="m74.728 431.821c37.923 41.683 90.03 70.222 148.691 78.018v-136.309h.001 57.548v-138.582h-206.24z" fill="#dae2fe"/><path d="m128.756 273.321c0-21.193 17.18-38.373 38.373-38.373h-92.401v196.873c15.744 17.305 33.94 32.335 54.028 44.566z" fill="#bec8f7"/><path d="m97.843 121.263h160.01v114.704h-160.01z" fill="#dae2fe"/><path d="m140.871 208.849v-60.468c0-14.977 12.141-27.118 27.118-27.118h-70.146v114.704h70.146c-14.977 0-27.118-12.141-27.118-27.118z" fill="#bec8f7"/><path d="m177.848 46.835c-4.22 0-7.642-3.421-7.642-7.642v-31.551c0-4.22 3.421-7.642 7.642-7.642 4.22 0 7.642 3.421 7.642 7.642v31.551c-.001 4.22-3.422 7.642-7.642 7.642z" fill="#dae2fe"/><g fill="#a8b7ef"><path d="m105.292 261.422c-4.22 0-7.642 3.421-7.642 7.642v184.871c4.932 4.182 10.028 8.174 15.284 11.961v-196.832c0-4.22-3.421-7.642-7.642-7.642z"/><path d="m134.314 261.422c-4.22 0-7.642 3.421-7.642 7.642v206.04c4.978 3.1 10.075 6.026 15.284 8.771v-214.81c0-4.221-3.421-7.643-7.642-7.643z"/><path d="m163.337 261.422c-4.22 0-7.642 3.421-7.642 7.642v221.522c5.007 2.25 10.105 4.334 15.284 6.25v-227.772c0-4.22-3.422-7.642-7.642-7.642z"/><path d="m192.359 261.422c-4.22 0-7.642 3.421-7.642 7.642v232.389c5.029 1.527 10.123 2.903 15.284 4.11v-236.499c-.001-4.22-3.422-7.642-7.642-7.642z"/></g><path d="m221.38 337.868c-4.22 0-7.642-3.421-7.642-7.642v-61.162c0-4.22 3.421-7.642 7.642-7.642 4.22 0 7.642 3.421 7.642 7.642v61.162c0 4.221-3.421 7.642-7.642 7.642z" fill="#a8b7ef"/><path d="m134.315 217.627c-4.22 0-7.642-3.421-7.642-7.642v-60.851c0-4.22 3.421-7.642 7.642-7.642s7.642 3.421 7.642 7.642v60.851c-.001 4.22-3.422 7.642-7.642 7.642z" fill="#a8b7ef"/><path d="m163.337 217.627c-4.22 0-7.642-3.421-7.642-7.642v-60.851c0-4.22 3.421-7.642 7.642-7.642 4.22 0 7.642 3.421 7.642 7.642v60.851c-.001 4.22-3.422 7.642-7.642 7.642z" fill="#a8b7ef"/><path d="m192.359 217.627c-4.22 0-7.642-3.421-7.642-7.642v-60.851c0-4.22 3.421-7.642 7.642-7.642 4.22 0 7.642 3.421 7.642 7.642v60.851c-.001 4.22-3.422 7.642-7.642 7.642z" fill="#a8b7ef"/><path d="m221.381 217.627c-4.22 0-7.642-3.421-7.642-7.642v-60.851c0-4.22 3.421-7.642 7.642-7.642 4.22 0 7.642 3.421 7.642 7.642v60.851c0 4.22-3.422 7.642-7.642 7.642z" fill="#a8b7ef"/><path d="m221.38 217.627c-4.22 0-7.642-3.421-7.642-7.642v-60.851c0-4.22 3.421-7.642 7.642-7.642 4.22 0 7.642 3.421 7.642 7.642v60.851c0 4.22-3.421 7.642-7.642 7.642z" fill="#a8b7ef"/><path d="m250.403 337.868c-4.22 0-7.642-3.421-7.642-7.642v-61.162c0-4.22 3.421-7.642 7.642-7.642s7.642 3.421 7.642 7.642v61.162c0 4.221-3.422 7.642-7.642 7.642z" fill="#a8b7ef"/><path d="m135.937 44.867h83.822v76.396h-83.822z" fill="#dae2fe"/><path d="m170.965 98.145v-30.16c0-12.768 10.35-23.118 23.118-23.118h-58.146v76.396h58.146c-12.768 0-23.118-10.35-23.118-23.118z" fill="#bec8f7"/><path d="m221.381 373.53v136.024c11.312 1.6 22.866 2.446 34.619 2.446 41.959 0 81.45-10.556 115.975-29.145v-109.325z" fill="#ffc839"/><path d="m275.556 477.455v-69.383c0-19.078 15.465-34.543 34.543-34.543h-88.718v136.024c11.312 1.601 22.866 2.447 34.619 2.447 13.453 0 26.651-1.091 39.514-3.178-11.792-5.489-19.958-17.511-19.958-31.367z" fill="#ffb332"/><path d="m433.157 255.206h-89.845c-4.22 0-7.642-3.421-7.642-7.642 0-4.22 3.421-7.642 7.642-7.642h89.845c4.221 0 7.642 3.421 7.642 7.642-.001 4.221-3.422 7.642-7.642 7.642z" fill="#73c3f9"/><path d="m433.157 287.405h-89.845c-4.22 0-7.642-3.421-7.642-7.642 0-4.22 3.421-7.642 7.642-7.642h89.845c4.221 0 7.642 3.421 7.642 7.642-.001 4.221-3.422 7.642-7.642 7.642z" fill="#73c3f9"/><path d="m433.157 319.605h-89.845c-4.22 0-7.642-3.421-7.642-7.642s3.421-7.642 7.642-7.642h89.845c4.221 0 7.642 3.421 7.642 7.642s-3.422 7.642-7.642 7.642z" fill="#73c3f9"/><path d="m433.157 351.804h-29.591c-4.22 0-7.642-3.421-7.642-7.642s3.421-7.642 7.642-7.642h29.591c4.221 0 7.642 3.421 7.642 7.642s-3.422 7.642-7.642 7.642z" fill="#73c3f9"/><path d="m433.157 384.003h-29.591c-4.22 0-7.642-3.421-7.642-7.642s3.421-7.642 7.642-7.642h29.591c4.221 0 7.642 3.421 7.642 7.642s-3.422 7.642-7.642 7.642z" fill="#73c3f9"/><path d="m433.157 416.203h-35.704c-4.22 0-7.642-3.421-7.642-7.642 0-4.22 3.421-7.642 7.642-7.642h35.704c4.221 0 7.642 3.421 7.642 7.642-.001 4.22-3.422 7.642-7.642 7.642z" fill="#73c3f9"/><path d="m433.157 433.118h-35.705c-4.22 0-7.642 3.421-7.642 7.642s3.421 7.642 7.642 7.642h23.227c5.209-4.731 10.201-9.695 14.986-14.854-.787-.274-1.629-.43-2.508-.43z" fill="#73c3f9"/><path d="m467.265 223.707c-1.102 0-2.22-.239-3.281-.745l-157.858-75.206c-3.811-1.815-5.427-6.376-3.612-10.186s6.376-5.428 10.186-3.612l157.858 75.206c3.81 1.815 5.427 6.376 3.612 10.186-1.311 2.749-4.05 4.357-6.905 4.357z" fill="#4f71b6"/><g fill="#ff9100"><path d="m253.145 420.607c-4.22 0-7.642-3.421-7.642-7.642v-9.322c0-4.22 3.421-7.642 7.642-7.642 4.22 0 7.642 3.421 7.642 7.642v9.322c0 4.22-3.422 7.642-7.642 7.642z"/><path d="m282.167 420.607c-4.22 0-7.642-3.421-7.642-7.642v-9.322c0-4.22 3.421-7.642 7.642-7.642s7.642 3.421 7.642 7.642v9.322c0 4.22-3.421 7.642-7.642 7.642z"/><path d="m311.189 420.607c-4.22 0-7.642-3.421-7.642-7.642v-9.322c0-4.22 3.421-7.642 7.642-7.642s7.642 3.421 7.642 7.642v9.322c0 4.22-3.421 7.642-7.642 7.642z"/><path d="m340.212 420.607c-4.22 0-7.642-3.421-7.642-7.642v-9.322c0-4.22 3.421-7.642 7.642-7.642 4.22 0 7.642 3.421 7.642 7.642v9.322c-.001 4.22-3.422 7.642-7.642 7.642z"/><path d="m253.145 460.137c-4.22 0-7.642-3.421-7.642-7.642v-9.322c0-4.22 3.421-7.642 7.642-7.642 4.22 0 7.642 3.421 7.642 7.642v9.322c0 4.221-3.422 7.642-7.642 7.642z"/><path d="m282.167 460.137c-4.22 0-7.642-3.421-7.642-7.642v-9.322c0-4.22 3.421-7.642 7.642-7.642s7.642 3.421 7.642 7.642v9.322c0 4.221-3.421 7.642-7.642 7.642z"/><path d="m311.189 460.137c-4.22 0-7.642-3.421-7.642-7.642v-9.322c0-4.22 3.421-7.642 7.642-7.642s7.642 3.421 7.642 7.642v9.322c0 4.221-3.421 7.642-7.642 7.642z"/><path d="m340.212 460.137c-4.22 0-7.642-3.421-7.642-7.642v-9.322c0-4.22 3.421-7.642 7.642-7.642 4.22 0 7.642 3.421 7.642 7.642v9.322c-.001 4.221-3.422 7.642-7.642 7.642z"/><path d="m253.145 499.668c-4.22 0-7.642-3.421-7.642-7.642v-9.322c0-4.22 3.421-7.642 7.642-7.642 4.22 0 7.642 3.421 7.642 7.642v9.322c0 4.22-3.422 7.642-7.642 7.642z"/><path d="m282.167 499.668c-4.22 0-7.642-3.421-7.642-7.642v-9.322c0-4.22 3.421-7.642 7.642-7.642s7.642 3.421 7.642 7.642v9.322c0 4.22-3.421 7.642-7.642 7.642z"/><path d="m311.189 499.668c-4.22 0-7.642-3.421-7.642-7.642v-9.322c0-4.22 3.421-7.642 7.642-7.642s7.642 3.421 7.642 7.642v9.322c0 4.22-3.421 7.642-7.642 7.642z"/><path d="m340.212 475.062c-4.22 0-7.642 3.421-7.642 7.642v9.322c0 2.762 1.471 5.175 3.667 6.517 3.798-1.316 7.553-2.722 11.263-4.217.229-.726.354-1.498.354-2.3v-9.322c-.001-4.221-3.422-7.642-7.642-7.642z"/></g><path d="m371.976 374.549h-150.595c-7.597 0-13.755-6.158-13.755-13.755s6.158-13.755 13.755-13.755h150.594c7.597 0 13.755 6.158 13.755 13.755.001 7.597-6.157 13.755-13.754 13.755z" fill="#ffdd40"/><path d="m283.828 360.794c0-7.597 6.158-13.755 13.755-13.755h-76.202c-7.597 0-13.755 6.158-13.755 13.755s6.158 13.755 13.755 13.755h76.202c-7.597 0-13.755-6.158-13.755-13.755z" fill="#ffc839"/><path d="m219.759 52.508h-83.822c-4.22 0-7.642-3.421-7.642-7.642s3.421-7.642 7.642-7.642h83.822c4.22 0 7.642 3.421 7.642 7.642s-3.422 7.642-7.642 7.642z" fill="#e9efff"/><path d="m257.853 128.905h-160.01c-4.22 0-7.642-3.421-7.642-7.642 0-4.22 3.421-7.642 7.642-7.642h160.01c4.22 0 7.642 3.421 7.642 7.642 0 4.22-3.422 7.642-7.642 7.642z" fill="#e9efff"/><path d="m280.967 242.59h-206.239c-4.22 0-7.642-3.421-7.642-7.642 0-4.22 3.421-7.642 7.642-7.642h206.239c4.22 0 7.642 3.421 7.642 7.642 0 4.22-3.421 7.642-7.642 7.642z" fill="#e9efff"/><path d="m163.337 100.599c-4.22 0-7.642-3.421-7.642-7.642v-21.477c0-4.22 3.421-7.642 7.642-7.642s7.642 3.421 7.642 7.642v21.477c0 4.22-3.422 7.642-7.642 7.642z" fill="#a8b7ef"/><path d="m192.359 100.599c-4.22 0-7.642-3.421-7.642-7.642v-21.477c0-4.22 3.421-7.642 7.642-7.642s7.642 3.421 7.642 7.642v21.477c0 4.22-3.422 7.642-7.642 7.642z" fill="#a8b7ef"/></svg>