<svg enable-background="new 0 0 497 497" height="512" viewBox="0 0 497 497" width="512" xmlns="http://www.w3.org/2000/svg"><path d="m467 413.5-90-165 90-165h22.5c4.142 0 7.5 3.358 7.5 7.5v315c0 4.142-3.358 7.5-7.5 7.5z" fill="#2baacf"/><path d="m30 413.5 90-165-90-165h-22.5c-4.142 0-7.5 3.358-7.5 7.5v315c0 4.142 3.358 7.5 7.5 7.5z" fill="#2fc0eb"/><path d="m467 83.5h-30l-75 165 75 165h30v-30l-15-135 15-135z" fill="#2fc0eb"/><path d="m30 83.5v30l60 135-60 135v30h86.75l30-30 30 30h143.5l30-30 30 30h56.75v-330z" fill="#4fd7ff"/><path d="m320.25 353.5h60v60h-60z" fill="#2d4a7a"/><path d="m116.75 353.5h60v60h-60z" fill="#2d4a7a"/><path d="m30 113.5h437v270h-437z" fill="#8de5ff"/><path d="m407 353.5-30-105 30-105h30v210z" fill="#2fc0eb"/><path d="m365.25 143.5h41.75v210h-41.75z" fill="#4fd7ff"/><path d="m305.25 353.5-30-105 30-105h30v210z" fill="#2fc0eb"/><path d="m263.5 143.5h41.75v210h-41.75z" fill="#4fd7ff"/><path d="m203.5 353.5-30-105 30-105h30v210z" fill="#2fc0eb"/><path d="m161.75 143.5h41.75v210h-41.75z" fill="#4fd7ff"/><path d="m101.75 353.5-30-105 30-105h30v210z" fill="#2fc0eb"/><path d="m60 143.5h41.75v210h-41.75z" fill="#4fd7ff"/></svg>