<svg height="512pt" viewBox="0 0 512 512" width="512pt" xmlns="http://www.w3.org/2000/svg"><path d="m406 392c-33.089844 0-60-26.910156-60-60s26.910156-61 60-61 60 27.910156 60 61-26.910156 60-60 60zm0 0" fill="#f6a96c"/><path d="m406 392c-22.835938 0-43.8125 7.480469-61.042969 19.859375l-22.027343 49.757813 38.070312 50.382812h151v-15c0-57.988281-48.011719-105-106-105zm0 0" fill="#32ddf9"/><path d="m76 126.714844-46.464844 24.285156 8.820313-53.269531-38.355469-36.429688 53.179688-7.5 22.820312-53.800781 23.378906 53.800781 51.621094 7.5-37.355469 36.429688 8.820313 53.269531zm0 0" fill="#ffda2d"/><path d="m293.5 97.597656 9 53.402344-46.5-24.300781-46.5 24.300781 9-53.402344-37.5-36.296875 52.199219-7.5 22.800781-53.800781 23.402344 53.800781 51.597656 7.5zm0 0" fill="#ffda2d"/><path d="m436 126.714844-46.464844 24.285156 8.820313-53.269531-37.355469-36.429688 52.179688-7.5 22.820312-53.800781 23.378906 53.800781 52.621094 7.5-38.355469 36.429688 8.820313 53.269531zm0 0" fill="#fdbf00"/><path d="m106 392c-33.089844 0-60-26.910156-60-60s26.910156-61 60-61 60 27.910156 60 61-26.910156 60-60 60zm0 0" fill="#ffbd86"/><path d="m106 392c-57.988281 0-106 47.011719-106 105v15h151l37.210938-45-21.167969-55.136719c-17.230469-12.382812-38.207031-19.863281-61.042969-19.863281zm0 0" fill="#84ecf7"/><path d="m302.5 151-46.5-24.300781v-126.699219l23.402344 53.800781 51.597656 7.5-37.5 36.296875zm0 0" fill="#fdbf00"/><path d="m256 241c-33 0-60 27-60 60s27 61 60 61 60-28 60-61-27-60-60-60zm0 0" fill="#fed2a4"/><path d="m361 467v45h-210v-45c0-20.398438 6-39 15.902344-55.199219 18.597656-29.703125 51.597656-49.800781 89.097656-49.800781s70.5 20.097656 89.097656 49.800781c9.902344 16.199219 15.902344 34.800781 15.902344 55.199219zm0 0" fill="#ff637b"/><path d="m256 362v-121c33 0 60 27 60 60s-27 61-60 61zm0 0" fill="#f6a96c"/><path d="m361 467v45h-105v-150c37.5 0 70.5 20.097656 89.097656 49.800781 9.902344 16.199219 15.902344 34.800781 15.902344 55.199219zm0 0" fill="#e63950"/></svg>