<svg xmlns="http://www.w3.org/2000/svg" id="Layer_1" viewBox="0 0 64 64"><path fill="#e74c3c" d="M48.5 11.5h7a4 4 0 0 1 4 4v9h-55v-9a4 4 0 0 1 4-4h7"/><path fill="#212e3a" d="M59.5 25h-55a.5.5 0 0 1-.5-.5v-9C4 13.019 6.019 11 8.5 11h7a.5.5 0 0 1 0 1h-7C6.57 12 5 13.57 5 15.5V24h54v-8.5c0-1.93-1.57-3.5-3.5-3.5h-7a.5.5 0 0 1 0-1h7c2.481 0 4.5 2.019 4.5 4.5v9a.5.5 0 0 1-.5.5z"/><path fill="#2c3e50" d="M21.5 11.5h21"/><path fill="#212e3a" d="M42.5 12h-21a.5.5 0 0 1 0-1h21a.5.5 0 0 1 0 1z"/><path fill="#2c3e50" d="M18.5 20.5a3 3 0 0 1-3-3v-10a3 3 0 1 1 6 0v10a3 3 0 0 1-3 3z"/><path fill="#212e3a" d="M18.5 21c-1.93 0-3.5-1.57-3.5-3.5v-10C15 5.57 16.57 4 18.5 4S22 5.57 22 7.5v10c0 1.93-1.57 3.5-3.5 3.5zm0-16A2.502 2.502 0 0 0 16 7.5v10c0 1.379 1.121 2.5 2.5 2.5s2.5-1.121 2.5-2.5v-10C21 6.121 19.879 5 18.5 5z"/><path fill="#2c3e50" d="M45.5 20.5a3 3 0 0 1-3-3v-10a3 3 0 1 1 6 0v10a3 3 0 0 1-3 3z"/><path fill="#212e3a" d="M45.5 21c-1.93 0-3.5-1.57-3.5-3.5v-10C42 5.57 43.57 4 45.5 4S49 5.57 49 7.5v10c0 1.93-1.57 3.5-3.5 3.5zm0-16A2.502 2.502 0 0 0 43 7.5v10c0 1.379 1.121 2.5 2.5 2.5s2.5-1.121 2.5-2.5v-10C48 6.121 46.879 5 45.5 5z"/><path fill="#ecf0f1" d="M56.5 59.5h-49a3 3 0 0 1-3-3v-32h55v32a3 3 0 0 1-3 3z"/><path fill="#212e3a" d="M56.5 60h-49C5.57 60 4 58.43 4 56.5v-32a.5.5 0 0 1 .5-.5h55a.5.5 0 0 1 .5.5v32c0 1.93-1.57 3.5-3.5 3.5zM5 25v31.5C5 57.879 6.121 59 7.5 59h49c1.379 0 2.5-1.121 2.5-2.5V25H5z"/><path fill="#e74c3c" d="M32 30.5l3.737 7.571 8.355 1.214-6.046 5.894 1.427 8.321L32 49.571 24.527 53.5l1.427-8.321-6.046-5.894 8.355-1.214z"/><path fill="#212e3a" d="M39.474 54a.49.49 0 0 1-.232-.058L32 50.136l-7.241 3.807a.5.5 0 1 1-.725-.527l1.384-8.062-5.857-5.71a.5.5 0 0 1 .276-.854l8.096-1.176 3.62-7.336c.168-.34.729-.34.896 0l3.62 7.336 8.096 1.176a.5.5 0 1 1 .276.854l-5.857 5.71 1.384 8.062a.5.5 0 0 1-.494.584zM32 49.071c.08 0 .16.02.232.058l6.577 3.457-1.257-7.322a.5.5 0 0 1 .145-.443l5.32-5.186-7.354-1.068a.5.5 0 0 1-.376-.273L32 31.63l-3.288 6.663a.5.5 0 0 1-.376.273l-7.354 1.068 5.32 5.186c.118.115.172.28.145.443l-1.257 7.322 6.577-3.457a.517.517 0 0 1 .233-.057z"/><g><path fill="#f8b545" d="M32 30.5l3.737 7.571 8.355 1.214-6.046 5.894 1.427 8.321L32 49.571 24.527 53.5l1.427-8.321-6.046-5.894 8.355-1.214z"/><path fill="#212e3a" d="M39.474 54a.49.49 0 0 1-.232-.058L32 50.136l-7.241 3.807a.5.5 0 1 1-.725-.527l1.384-8.062-5.857-5.71a.5.5 0 0 1 .276-.854l8.096-1.176 3.62-7.336c.168-.34.729-.34.896 0l3.62 7.336 8.096 1.176a.5.5 0 1 1 .276.854l-5.857 5.71 1.384 8.062a.5.5 0 0 1-.494.584zM32 49.071c.08 0 .16.02.232.058l6.577 3.457-1.257-7.322a.5.5 0 0 1 .145-.443l5.32-5.186-7.354-1.068a.5.5 0 0 1-.376-.273L32 31.63l-3.288 6.663a.5.5 0 0 1-.376.273l-7.354 1.068 5.32 5.186c.118.115.172.28.145.443l-1.257 7.322 6.577-3.457a.517.517 0 0 1 .233-.057z"/></g></svg>