<svg viewBox="0 0 32 32" xmlns="http://www.w3.org/2000/svg"><rect fill="#e0e0e2" height="27" rx="2" width="31" x=".5" y="4.5"/><path d="m15.99728 19.48637a3.51912 3.51912 0 0 0 -2.55283-.97221 4.101 4.101 0 0 0 -2.09606 1.06977 10.50454 10.50454 0 0 1 -1.90219 1.445 2.65431 2.65431 0 0 1 -1.536.29426 3.47619 3.47619 0 0 1 -1.4102-.7549 4.979 4.979 0 0 0 3.54625 3.69506 5.62987 5.62987 0 0 0 5.17831-1.0436 5.378 5.378 0 0 0 .77544-.79366 5.378 5.378 0 0 0 .77544.79365 5.62987 5.62987 0 0 0 5.17831 1.0436 4.979 4.979 0 0 0 3.54625-3.69505 3.47619 3.47619 0 0 1 -1.41023.75489 2.65431 2.65431 0 0 1 -1.536-.29426 10.50454 10.50454 0 0 1 -1.90219-1.445 4.101 4.101 0 0 0 -2.09606-1.06977 3.51912 3.51912 0 0 0 -2.55283.97221z" fill="#58565d"/><path d="m7.91022 22.32318a2.65436 2.65436 0 0 0 1.536-.29431 10.50278 10.50278 0 0 0 1.90216-1.44495 4.10107 4.10107 0 0 1 2.09607-1.06976 3.51911 3.51911 0 0 1 2.55286.97217h.00537a3.51911 3.51911 0 0 1 2.55286-.97217 4.10107 4.10107 0 0 1 2.09607 1.06976 10.50278 10.50278 0 0 0 1.90216 1.44495 2.65436 2.65436 0 0 0 1.536.29431 2.09959 2.09959 0 0 0 .9278-.41895 3.80219 3.80219 0 0 0 .48243-1.33593 3.477 3.477 0 0 1 -1.41022.75488 2.65436 2.65436 0 0 1 -1.536-.29431 10.50278 10.50278 0 0 1 -1.90216-1.44495 4.10107 4.10107 0 0 0 -2.09607-1.06976 3.51911 3.51911 0 0 0 -2.55286.97217h-.00537a3.51911 3.51911 0 0 0 -2.55286-.97217 4.10107 4.10107 0 0 0 -2.09607 1.06976 10.50278 10.50278 0 0 1 -1.90216 1.44495 2.65436 2.65436 0 0 1 -1.536.29431 3.477 3.477 0 0 1 -1.41023-.75488 3.80219 3.80219 0 0 0 .48242 1.33594 2.09959 2.09959 0 0 0 .9278.41894z" fill="#3c3b41"/><path d="m2.5 4.5h27a2 2 0 0 1 2 2v6a0 0 0 0 1 0 0h-31a0 0 0 0 1 0 0v-6a2 2 0 0 1 2-2z" fill="#e5303e"/><path d="m29.5 4.5h-27a2 2 0 0 0 -2 2v1a2 2 0 0 1 2-2h27a2 2 0 0 1 2 2v-1a2 2 0 0 0 -2-2z" fill="#b72732"/><rect fill="#8b8891" height="8" rx="2" width="4" x="4.5" y=".5"/><rect fill="#8b8891" height="8" rx="2" width="4" x="23.5" y=".5"/><path d="m19.5 9h-7a.5.5 0 0 1 0-1h7a.5.5 0 0 1 0 1z" fill="#fff"/></svg>