<svg height="156" viewBox="0 0 163 156" width="163" xmlns="http://www.w3.org/2000/svg" xmlns:xlink="http://www.w3.org/1999/xlink"><linearGradient id="a" gradientUnits="objectBoundingBox" x1=".048" x2=".952" y1=".289" y2=".71"><stop offset="0" stop-color="#fff" stop-opacity=".2"/><stop offset="1" stop-color="#fff" stop-opacity="0"/></linearGradient><filter id="b" filterUnits="userSpaceOnUse" height="78" width="61" x="15.187" y="66"><feOffset dy="3"/><feGaussianBlur result="c" stdDeviation="3"/><feFlood flood-opacity=".161"/><feComposite in2="c" operator="in"/><feComposite in="SourceGraphic"/></filter><filter id="c" filterUnits="userSpaceOnUse" height="78" width="34" x="64.613" y="66"><feOffset dy="3"/><feGaussianBlur result="e" stdDeviation="3"/><feFlood flood-opacity=".161"/><feComposite in2="e" operator="in"/><feComposite in="SourceGraphic"/></filter><filter id="d" filterUnits="userSpaceOnUse" height="78" width="61" x="86.813" y="66"><feOffset dy="3"/><feGaussianBlur result="g" stdDeviation="3"/><feFlood flood-opacity=".161"/><feComposite in2="g" operator="in"/><feComposite in="SourceGraphic"/></filter><g fill="#efefef"><path d="m128.23002625 155h-93.46002579c-1.74164582 0-3.27135468-1.11355591-3.80650139-2.77095032l-28.90133238-89.51016998c-.53139591-1.64579392.0495832-3.43735504 1.44568753-4.45808411l75.63133645-55.29598021c.68987275-.50437498 1.50622559-.77097917 2.36080933-.77097917s1.67093658.26660419 2.36080933.77097917l75.63133239 55.29598021c1.39613343 1.02072907 1.97711182 2.81227112 1.44569397 4.45806122l-28.90133667 89.51019287c-.53512573 1.65739441-2.06483459 2.77095032-3.80647277 2.77095032z"/><path d="m81.5 3.19381714c-.64095306 0-1.2532196.19995117-1.77060699.57823181l-75.63135529 55.29598236c-1.04708862.76556397-1.48280334 2.1092453-1.08427429 3.34358978l28.90136719 89.51017762c.40135192 1.24304199 1.5486145 2.07818603 2.85484313 2.07818603h93.46002198c1.30624389 0 2.45352173-.83514404 2.85488891-2.07818603l28.90133667-89.51022339c.39854432-1.23429871-.03720092-2.57798004-1.08428955-3.34354401l-75.63132477-55.29598236c-.51741027-.37828064-1.12966918-.57823181-1.77060699-.57823181m-.00000763-2c1.03612518 0 2.072258.32124328 2.95102692.96374512l75.63133239 55.29597473c1.74142457 1.27321624 2.46995545 3.51971435 1.80709839 5.57258606l-28.90132141 89.51019287c-.66661072 2.06459045-2.58859253 3.46366882-4.75813293 3.46366882h-93.46002198c-2.16950988 0-4.09149169-1.39907837-4.75810241-3.46366882l-28.90135193-89.51016998c-.66282654-2.05287171.06567383-4.29939271 1.80711365-5.57260895l75.63134765-55.29597473c.87876129-.64250184 1.91488648-.96374512 2.95101166-.96374512z" fill="#242424"/></g><g stroke="#efefef" stroke-width=".2" transform="translate(67.772 122.184)"><path d="m28.255 13.69-.012-.216a.589.589 0 0 0 -.29-.481c-.9-.527-1-.813-1.013-.888s0-.4.689-1.169a.589.589 0 0 0 .128-.548q-.173-.627-.4-1.237a.588.588 0 0 0 -.424-.368c-1.014-.224-1.209-.465-1.243-.535s-.119-.371.3-1.335a.59.59 0 0 0 -.049-.56q-.357-.539-.761-1.043a.6.6 0 0 0 -.518-.218c-1.044.1-1.3-.071-1.357-.124s-.225-.315-.124-1.358a.589.589 0 0 0 -.218-.517c-.337-.269-.683-.523-1.043-.761a.584.584 0 0 0 -.56-.048c-.964.417-1.266.333-1.335.3s-.311-.229-.534-1.243a.589.589 0 0 0 -.368-.424c-.405-.153-.816-.289-1.237-.4a.588.588 0 0 0 -.548.13c-.775.689-1.086.707-1.17.689s-.361-.12-.888-1.013a.589.589 0 0 0 -.48-.295l-.217-.014a6.765 6.765 0 0 0 -.891 0l-.216.014a.589.589 0 0 0 -.476.289c-.528.9-.813 1-.888 1.013s-.395 0-1.17-.689a.589.589 0 0 0 -.548-.13q-.631.175-1.237.4a.589.589 0 0 0 -.368.424c-.221 1.017-.464 1.21-.534 1.245s-.371.119-1.335-.3a.589.589 0 0 0 -.56.049c-.359.237-.707.492-1.041.761a.589.589 0 0 0 -.218.517c.1 1.043-.071 1.3-.125 1.357s-.317.236-1.359.136a.586.586 0 0 0 -.518.218q-.4.5-.761 1.043a.589.589 0 0 0 -.047.558c.417.965.333 1.266.3 1.336s-.229.311-1.243.534a.589.589 0 0 0 -.424.368q-.23.608-.4 1.237a.591.591 0 0 0 .13.549c.688.772.7 1.091.689 1.169s-.12.362-1.013.888a.589.589 0 0 0 -.29.481l-.013.216c-.011.147-.02.295-.02.445s.009.3.02.445l.012.216a.589.589 0 0 0 .29.479c.9.528 1 .813 1.013.888s0 .4-.689 1.17a.589.589 0 0 0 -.128.548c.115.421.251.833.4 1.237a.589.589 0 0 0 .424.368c1.014.224 1.209.465 1.243.534s.119.371-.3 1.335a.589.589 0 0 0 .047.56c.239.359.495.707.762 1.044a.6.6 0 0 0 .518.218c1.044-.1 1.3.07 1.357.124s.225.315.124 1.358a.589.589 0 0 0 .218.517c.337.269.683.523 1.043.761a.589.589 0 0 0 .56.048c.966-.418 1.264-.335 1.335-.3s.311.229.534 1.243a.589.589 0 0 0 .368.424c.405.153.816.289 1.237.4a.593.593 0 0 0 .549-.13c.773-.688 1.087-.707 1.169-.689s.361.12.888 1.013a.589.589 0 0 0 .479.29l.216.013c.148.011.295.02.445.02s.3-.009.445-.02l.216-.012a.589.589 0 0 0 .479-.29c.528-.9.813-1 .888-1.014s.4 0 1.17.69a.589.589 0 0 0 .548.128c.421-.115.833-.251 1.237-.4a.589.589 0 0 0 .368-.424c.223-1.016.464-1.209.534-1.244s.37-.118 1.335.3a.593.593 0 0 0 .56-.049c.359-.237.707-.492 1.041-.761a.589.589 0 0 0 .218-.517c-.1-1.044.071-1.3.125-1.357s.312-.226 1.357-.125a.6.6 0 0 0 .518-.218c.267-.337.522-.683.761-1.043a.589.589 0 0 0 .047-.56c-.417-.964-.333-1.265-.3-1.336s.229-.31 1.243-.533a.589.589 0 0 0 .424-.368q.23-.608.4-1.237a.591.591 0 0 0 -.13-.549c-.688-.773-.7-1.091-.689-1.17s.12-.361 1.013-.888a.589.589 0 0 0 .29-.479l.013-.216c.011-.148.02-.295.02-.445s-.009-.3-.02-.445zm-22.361 5a9.345 9.345 0 0 1 0-9.1 4.694 4.694 0 0 1 0 9.1zm11.736 4.2a9.434 9.434 0 0 1 -6.986 0 3.246 3.246 0 0 1 -.041-.5 3.534 3.534 0 0 1 7.069 0 3.3 3.3 0 0 1 -.041.499zm-4.671-8.751a1.178 1.178 0 1 1 1.178 1.178 1.18 1.18 0 0 1 -1.178-1.179zm1.178-4.713a3.539 3.539 0 0 1 -3.537-3.535 3.3 3.3 0 0 1 .041-.5 9.434 9.434 0 0 1 6.986 0 3.3 3.3 0 0 1 .041.5 3.539 3.539 0 0 1 -3.53 3.534zm8.245 9.26a4.694 4.694 0 0 1 0-9.1 9.35 9.35 0 0 1 0 9.1z" fill="#303c42"/><path d="m26.907 14.25c.006-.1.012-.193.012-.291s-.006-.194-.012-.291a2.556 2.556 0 0 1 -1.31-1.555 2.546 2.546 0 0 1 .76-1.887q-.083-.273-.177-.542a2.542 2.542 0 0 1 -1.72-1.074 2.568 2.568 0 0 1 .14-2.037c-.106-.153-.218-.306-.332-.455a2.569 2.569 0 0 1 -1.978-.488 2.572 2.572 0 0 1 -.49-1.98q-.223-.172-.454-.333a2.571 2.571 0 0 1 -2.038.141 2.547 2.547 0 0 1 -1.072-1.72q-.269-.095-.543-.177a2.564 2.564 0 0 1 -1.887.76 2.556 2.556 0 0 1 -1.555-1.31 4.8 4.8 0 0 0 -.582 0 2.556 2.556 0 0 1 -1.555 1.31 2.577 2.577 0 0 1 -1.887-.76q-.274.081-.542.177a2.544 2.544 0 0 1 -1.073 1.72 2.568 2.568 0 0 1 -2.037-.141c-.153.106-.306.218-.455.332a2.565 2.565 0 0 1 -.49 1.979 2.574 2.574 0 0 1 -1.979.49c-.114.148-.226.3-.333.454a2.571 2.571 0 0 1 .141 2.038 2.542 2.542 0 0 1 -1.72 1.072q-.1.269-.177.543a2.543 2.543 0 0 1 .76 1.887 2.556 2.556 0 0 1 -1.31 1.555c-.006.1-.012.193-.012.291s.006.194.012.291a2.556 2.556 0 0 1 1.31 1.555 2.546 2.546 0 0 1 -.76 1.887q.081.274.177.542a2.542 2.542 0 0 1 1.72 1.073 2.568 2.568 0 0 1 -.141 2.037c.106.153.218.306.332.455a2.572 2.572 0 0 1 1.979.489 2.572 2.572 0 0 1 .49 1.979c.148.114.3.226.454.333a2.566 2.566 0 0 1 2.038-.141 2.545 2.545 0 0 1 1.072 1.72q.269.1.543.177a2.556 2.556 0 0 1 1.887-.76 2.556 2.556 0 0 1 1.555 1.31 4.8 4.8 0 0 0 .582 0 2.556 2.556 0 0 1 1.555-1.31 2.558 2.558 0 0 1 1.887.76q.274-.081.542-.177a2.542 2.542 0 0 1 1.073-1.72 2.563 2.563 0 0 1 2.037.141c.153-.106.306-.218.455-.332a2.56 2.56 0 0 1 .49-1.979 2.558 2.558 0 0 1 1.979-.49c.113-.148.224-.3.332-.454a2.571 2.571 0 0 1 -.141-2.038 2.542 2.542 0 0 1 1.72-1.072q.1-.269.177-.543a2.543 2.543 0 0 1 -.76-1.887 2.556 2.556 0 0 1 1.31-1.555zm-17.532-9.598a.589.589 0 0 1 .338-.406 10.617 10.617 0 0 1 8.492 0 .589.589 0 0 1 .338.406 4.713 4.713 0 1 1 -9.168 0zm6.94 9.307a2.356 2.356 0 1 1 -2.356-2.359 2.359 2.359 0 0 1 2.357 2.359zm-10.8 5.793a.589.589 0 0 1 -.6-.273 10.535 10.535 0 0 1 0-11.039.6.6 0 0 1 .6-.273 5.873 5.873 0 0 1 0 11.586zm13.023 3.514a.589.589 0 0 1 -.338.406 10.57 10.57 0 0 1 -8.491 0 .589.589 0 0 1 -.338-.406 4.669 4.669 0 0 1 -.128-1.059 4.713 4.713 0 1 1 9.3 1.059zm4.462-3.785a.589.589 0 0 1 -.6.272 5.874 5.874 0 0 1 0-11.587.589.589 0 0 1 .6.273 10.537 10.537 0 0 1 0 11.04z" fill="#495966" transform="translate(.178 .179)"/><path d="m23.912 13.9c.006-.1.012-.193.012-.291s-.006-.194-.012-.291a2.556 2.556 0 0 1 -1.31-1.555 2.546 2.546 0 0 1 .76-1.887q-.083-.273-.177-.542a2.542 2.542 0 0 1 -1.72-1.073 2.568 2.568 0 0 1 .141-2.037c-.106-.153-.218-.306-.332-.455a2.569 2.569 0 0 1 -1.979-.489 2.572 2.572 0 0 1 -.495-1.98q-.223-.172-.454-.333a5.4 5.4 0 0 1 -.536.179l.19.154a2.778 2.778 0 0 0 .441 1.979 2.126 2.126 0 0 0 1.775.49q.154.224.3.455a2.832 2.832 0 0 0 -.127 2.037 2.269 2.269 0 0 0 1.543 1.073c.057.179.11.359.159.542a2.705 2.705 0 0 0 -.683 1.887 2.511 2.511 0 0 0 1.177 1.555c.006.1.011.193.011.291s0 .194-.012.291a2.507 2.507 0 0 0 -1.175 1.555 2.693 2.693 0 0 0 .683 1.887c-.051.183-.1.364-.16.542a2.27 2.27 0 0 0 -1.543 1.073 2.835 2.835 0 0 0 .129 2.043c-.1.153-.2.305-.3.454a2.124 2.124 0 0 0 -1.777.49 2.784 2.784 0 0 0 -.441 1.975c-.061.052-.125.1-.188.153a5.4 5.4 0 0 1 .536.18c.153-.108.306-.219.455-.333a2.56 2.56 0 0 1 .49-1.979 2.558 2.558 0 0 1 1.979-.49c.113-.148.224-.3.332-.454a2.571 2.571 0 0 1 -.141-2.038 2.542 2.542 0 0 1 1.72-1.072q.1-.269.177-.543a2.543 2.543 0 0 1 -.76-1.887 2.556 2.556 0 0 1 1.312-1.556z" fill="#010101" opacity=".1" transform="translate(3.173 .529)"/><path d="m6.92 23.918a2.781 2.781 0 0 0 -.441-1.979 2.127 2.127 0 0 0 -1.779-.489q-.154-.224-.3-.455a2.832 2.832 0 0 0 .127-2.037 2.269 2.269 0 0 0 -1.543-1.073q-.085-.269-.159-.542a2.705 2.705 0 0 0 .683-1.887 2.511 2.511 0 0 0 -1.172-1.556c-.006-.1-.011-.193-.011-.291s0-.194.012-.291a2.507 2.507 0 0 0 1.175-1.555 2.692 2.692 0 0 0 -.683-1.887c.051-.183.1-.364.16-.542a2.27 2.27 0 0 0 1.543-1.074 2.835 2.835 0 0 0 -.126-2.038c.1-.153.2-.305.3-.454a2.135 2.135 0 0 0 1.778-.491 2.786 2.786 0 0 0 .437-1.977c.061-.052.125-.1.189-.153a5.587 5.587 0 0 1 -.536-.18c-.153.108-.306.219-.455.333a2.565 2.565 0 0 1 -.489 1.979 2.574 2.574 0 0 1 -1.979.49c-.114.148-.226.3-.333.454a2.571 2.571 0 0 1 .141 2.037 2.542 2.542 0 0 1 -1.72 1.072q-.1.269-.177.543a2.543 2.543 0 0 1 .76 1.887 2.556 2.556 0 0 1 -1.31 1.555c-.006.1-.012.193-.012.291s.006.194.012.291a2.556 2.556 0 0 1 1.31 1.555 2.546 2.546 0 0 1 -.76 1.887q.081.274.177.542a2.542 2.542 0 0 1 1.72 1.073 2.568 2.568 0 0 1 -.141 2.037c.106.153.218.306.332.455a2.572 2.572 0 0 1 1.979.489 2.572 2.572 0 0 1 .49 1.979c.148.114.3.226.454.333.173-.067.353-.13.536-.18-.062-.051-.126-.1-.188-.153z" fill="#fff" opacity=".2" transform="translate(.178 .529)"/><path d="m28.255 13.69-.012-.216a.589.589 0 0 0 -.29-.481c-.9-.527-1-.813-1.013-.888s0-.4.689-1.169a.589.589 0 0 0 .128-.548q-.173-.627-.4-1.237a.588.588 0 0 0 -.424-.368c-1.014-.224-1.209-.465-1.243-.535s-.119-.371.3-1.335a.59.59 0 0 0 -.049-.56q-.357-.539-.761-1.043a.6.6 0 0 0 -.518-.218c-1.044.1-1.3-.071-1.357-.124s-.225-.315-.124-1.358a.589.589 0 0 0 -.218-.517c-.337-.269-.683-.523-1.043-.761a.584.584 0 0 0 -.56-.048c-.964.417-1.266.333-1.335.3s-.311-.229-.534-1.243a.589.589 0 0 0 -.368-.424c-.405-.153-.816-.289-1.237-.4a.588.588 0 0 0 -.548.13c-.775.689-1.086.707-1.17.689s-.361-.12-.888-1.013a.589.589 0 0 0 -.48-.295l-.217-.014a6.765 6.765 0 0 0 -.891 0l-.216.014a.589.589 0 0 0 -.476.289c-.528.9-.813 1-.888 1.013s-.395 0-1.17-.689a.589.589 0 0 0 -.548-.13q-.631.175-1.237.4a.589.589 0 0 0 -.368.424c-.221 1.017-.464 1.21-.534 1.245s-.371.119-1.335-.3a.589.589 0 0 0 -.56.049c-.359.237-.707.492-1.041.761a.589.589 0 0 0 -.218.517c.1 1.043-.071 1.3-.125 1.357s-.317.236-1.359.136a.586.586 0 0 0 -.518.218q-.4.5-.761 1.043a.589.589 0 0 0 -.047.558c.417.965.333 1.266.3 1.336s-.229.311-1.243.534a.589.589 0 0 0 -.424.368q-.23.608-.4 1.237a.591.591 0 0 0 .13.549c.688.772.7 1.091.689 1.169s-.12.362-1.013.888a.589.589 0 0 0 -.29.481l-.013.216c-.011.147-.02.295-.02.445s.009.3.02.445l.012.216a.589.589 0 0 0 .29.479c.9.528 1 .813 1.013.888s0 .4-.689 1.17a.589.589 0 0 0 -.128.548c.115.421.251.833.4 1.237a.589.589 0 0 0 .424.368c1.014.224 1.209.465 1.243.534s.119.371-.3 1.335a.589.589 0 0 0 .047.56c.239.359.495.707.762 1.044a.6.6 0 0 0 .518.218c1.044-.1 1.3.07 1.357.124s.225.315.124 1.358a.589.589 0 0 0 .218.517c.337.269.683.523 1.043.761a.589.589 0 0 0 .56.048c.966-.418 1.264-.335 1.335-.3s.311.229.534 1.243a.589.589 0 0 0 .368.424c.405.153.816.289 1.237.4a.593.593 0 0 0 .549-.13c.773-.688 1.087-.707 1.169-.689s.361.12.888 1.013a.589.589 0 0 0 .479.29l.216.013c.148.011.295.02.445.02s.3-.009.445-.02l.216-.012a.589.589 0 0 0 .479-.29c.528-.9.813-1 .888-1.014s.4 0 1.17.69a.589.589 0 0 0 .548.128c.421-.115.833-.251 1.237-.4a.589.589 0 0 0 .368-.424c.223-1.016.464-1.209.534-1.244s.37-.118 1.335.3a.593.593 0 0 0 .56-.049c.359-.237.707-.492 1.041-.761a.589.589 0 0 0 .218-.517c-.1-1.044.071-1.3.125-1.357s.312-.226 1.357-.125a.6.6 0 0 0 .518-.218c.267-.337.522-.683.761-1.043a.589.589 0 0 0 .047-.56c-.417-.964-.333-1.265-.3-1.336s.229-.31 1.243-.533a.589.589 0 0 0 .424-.368q.23-.608.4-1.237a.591.591 0 0 0 -.13-.549c-.688-.773-.7-1.091-.689-1.17s.12-.361 1.013-.888a.589.589 0 0 0 .29-.479l.013-.216c.011-.148.02-.295.02-.445s-.009-.3-.02-.445zm-22.361 5a9.345 9.345 0 0 1 0-9.1 4.694 4.694 0 0 1 0 9.1zm11.736 4.2a9.434 9.434 0 0 1 -6.986 0 3.246 3.246 0 0 1 -.041-.5 3.534 3.534 0 0 1 7.069 0 3.3 3.3 0 0 1 -.041.499zm-4.671-8.751a1.178 1.178 0 1 1 1.178 1.178 1.18 1.18 0 0 1 -1.178-1.179zm1.178-4.713a3.539 3.539 0 0 1 -3.537-3.535 3.3 3.3 0 0 1 .041-.5 9.434 9.434 0 0 1 6.986 0 3.3 3.3 0 0 1 .041.5 3.539 3.539 0 0 1 -3.53 3.534zm8.245 9.26a4.694 4.694 0 0 1 0-9.1 9.35 9.35 0 0 1 0 9.1z" fill="url(#a)"/></g><g filter="url(#b)"><text fill="#242424" font-family="Goldman-Bold, Goldman" font-size="50" font-weight="700" transform="translate(24.19 117)"><tspan x="0" y="0">D</tspan></text></g><g filter="url(#c)"><text fill="#242424" font-family="Goldman-Bold, Goldman" font-size="50" font-weight="700" transform="translate(73.61 117)"><tspan x="0" y="0">i</tspan></text></g><g filter="url(#d)"><text fill="#242424" font-family="Goldman-Bold, Goldman" font-size="50" font-weight="700" transform="matrix(-1 0 0 1 138.81 117)"><tspan x="0" y="0">D</tspan></text></g><path d="m249.514 18.838a1.015 1.015 0 0 1 -1.014-1.016v-16.806a1.014 1.014 0 1 1 2.027 0v16.806a1.015 1.015 0 0 1 -1.014 1.016z" fill="#816b6b" transform="translate(-168.013 11)"/><path d="m212.351 131.6h9.46a1.353 1.353 0 0 1 1.351 1.354v4.469h-12.162v-4.469a1.353 1.353 0 0 1 1.351-1.354z" fill="#685e68" transform="translate(-135.581 -102.778)"/><path d="m221.811 131.6h-1.18v.6a2.3 2.3 0 0 1 -2.3 2.307h-7.331v2.912h12.162v-4.469a1.353 1.353 0 0 0 -1.351-1.35z" fill="#554e56" transform="translate(-135.581 -102.778)"/><path d="m129.832 193.31a74.6 74.6 0 0 1 -7.6 1.352 43.3 43.3 0 0 0 .82-6.45 72.977 72.977 0 0 0 8.17-1.545c0-.172-.007-.345-.012-.517s-.015-.343-.024-.513c-.005-.081-.009-.163-.015-.244-.008-.1-.015-.2-.024-.306-.012-.157-.027-.313-.043-.469a.932.932 0 0 0 -.17.027 69.762 69.762 0 0 1 -7.824 1.51 43.279 43.279 0 0 0 -.426-6.284c2.4-.314 4.685-.71 6.812-1.184a.933.933 0 0 0 .168-.053c-.062-.16-.126-.32-.192-.478s-.132-.317-.2-.474q-.207-.471-.435-.93c-2.005.439-4.184.811-6.482 1.109a44.024 44.024 0 0 0 -1.478-5.688q1.887-.215 3.761-.493a1 1 0 0 0 .55-.271c-.065-.072-.13-.142-.2-.213l-.2-.209-.2-.207q-.2-.205-.409-.406c-.138-.134-.278-.265-.419-.4-.072-.065-.142-.13-.214-.194q-1.684.238-3.378.424c-.559-1.449-1.151-2.756-1.732-3.911-.258-.131-.52-.256-.784-.375a.089.089 0 0 1 -.026-.012q-.375-.169-.757-.325c-.115-.047-.231-.091-.347-.137l-.107-.043c-.035-.015-.072-.028-.107-.042a1.02 1.02 0 0 0 -.078 1.077 41.484 41.484 0 0 1 1.843 3.979q-2.552.232-5.112.348-.624-3.358-1.514-6.664c-.173-.024-.345-.047-.519-.069l-.261-.03c-.159-.018-.32-.034-.481-.049-.277-.024-.554-.045-.834-.06a1.043 1.043 0 0 0 .032.345q.9 3.271 1.526 6.6-1.4.039-2.8.041-1.277 0-2.557-.026.693-3.3 1.654-6.534a1 1 0 0 0 .03-.442c-.169.007-.339.015-.508.024l-.27.018-.241.018-.182.015-.2.019-.153.015c-.17.018-.342.038-.511.058q-.981 3.342-1.682 6.747-2.68-.106-5.354-.341a41.452 41.452 0 0 1 1.864-4.008 1.019 1.019 0 0 0 -.08-1.078c-.223.084-.445.173-.664.264-.109.046-.218.092-.326.139s-.218.095-.326.144a.09.09 0 0 1 -.026.012c-.263.119-.526.244-.784.375-.587 1.166-1.184 2.486-1.747 3.952q-1.713-.183-3.415-.418c-.213.194-.424.39-.631.592l-.205.2c-.135.135-.27.274-.4.412l-.008.008q-.191.2-.377.406l-.008.01a1.01 1.01 0 0 0 .551.268q1.889.274 3.793.486a44 44 0 0 0 -1.465 5.646c-2.3-.3-4.477-.67-6.482-1.109q-.229.459-.435.93c-.069.157-.136.316-.2.474s-.13.318-.192.478a.93.93 0 0 0 .168.053c2.127.474 4.411.869 6.812 1.184a43.278 43.278 0 0 0 -.426 6.284 69.767 69.767 0 0 1 -7.824-1.51.93.93 0 0 0 -.17-.027c-.016.156-.031.311-.043.469-.009.1-.016.2-.024.306-.005.081-.009.163-.015.244-.009.171-.018.343-.024.513s-.009.345-.012.517a72.978 72.978 0 0 0 8.17 1.545 43.3 43.3 0 0 0 .82 6.45 74.6 74.6 0 0 1 -7.6-1.352 1.014 1.014 0 0 0 -.53.018l.077.268c.031.106.064.21.095.316.05.161.1.321.155.481s.12.349.182.524c.031.087.064.173.1.259s.065.173.1.259a79.621 79.621 0 0 0 7.907 1.334 43.651 43.651 0 0 0 1.808 5.509q-2.627-.339-5.227-.819a1.011 1.011 0 0 0 -.842.226c.218.265.439.525.668.781l.23.255q.233.252.47.5c.08.083.159.164.241.244l.245.24q2.566.437 5.157.739a44.123 44.123 0 0 0 2.143 4.032c.1.042.2.083.3.12l.255.1.172.066q.33.124.666.236c.189.064.38.125.57.183l.286.087a1.016 1.016 0 0 0 -.028-1.04c-.65-1.028-1.331-2.21-2-3.537q1.928.177 3.861.276.511 2.5 1.17 4.965l.3.045c.132.018.265.035.4.05l.332.038.262.026.261.023q.264.02.527.037a1.047 1.047 0 0 0 -.03-.375q-.641-2.346-1.136-4.722 1.267.037 2.532.045h.387q.965 0 1.931-.02-.527 2.389-1.189 4.748a1 1 0 0 0 -.035.344h.024l.218-.011c.123-.007.247-.015.37-.024l.18-.014c.262-.02.524-.045.784-.076h.015c.169-.02.336-.041.5-.064q.683-2.466 1.219-4.965 2.053-.085 4.1-.257c-.658 1.3-1.327 2.462-1.966 3.472a1.016 1.016 0 0 0 -.028 1.04l.287-.087c.191-.058.381-.119.57-.183.236-.079.472-.163.7-.249l.154-.06c.157-.06.312-.12.468-.183l.072-.028s0 0 0 0a44.342 44.342 0 0 0 2.1-3.945q2.532-.274 5.045-.68c.082-.079.165-.157.246-.237l.011-.009.232-.232c.081-.081.161-.162.239-.245l.236-.248c.155-.167.309-.336.459-.506.076-.085.151-.172.226-.259s.147-.173.22-.261a1 1 0 0 0 -.839-.234q-2.554.449-5.135.76a43.558 43.558 0 0 0 1.847-5.6 79.611 79.611 0 0 0 7.907-1.334c.034-.085.066-.172.1-.259s.065-.172.1-.259q.093-.262.182-.524c.053-.16.105-.32.155-.481.031-.1.064-.21.095-.314l.077-.268a1 1 0 0 0 -.516-.034zm-34.27-13.195c2.095.229 4.27.4 6.5.509q-.274 3.161-.314 6.341c-2.272-.12-4.482-.306-6.6-.553a41.231 41.231 0 0 1 .413-6.297zm.563 14.8a41.515 41.515 0 0 1 -.9-6.446c2.1.238 4.287.418 6.528.535q.041 3.193.318 6.373c-2.033-.107-4.023-.263-5.946-.466zm2.478 7.634a41.805 41.805 0 0 1 -1.958-5.549c1.827.181 3.711.32 5.63.412q.308 2.755.8 5.488-2.24-.124-4.475-.355zm3.662-23.948c-2.178-.107-4.312-.274-6.366-.5a41.78 41.78 0 0 1 1.513-5.676q2.842.264 5.7.386-.523 2.876-.847 5.789zm2.892-5.719q1.386.035 2.773.035h.188q1.575 0 3.154-.049.478 2.891.754 5.813c-1.293.042-2.6.064-3.909.064q-1.922 0-3.822-.061.328-2.915.862-5.8zm5.673 30.15q-1.368.035-2.735.03-1.472-.006-2.946-.06-.5-2.736-.824-5.5c1.254.039 2.52.058 3.792.058 1.208 0 2.412-.018 3.6-.053q-.355 2.777-.891 5.526zm1.127-7.565c-1.269.041-2.551.061-3.841.061-1.345 0-2.681-.022-4-.066q-.29-3.175-.331-6.371c1.428.05 2.876.077 4.334.077q2.149 0 4.257-.075-.092 3.192-.419 6.37zm.451-8.406c-1.414.05-2.847.076-4.292.076q-2.191 0-4.339-.079v-.038q.036-3.163.316-6.31 1.986.063 4.023.065 2.064 0 4.077-.066.223 3.141.215 6.3zm6.4-14.667a41.673 41.673 0 0 1 1.526 5.71c-2.027.221-4.131.386-6.28.493q-.274-2.915-.742-5.809 2.751-.13 5.5-.394zm-1.211 30.23q-2.341.226-4.688.333.521-2.751.866-5.53c1.981-.092 3.927-.233 5.812-.42a41.942 41.942 0 0 1 -1.987 5.614zm2.511-7.71c-1.973.209-4.016.367-6.107.47q.318-3.177.4-6.377c2.269-.118 4.48-.3 6.6-.539a41.516 41.516 0 0 1 -.892 6.443zm.973-8.5c-2.132.248-4.358.435-6.646.555q.01-3.179-.215-6.346c2.215-.11 4.373-.279 6.451-.507a41.236 41.236 0 0 1 .411 6.297z" fill="#f1f6f9" transform="translate(-26.617 -130.686)"/><path d="m146.582 181.72c-.587 1.166-1.184 2.486-1.747 3.952q-1.713-.183-3.415-.418a23.064 23.064 0 0 1 5.162-3.534z" fill="#01c0fa" transform="translate(-75.404 -146.11)"/><path d="m144.6 462.671a23.125 23.125 0 0 1 -7.3-4.771q2.566.437 5.157.739a44.124 44.124 0 0 0 2.143 4.032z" fill="#fd544d" transform="translate(-71.841 -384.887)"/><path d="m195.037 469.747a1.016 1.016 0 0 0 -.028-1.04c-.65-1.028-1.331-2.21-2-3.537q1.928.177 3.861.276.511 2.5 1.17 4.965a22.754 22.754 0 0 1 -3-.664z" fill="#fe6c55" transform="translate(-120.022 -391.173)"/><path d="m240.7 472.612a1 1 0 0 0 -.035.344q-.529.024-1.063.024-.971 0-1.923-.08.264.02.527.037a1.047 1.047 0 0 0 -.03-.375q-.641-2.346-1.136-4.722 1.267.037 2.532.045h.386q.965 0 1.931-.02-.526 2.388-1.189 4.747z" fill="#fe7c66" transform="translate(-158.102 -393.481)"/><path d="m282.726 469.122a1.016 1.016 0 0 0 -.028 1.04 22.729 22.729 0 0 1 -3.327.71q.683-2.466 1.219-4.965 2.053-.085 4.1-.257c-.656 1.301-1.325 2.462-1.964 3.472z" fill="#fe8f83" transform="translate(-194.712 -391.588)"/><path d="m327.837 458.97a23.081 23.081 0 0 1 -7.147 4.625 44.341 44.341 0 0 0 2.1-3.945q2.534-.274 5.047-.68z" fill="#ffa799" transform="translate(-230.448 -385.812)"/><path d="m337.491 185.207q-1.684.238-3.378.424c-.559-1.449-1.151-2.756-1.732-3.911a23.033 23.033 0 0 1 5.11 3.487z" fill="#2ed1e2" transform="translate(-240.558 -146.11)"/><path d="m189.246 165.11q-.981 3.342-1.682 6.747-2.68-.106-5.354-.341a41.461 41.461 0 0 1 1.857-4.013 1.019 1.019 0 0 0 -.08-1.078 22.921 22.921 0 0 1 5.259-1.315z" fill="#07b2cd" transform="translate(-110.682 -131.749)"/><path d="m242.424 170.729q-1.4.039-2.8.041-1.277 0-2.557-.026.693-3.3 1.654-6.534a1 1 0 0 0 .03-.442c.291-.012.581-.018.874-.018.415 0 .828.011 1.238.033a1.042 1.042 0 0 0 .032.345q.899 3.272 1.529 6.601z" fill="#2ea741" transform="translate(-158.128 -130.574)"/><path d="m287.286 171.836q-2.552.232-5.112.348-.624-3.358-1.514-6.664a22.774 22.774 0 0 1 4.861 1.261 1.02 1.02 0 0 0 -.078 1.077 41.5 41.5 0 0 1 1.843 3.978z" fill="#02c7dd" transform="translate(-195.827 -132.104)"/><path d="m352.964 396.87a23.014 23.014 0 0 1 -3.78 6.413 1 1 0 0 0 -.839-.234q-2.554.449-5.135.76a43.557 43.557 0 0 0 1.847-5.6 79.6 79.6 0 0 0 7.907-1.339z" fill="#f99675" transform="translate(-249.925 -332.123)"/><path d="m369.456 329.186a23.16 23.16 0 0 1 -.868 6.3 1 1 0 0 0 -.53-.019 74.579 74.579 0 0 1 -7.6 1.352 43.306 43.306 0 0 0 .82-6.45 72.968 72.968 0 0 0 8.17-1.545c0-.172-.007-.345-.012-.517.015.293.02.585.02.879z" fill="#fec165" transform="translate(-264.844 -272.847)"/><path d="m372.22 278.8a.929.929 0 0 0 -.17.027 69.764 69.764 0 0 1 -7.824 1.51 43.264 43.264 0 0 0 -.426-6.284c2.4-.314 4.685-.71 6.812-1.184a.931.931 0 0 0 .168-.053 22.777 22.777 0 0 1 .786 2.408 23.127 23.127 0 0 1 .654 3.576z" fill="#fef48b" transform="translate(-267.733 -224.872)"/><path d="m358.371 224.813c-2.005.439-4.184.811-6.482 1.109a44.029 44.029 0 0 0 -1.478-5.688q1.887-.215 3.761-.493a1 1 0 0 0 .55-.271 23.142 23.142 0 0 1 3.649 5.343z" fill="#57be92" transform="translate(-256.152 -178.748)"/><path d="m110.627 220.6a44 44 0 0 0 -1.465 5.646c-2.3-.3-4.477-.67-6.482-1.109a23.12 23.12 0 0 1 3.6-5.291 1.011 1.011 0 0 0 .551.268q1.892.278 3.796.486z" fill="#46cc8d" transform="translate(-41.899 -179.076)"/><path d="m94.31 274.056a43.279 43.279 0 0 0 -.426 6.284 69.753 69.753 0 0 1 -7.824-1.51.934.934 0 0 0 -.17-.027 22.97 22.97 0 0 1 1.441-5.983.927.927 0 0 0 .168.053c2.126.474 4.41.869 6.811 1.183z" fill="#fee903" transform="translate(-27.378 -224.872)"/><path d="m93.966 336.823a74.579 74.579 0 0 1 -7.6-1.352 1.014 1.014 0 0 0 -.53.018 23.2 23.2 0 0 1 -.868-6.3c0-.294.005-.585.018-.876-.005.172-.009.345-.012.517a72.964 72.964 0 0 0 8.17 1.545 43.3 43.3 0 0 0 .822 6.448z" fill="#f68157" transform="translate(-26.582 -272.847)"/><path d="m106.325 403.713q-2.627-.339-5.227-.819a1.01 1.01 0 0 0 -.842.226 23.107 23.107 0 0 1 -3.646-6.25 79.6 79.6 0 0 0 7.907 1.334 43.645 43.645 0 0 0 1.808 5.509z" fill="#fd5426" transform="translate(-36.649 -332.123)"/><path d="m301.472 232.43c-2.027.221-4.131.386-6.28.493q-.274-2.915-.742-5.809 2.751-.13 5.5-.394a41.668 41.668 0 0 1 1.522 5.71z" fill="#22b37f" transform="translate(-207.754 -185.016)"/><path d="m177.536 414.369q-2.236-.128-4.468-.359a41.8 41.8 0 0 1 -1.958-5.54c1.827.181 3.711.32 5.63.412q.308 2.754.796 5.487z" fill="#fd6930" transform="translate(-101.082 -342.152)"/><path d="m167.456 352.318c-2.034-.1-4.024-.259-5.947-.462a41.517 41.517 0 0 1 -.9-6.446c2.1.238 4.287.418 6.528.535q.042 3.193.319 6.373z" fill="#ffa799" transform="translate(-92 -287.632)"/><path d="m166.956 284.269q-.274 3.161-.314 6.341c-2.272-.121-4.482-.306-6.6-.552a41.233 41.233 0 0 1 .409-6.3c2.095.231 4.271.401 6.505.511z" fill="#fef6ad" transform="translate(-91.507 -234.331)"/><path d="m172.8 227.356q-.521 2.876-.845 5.787c-2.178-.107-4.312-.274-6.366-.5a41.778 41.778 0 0 1 1.514-5.676q2.843.267 5.697.389z" fill="#6ed5a1" transform="translate(-96.308 -185.232)"/><path d="m235.451 236.033c-1.293.042-2.6.064-3.909.064q-1.922 0-3.822-.061.328-2.915.862-5.8 1.386.035 2.773.035h.188q1.575 0 3.154-.049.478 2.889.754 5.811z" fill="#7acaa6" transform="translate(-150.042 -188.042)"/><path d="m232.521 294.416v.056c-1.414.05-2.847.076-4.292.076q-2.191 0-4.339-.079v-.038q.037-3.163.316-6.31 1.986.063 4.023.065 2.064 0 4.077-.066.223 3.141.215 6.296z" fill="#fdb441" transform="translate(-146.729 -238.1)"/><path d="m235.336 412.115q-.355 2.777-.891 5.526-1.368.035-2.735.03-1.472-.006-2.946-.06-.5-2.736-.824-5.5c1.254.039 2.52.058 3.792.058 1.208-.001 2.412-.018 3.604-.054z" fill="#fe8f83" transform="translate(-150.232 -345.298)"/><path d="m232.52 350.013q-.089 3.2-.416 6.373c-1.269.041-2.551.061-3.841.061-1.345 0-2.681-.022-4-.066q-.29-3.175-.331-6.371c1.428.05 2.876.077 4.334.077q2.146 0 4.254-.074z" fill="#f99675" transform="translate(-146.764 -291.609)"/><path d="m298.148 408.47a41.943 41.943 0 0 1 -1.991 5.616q-2.341.226-4.688.333.521-2.75.866-5.53c1.982-.089 3.928-.232 5.813-.419z" fill="#fd4755" transform="translate(-205.177 -342.151)"/><path d="m306.555 345.41a41.512 41.512 0 0 1 -.9 6.446c-1.973.209-4.016.367-6.107.47q.318-3.177.4-6.377c2.272-.118 4.483-.298 6.607-.539z" fill="#fea95c" transform="translate(-212.165 -287.632)"/><path d="m92.965 103.085c-2.132.248-4.358.435-6.646.555q.01-3.179-.215-6.346c2.215-.11 4.373-.279 6.451-.507a41.232 41.232 0 0 1 .41 6.298zm14.535-30.8a7.752 7.752 0 0 0 -4.77 4.781 7.745 7.745 0 0 0 -1.33-2.386c-.158-.194-.327-.381-.5-.558a7.745 7.745 0 0 0 -2.932-1.842 7.745 7.745 0 0 0 4.77-4.781 7.776 7.776 0 0 0 1.478 2.553c.115.133.235.261.359.386a7.745 7.745 0 0 0 2.925 1.843zm-45.459 8.121a7.753 7.753 0 0 0 -4.77 4.781 7.753 7.753 0 0 0 -4.77-4.781 7.753 7.753 0 0 0 4.77-4.781 7.753 7.753 0 0 0 4.77 4.781z" fill="#fed402" transform="translate(1.5 -47.359)"/><path d="m129.494 88.578a7.752 7.752 0 0 0 -4.77 4.781 7.745 7.745 0 0 0 -1.334-2.381 7.875 7.875 0 0 0 2.573-3.686 7.526 7.526 0 0 0 .239-.941c.115.133.235.261.359.386a7.745 7.745 0 0 0 2.932 1.842zm-45.459 8.122a7.752 7.752 0 0 0 -4.77 4.781 7.745 7.745 0 0 0 -1.334-2.381 7.875 7.875 0 0 0 2.569-3.683 7.522 7.522 0 0 0 .239-.941c.115.133.235.261.359.386a7.745 7.745 0 0 0 2.937 1.838z" fill="#fac600" transform="translate(-20.494 -63.656)"/></svg>