<svg xmlns="http://www.w3.org/2000/svg" xmlns:xlink="http://www.w3.org/1999/xlink" width="163" height="156" viewBox="0 0 163 156"><defs><style>.a,.ao{fill:#242424;}.b{fill:#303c42;}.b,.c,.d,.e,.f{stroke:#efefef;stroke-width:0.2px;}.c{fill:#495966;}.d{fill:#010101;opacity:0.1;}.e{fill:#fff;opacity:0.2;}.f{fill:url(#a);}.g{fill:#efefef;font-size:50px;font-family:Goldman-Bold, Goldman;font-weight:700;}.h{fill:#816b6b;}.i{fill:#685e68;}.j{fill:#554e56;}.k{fill:#f1f6f9;}.l{fill:#01c0fa;}.m{fill:#fd544d;}.n{fill:#fe6c55;}.o{fill:#fe7c66;}.p{fill:#fe8f83;}.q{fill:#ffa799;}.r{fill:#2ed1e2;}.s{fill:#07b2cd;}.t{fill:#2ea741;}.u{fill:#02c7dd;}.v{fill:#f99675;}.w{fill:#fec165;}.x{fill:#fef48b;}.y{fill:#57be92;}.z{fill:#46cc8d;}.aa{fill:#fee903;}.ab{fill:#f68157;}.ac{fill:#fd5426;}.ad{fill:#22b37f;}.ae{fill:#fd6930;}.af{fill:#fef6ad;}.ag{fill:#6ed5a1;}.ah{fill:#7acaa6;}.ai{fill:#fdb441;}.aj{fill:#fd4755;}.ak{fill:#fea95c;}.al{fill:#fed402;}.am{fill:#fac600;}.an,.ao{stroke:none;}.ap{filter:url(#f);}.aq{filter:url(#d);}.ar{filter:url(#b);}</style><linearGradient id="a" x1="0.048" y1="0.289" x2="0.952" y2="0.71" gradientUnits="objectBoundingBox"><stop offset="0" stop-color="#fff" stop-opacity="0.2"/><stop offset="1" stop-color="#fff" stop-opacity="0"/></linearGradient><filter id="b" x="18" y="66" width="61" height="78" filterUnits="userSpaceOnUse"><feOffset dy="3" input="SourceAlpha"/><feGaussianBlur stdDeviation="3" result="c"/><feFlood flood-opacity="0.161"/><feComposite operator="in" in2="c"/><feComposite in="SourceGraphic"/></filter><filter id="d" x="65" y="66" width="34" height="78" filterUnits="userSpaceOnUse"><feOffset dy="3" input="SourceAlpha"/><feGaussianBlur stdDeviation="3" result="e"/><feFlood flood-opacity="0.161"/><feComposite operator="in" in2="e"/><feComposite in="SourceGraphic"/></filter><filter id="f" x="84" y="66" width="61" height="78" filterUnits="userSpaceOnUse"><feOffset dy="3" input="SourceAlpha"/><feGaussianBlur stdDeviation="3" result="g"/><feFlood flood-opacity="0.161"/><feComposite operator="in" in2="g"/><feComposite in="SourceGraphic"/></filter></defs><g class="a"><path class="an" d="M 128.2299957275391 155 L 34.76999282836914 155 C 33.02834701538086 155 31.49863815307617 153.8864440917969 30.96349143981934 152.2290496826172 L 2.062159061431885 62.71887969970703 C 1.530763149261475 61.07308578491211 2.111742258071899 59.28152465820312 3.507846593856812 58.26079559326172 L 79.13918304443359 2.964815378189087 C 79.82905578613281 2.460440397262573 80.64540863037109 2.193836212158203 81.49999237060547 2.193836212158203 C 82.35457611083984 2.193836212158203 83.17092895507812 2.460440397262573 83.86080169677734 2.964815378189087 L 159.4921417236328 58.26079559326172 C 160.8882598876953 59.28152465820312 161.46923828125 61.07306671142578 160.9378204345703 62.71885681152344 L 132.0364990234375 152.2290496826172 C 131.5013732910156 153.8864440917969 129.9716339111328 155 128.2299957275391 155 Z"/><path class="ao" d="M 81.49999237060547 3.193817138671875 C 80.85903930664062 3.193817138671875 80.24677276611328 3.393768310546875 79.72938537597656 3.772048950195312 L 4.098037719726562 59.06805419921875 C 3.050949096679688 59.83359527587891 2.615234375 61.17727661132812 3.013778686523438 62.41162109375 L 31.91511535644531 151.9217987060547 C 32.31646728515625 153.1648406982422 33.46376037597656 153.9999847412109 34.76998901367188 153.9999847412109 L 128.2299957275391 153.9999847412109 C 129.5362243652344 153.9999847412109 130.6834869384766 153.1648406982422 131.0848693847656 151.9217987060547 L 159.9862060546875 62.41157531738281 C 160.3847503662109 61.17727661132812 159.9490203857422 59.83359527587891 158.9019317626953 59.06803131103516 L 83.27059936523438 3.772048950195312 C 82.75318908691406 3.393768310546875 82.14093017578125 3.193817138671875 81.49999237060547 3.193817138671875 M 81.49998474121094 1.193817138671875 C 82.53610992431641 1.193817138671875 83.57224273681641 1.515060424804688 84.45101165771484 2.157562255859375 L 160.0823364257812 57.45353698730469 C 161.8237762451172 58.72675323486328 162.5522918701172 60.97325134277344 161.8894500732422 63.026123046875 L 132.9880981445312 152.5363159179688 C 132.3214874267578 154.6009063720703 130.3995056152344 155.9999847412109 128.2299957275391 155.9999847412109 L 34.76998901367188 155.9999847412109 C 32.6004638671875 155.9999847412109 30.678466796875 154.6009063720703 30.01185607910156 152.5363159179688 L 1.11053466796875 63.02614593505859 C 0.44769287109375 60.97327423095703 1.17620849609375 58.72675323486328 2.917617797851562 57.45355224609375 L 78.54897308349609 2.157562255859375 C 79.427734375 1.515060424804688 80.46385955810547 1.193817138671875 81.49998474121094 1.193817138671875 Z"/></g><g transform="translate(68.445 122.184)"><path class="b" d="M26.868,13.018l-.011-.205a.56.56,0,0,0-.276-.457c-.851-.5-.953-.773-.963-.845s0-.378.655-1.111a.56.56,0,0,0,.122-.521q-.164-.6-.383-1.176a.559.559,0,0,0-.4-.35c-.965-.213-1.149-.443-1.182-.509s-.113-.353.285-1.269a.561.561,0,0,0-.047-.532q-.339-.513-.724-.991a.568.568,0,0,0-.493-.207c-.993.1-1.238-.067-1.291-.118s-.214-.3-.118-1.292a.56.56,0,0,0-.207-.492c-.32-.255-.65-.5-.991-.724a.556.556,0,0,0-.532-.046c-.916.4-1.2.317-1.269.283s-.3-.217-.507-1.182a.56.56,0,0,0-.35-.4C17.8.726,17.406.6,17.006.487a.559.559,0,0,0-.521.123c-.737.655-1.033.672-1.112.655S15.03,1.152,14.528.3a.56.56,0,0,0-.456-.276L13.867.013a6.433,6.433,0,0,0-.847,0l-.205.013A.56.56,0,0,0,12.359.3c-.5.851-.773.953-.845.963s-.375,0-1.112-.655A.56.56,0,0,0,9.881.486Q9.281.653,8.7.871a.56.56,0,0,0-.35.4c-.211.967-.441,1.151-.507,1.184s-.353.113-1.269-.285a.56.56,0,0,0-.532.047c-.342.225-.672.468-.99.724a.56.56,0,0,0-.207.492c.1.991-.067,1.239-.119,1.291s-.3.215-1.291.119a.557.557,0,0,0-.493.207q-.381.479-.724.991a.56.56,0,0,0-.045.531c.4.918.317,1.2.283,1.27s-.217.3-1.182.507a.56.56,0,0,0-.4.35Q.658,9.281.492,9.879a.562.562,0,0,0,.123.522c.654.734.668,1.037.655,1.111s-.114.344-.963.845a.56.56,0,0,0-.276.457l-.012.205c-.01.14-.019.28-.019.423s.009.282.019.423l.011.205a.56.56,0,0,0,.276.456c.851.5.953.773.963.845s0,.378-.655,1.112a.56.56,0,0,0-.122.521c.11.4.239.792.383,1.176a.56.56,0,0,0,.4.35c.965.213,1.149.443,1.182.507s.113.353-.283,1.269a.56.56,0,0,0,.045.532c.227.342.471.672.725.993a.568.568,0,0,0,.493.207c.993-.1,1.238.066,1.291.118s.214.3.118,1.292a.56.56,0,0,0,.207.492c.32.255.65.5.991.724a.56.56,0,0,0,.532.046c.919-.4,1.2-.318,1.269-.283s.3.217.507,1.182a.56.56,0,0,0,.35.4c.385.146.776.274,1.176.384a.564.564,0,0,0,.522-.123c.735-.654,1.034-.672,1.111-.655s.343.114.845.963a.56.56,0,0,0,.456.276l.205.012c.141.01.28.019.423.019s.282-.009.423-.019l.205-.011a.56.56,0,0,0,.456-.276c.5-.851.773-.953.845-.965s.376,0,1.112.656a.56.56,0,0,0,.521.122c.4-.11.792-.239,1.176-.383a.56.56,0,0,0,.35-.4c.212-.966.441-1.149.507-1.183s.352-.112,1.269.285a.564.564,0,0,0,.532-.047c.342-.225.672-.468.99-.724a.56.56,0,0,0,.207-.492c-.1-.993.067-1.239.119-1.291s.3-.215,1.291-.119a.571.571,0,0,0,.493-.207c.254-.32.5-.65.724-.991a.56.56,0,0,0,.045-.532c-.4-.916-.317-1.2-.283-1.27s.217-.295,1.182-.506a.56.56,0,0,0,.4-.35q.218-.578.384-1.176a.562.562,0,0,0-.123-.522c-.654-.735-.668-1.037-.655-1.112s.114-.343.963-.845a.56.56,0,0,0,.276-.456l.012-.205c.01-.141.019-.28.019-.423s-.009-.283-.019-.423ZM5.6,17.768a8.887,8.887,0,0,1,0-8.649,4.463,4.463,0,0,1,0,8.649Zm11.16,4a8.971,8.971,0,0,1-6.643,0,3.086,3.086,0,0,1-.039-.479,3.361,3.361,0,0,1,6.722,0A3.141,3.141,0,0,1,16.765,21.765Zm-4.442-8.322a1.12,1.12,0,1,1,1.12,1.12A1.122,1.122,0,0,1,12.323,13.444Zm1.12-4.481A3.365,3.365,0,0,1,10.083,5.6a3.141,3.141,0,0,1,.039-.479,8.971,8.971,0,0,1,6.643,0A3.141,3.141,0,0,1,16.8,5.6,3.365,3.365,0,0,1,13.444,8.962Zm7.84,8.806a4.463,4.463,0,0,1,0-8.649,8.891,8.891,0,0,1,0,8.649Z" transform="translate(0 0)"/><path class="c" d="M25.635,13.6c.006-.092.011-.184.011-.277s-.006-.185-.011-.277a2.431,2.431,0,0,1-1.246-1.479,2.421,2.421,0,0,1,.723-1.795q-.078-.259-.168-.515a2.417,2.417,0,0,1-1.636-1.021A2.442,2.442,0,0,1,23.443,6.3c-.1-.146-.207-.291-.316-.432A2.443,2.443,0,0,1,21.245,5.4a2.445,2.445,0,0,1-.466-1.882q-.212-.163-.431-.317a2.445,2.445,0,0,1-1.938.134A2.422,2.422,0,0,1,17.39,1.7q-.256-.09-.516-.168a2.438,2.438,0,0,1-1.795.723A2.431,2.431,0,0,1,13.6,1.011a4.561,4.561,0,0,0-.553,0,2.431,2.431,0,0,1-1.479,1.246,2.45,2.45,0,0,1-1.795-.723q-.26.077-.515.168A2.42,2.42,0,0,1,8.237,3.338,2.442,2.442,0,0,1,6.3,3.2c-.146.1-.291.207-.432.316A2.439,2.439,0,0,1,5.4,5.4a2.448,2.448,0,0,1-1.882.466c-.109.141-.215.286-.317.431a2.445,2.445,0,0,1,.134,1.938A2.417,2.417,0,0,1,1.7,9.256q-.091.255-.168.516a2.418,2.418,0,0,1,.723,1.795,2.431,2.431,0,0,1-1.246,1.479c-.006.092-.011.184-.011.277s.006.185.011.277a2.431,2.431,0,0,1,1.246,1.479,2.421,2.421,0,0,1-.723,1.795q.077.26.168.515a2.417,2.417,0,0,1,1.636,1.021A2.442,2.442,0,0,1,3.2,20.346c.1.146.207.291.316.432a2.446,2.446,0,0,1,1.882.465,2.445,2.445,0,0,1,.466,1.882c.141.109.286.215.431.317a2.44,2.44,0,0,1,1.938-.134,2.42,2.42,0,0,1,1.019,1.636q.255.091.516.168a2.43,2.43,0,0,1,1.795-.723,2.431,2.431,0,0,1,1.479,1.246,4.561,4.561,0,0,0,.553,0,2.431,2.431,0,0,1,1.479-1.246,2.433,2.433,0,0,1,1.795.723q.26-.077.515-.168a2.417,2.417,0,0,1,1.021-1.636,2.438,2.438,0,0,1,1.937.134c.146-.1.291-.207.432-.316a2.434,2.434,0,0,1,.466-1.882,2.433,2.433,0,0,1,1.882-.466c.108-.141.213-.286.316-.431a2.445,2.445,0,0,1-.134-1.938,2.417,2.417,0,0,1,1.636-1.019q.091-.255.168-.516a2.418,2.418,0,0,1-.723-1.795A2.431,2.431,0,0,1,25.635,13.6ZM8.964,4.473a.56.56,0,0,1,.322-.387,10.1,10.1,0,0,1,8.075,0,.56.56,0,0,1,.322.387,4.481,4.481,0,1,1-8.718,0Zm6.6,8.85a2.241,2.241,0,1,1-2.241-2.241A2.243,2.243,0,0,1,15.564,13.323ZM5.3,18.832a.56.56,0,0,1-.571-.26,10.018,10.018,0,0,1,0-10.5.566.566,0,0,1,.571-.26,5.585,5.585,0,0,1,0,11.017Zm12.384,3.342a.56.56,0,0,1-.322.387,10.051,10.051,0,0,1-8.074,0,.56.56,0,0,1-.322-.387,4.44,4.44,0,0,1-.122-1.007,4.481,4.481,0,1,1,8.84,1.007Zm4.238-3.6a.56.56,0,0,1-.571.259,5.585,5.585,0,0,1,0-11.018.56.56,0,0,1,.571.26,10.02,10.02,0,0,1,0,10.5Z" transform="translate(0.12 0.121)"/><path class="d" d="M23.613,13.363c.006-.092.011-.184.011-.277s-.006-.185-.011-.277a2.431,2.431,0,0,1-1.246-1.479,2.421,2.421,0,0,1,.723-1.795q-.078-.259-.168-.515A2.417,2.417,0,0,1,21.286,8a2.442,2.442,0,0,1,.134-1.937c-.1-.146-.207-.291-.316-.432a2.443,2.443,0,0,1-1.882-.465,2.445,2.445,0,0,1-.466-1.882q-.212-.163-.431-.317a5.131,5.131,0,0,1-.51.17l.179.146a2.642,2.642,0,0,0,.419,1.882,2.022,2.022,0,0,0,1.688.466q.146.213.285.432A2.693,2.693,0,0,0,20.265,8a2.158,2.158,0,0,0,1.468,1.021c.054.17.1.342.151.515a2.572,2.572,0,0,0-.65,1.795,2.387,2.387,0,0,0,1.119,1.479c.006.092.01.184.01.277s0,.185-.011.277a2.384,2.384,0,0,0-1.117,1.479,2.56,2.56,0,0,0,.65,1.795c-.048.174-.1.346-.152.515a2.159,2.159,0,0,0-1.468,1.021,2.7,2.7,0,0,0,.12,1.938c-.092.146-.187.29-.283.431a2.02,2.02,0,0,0-1.689.466,2.648,2.648,0,0,0-.419,1.882c-.058.049-.119.1-.179.146a5.135,5.135,0,0,1,.51.171c.146-.1.291-.208.432-.317a2.434,2.434,0,0,1,.466-1.882,2.433,2.433,0,0,1,1.882-.466c.108-.141.213-.286.316-.431a2.445,2.445,0,0,1-.134-1.938,2.417,2.417,0,0,1,1.636-1.019q.091-.255.168-.516a2.418,2.418,0,0,1-.723-1.795A2.431,2.431,0,0,1,23.613,13.363Z" transform="translate(2.143 0.357)"/><path class="e" d="M6.63,22.889a2.645,2.645,0,0,0-.419-1.882,2.023,2.023,0,0,0-1.688-.465q-.147-.213-.285-.432a2.693,2.693,0,0,0,.121-1.937,2.158,2.158,0,0,0-1.468-1.021q-.081-.256-.151-.515a2.572,2.572,0,0,0,.65-1.795A2.387,2.387,0,0,0,2.27,13.364c-.006-.092-.01-.184-.01-.277s0-.185.011-.277a2.384,2.384,0,0,0,1.117-1.479,2.56,2.56,0,0,0-.65-1.795c.048-.174.1-.346.152-.515A2.159,2.159,0,0,0,4.359,8a2.7,2.7,0,0,0-.12-1.938c.092-.146.187-.29.283-.431a2.03,2.03,0,0,0,1.691-.467,2.65,2.65,0,0,0,.418-1.881c.058-.049.119-.1.179-.146a5.313,5.313,0,0,1-.51-.171c-.146.1-.291.208-.432.317A2.439,2.439,0,0,1,5.4,5.165a2.448,2.448,0,0,1-1.882.466c-.109.141-.215.286-.317.431A2.445,2.445,0,0,1,3.338,8,2.417,2.417,0,0,1,1.7,9.02q-.091.255-.168.516a2.418,2.418,0,0,1,.723,1.795A2.431,2.431,0,0,1,1.011,12.81c-.006.092-.011.184-.011.277s.006.185.011.277a2.431,2.431,0,0,1,1.246,1.479,2.421,2.421,0,0,1-.723,1.795q.077.26.168.515a2.417,2.417,0,0,1,1.636,1.021A2.442,2.442,0,0,1,3.2,20.11c.1.146.207.291.316.432a2.446,2.446,0,0,1,1.882.465,2.445,2.445,0,0,1,.466,1.882c.141.109.286.215.431.317.165-.064.336-.123.51-.171-.059-.048-.12-.1-.179-.146Z" transform="translate(0.12 0.357)"/><path class="f" d="M26.868,13.018l-.011-.205a.56.56,0,0,0-.276-.457c-.851-.5-.953-.773-.963-.845s0-.378.655-1.111a.56.56,0,0,0,.122-.521q-.164-.6-.383-1.176a.559.559,0,0,0-.4-.35c-.965-.213-1.149-.443-1.182-.509s-.113-.353.285-1.269a.561.561,0,0,0-.047-.532q-.339-.513-.724-.991a.568.568,0,0,0-.493-.207c-.993.1-1.238-.067-1.291-.118s-.214-.3-.118-1.292a.56.56,0,0,0-.207-.492c-.32-.255-.65-.5-.991-.724a.556.556,0,0,0-.532-.046c-.916.4-1.2.317-1.269.283s-.3-.217-.507-1.182a.56.56,0,0,0-.35-.4C17.8.726,17.406.6,17.006.487a.559.559,0,0,0-.521.123c-.737.655-1.033.672-1.112.655S15.03,1.152,14.528.3a.56.56,0,0,0-.456-.276L13.867.013a6.433,6.433,0,0,0-.847,0l-.205.013A.56.56,0,0,0,12.359.3c-.5.851-.773.953-.845.963s-.375,0-1.112-.655A.56.56,0,0,0,9.881.486Q9.281.653,8.7.871a.56.56,0,0,0-.35.4c-.211.967-.441,1.151-.507,1.184s-.353.113-1.269-.285a.56.56,0,0,0-.532.047c-.342.225-.672.468-.99.724a.56.56,0,0,0-.207.492c.1.991-.067,1.239-.119,1.291s-.3.215-1.291.119a.557.557,0,0,0-.493.207q-.381.479-.724.991a.56.56,0,0,0-.045.531c.4.918.317,1.2.283,1.27s-.217.3-1.182.507a.56.56,0,0,0-.4.35Q.658,9.281.492,9.879a.562.562,0,0,0,.123.522c.654.734.668,1.037.655,1.111s-.114.344-.963.845a.56.56,0,0,0-.276.457l-.012.205c-.01.14-.019.28-.019.423s.009.282.019.423l.011.205a.56.56,0,0,0,.276.456c.851.5.953.773.963.845s0,.378-.655,1.112a.56.56,0,0,0-.122.521c.11.4.239.792.383,1.176a.56.56,0,0,0,.4.35c.965.213,1.149.443,1.182.507s.113.353-.283,1.269a.56.56,0,0,0,.045.532c.227.342.471.672.725.993a.568.568,0,0,0,.493.207c.993-.1,1.238.066,1.291.118s.214.3.118,1.292a.56.56,0,0,0,.207.492c.32.255.65.5.991.724a.56.56,0,0,0,.532.046c.919-.4,1.2-.318,1.269-.283s.3.217.507,1.182a.56.56,0,0,0,.35.4c.385.146.776.274,1.176.384a.564.564,0,0,0,.522-.123c.735-.654,1.034-.672,1.111-.655s.343.114.845.963a.56.56,0,0,0,.456.276l.205.012c.141.01.28.019.423.019s.282-.009.423-.019l.205-.011a.56.56,0,0,0,.456-.276c.5-.851.773-.953.845-.965s.376,0,1.112.656a.56.56,0,0,0,.521.122c.4-.11.792-.239,1.176-.383a.56.56,0,0,0,.35-.4c.212-.966.441-1.149.507-1.183s.352-.112,1.269.285a.564.564,0,0,0,.532-.047c.342-.225.672-.468.99-.724a.56.56,0,0,0,.207-.492c-.1-.993.067-1.239.119-1.291s.3-.215,1.291-.119a.571.571,0,0,0,.493-.207c.254-.32.5-.65.724-.991a.56.56,0,0,0,.045-.532c-.4-.916-.317-1.2-.283-1.27s.217-.295,1.182-.506a.56.56,0,0,0,.4-.35q.218-.578.384-1.176a.562.562,0,0,0-.123-.522c-.654-.735-.668-1.037-.655-1.112s.114-.343.963-.845a.56.56,0,0,0,.276-.456l.012-.205c.01-.141.019-.28.019-.423s-.009-.283-.019-.423ZM5.6,17.768a8.887,8.887,0,0,1,0-8.649,4.463,4.463,0,0,1,0,8.649Zm11.16,4a8.971,8.971,0,0,1-6.643,0,3.086,3.086,0,0,1-.039-.479,3.361,3.361,0,0,1,6.722,0A3.141,3.141,0,0,1,16.765,21.765Zm-4.442-8.322a1.12,1.12,0,1,1,1.12,1.12A1.122,1.122,0,0,1,12.323,13.444Zm1.12-4.481A3.365,3.365,0,0,1,10.083,5.6a3.141,3.141,0,0,1,.039-.479,8.971,8.971,0,0,1,6.643,0A3.141,3.141,0,0,1,16.8,5.6,3.365,3.365,0,0,1,13.444,8.962Zm7.84,8.806a4.463,4.463,0,0,1,0-8.649,8.891,8.891,0,0,1,0,8.649Z" transform="translate(0 0)"/></g><g class="ar" transform="matrix(1, 0, 0, 1, 0, 0)"><text class="g" transform="translate(27 117)"><tspan x="0" y="0">D</tspan></text></g><g class="aq" transform="matrix(1, 0, 0, 1, 0, 0)"><text class="g" transform="translate(74 117)"><tspan x="0" y="0">i</tspan></text></g><g class="ap" transform="matrix(1, 0, 0, 1, 0, 0)"><text class="g" transform="matrix(-1, 0, 0, 1, 136, 117)"><tspan x="0" y="0">D</tspan></text></g><g transform="translate(54 11)"><path class="h" d="M249.514,18.838a1.015,1.015,0,0,1-1.014-1.016V1.016a1.014,1.014,0,1,1,2.027,0V17.822a1.015,1.015,0,0,1-1.014,1.016Z" transform="translate(-222.013 0)"/><path class="i" d="M212.351,131.6h9.46a1.353,1.353,0,0,1,1.351,1.354v4.469H211v-4.469A1.353,1.353,0,0,1,212.351,131.6Z" transform="translate(-189.581 -113.778)"/><path class="j" d="M221.811,131.6h-1.18v.6a2.3,2.3,0,0,1-2.3,2.307H211v2.912h12.162v-4.469A1.353,1.353,0,0,0,221.811,131.6Z" transform="translate(-189.581 -113.778)"/><path class="k" d="M129.832,193.31a74.6,74.6,0,0,1-7.6,1.352,43.3,43.3,0,0,0,.82-6.45,72.977,72.977,0,0,0,8.17-1.545c0-.172-.007-.345-.012-.517s-.015-.343-.024-.513c-.005-.081-.009-.163-.015-.244-.008-.1-.015-.2-.024-.306-.012-.157-.027-.313-.043-.469a.932.932,0,0,0-.17.027,69.762,69.762,0,0,1-7.824,1.51,43.279,43.279,0,0,0-.426-6.284c2.4-.314,4.685-.71,6.812-1.184a.933.933,0,0,0,.168-.053c-.062-.16-.126-.32-.192-.478s-.132-.317-.2-.474q-.207-.471-.435-.93c-2.005.439-4.184.811-6.482,1.109a44.024,44.024,0,0,0-1.478-5.688q1.887-.215,3.761-.493a1,1,0,0,0,.55-.271c-.065-.072-.13-.142-.2-.213l-.2-.209-.2-.207q-.2-.205-.409-.406c-.138-.134-.278-.265-.419-.4-.072-.065-.142-.13-.214-.194q-1.684.238-3.378.424c-.559-1.449-1.151-2.756-1.732-3.911-.258-.131-.52-.256-.784-.375a.089.089,0,0,1-.026-.012q-.375-.169-.757-.325c-.115-.047-.231-.091-.347-.137l-.107-.043c-.035-.015-.072-.028-.107-.042h0a1.02,1.02,0,0,0-.078,1.077,41.484,41.484,0,0,1,1.843,3.979q-2.552.232-5.112.348-.624-3.358-1.514-6.664c-.173-.024-.345-.047-.519-.069l-.261-.03c-.159-.018-.32-.034-.481-.049-.277-.024-.554-.045-.834-.06a1.043,1.043,0,0,0,.032.345q.9,3.271,1.526,6.6-1.4.039-2.8.041-1.277,0-2.557-.026.693-3.3,1.654-6.534a1,1,0,0,0,.03-.442c-.169.007-.339.015-.508.024l-.27.018-.241.018-.182.015-.2.019-.153.015c-.17.018-.342.038-.511.058q-.981,3.342-1.682,6.747-2.68-.106-5.354-.341A41.452,41.452,0,0,1,100,166.44a1.019,1.019,0,0,0-.08-1.078c-.223.084-.445.173-.664.264h0c-.109.046-.218.092-.326.139s-.218.095-.326.144a.09.09,0,0,1-.026.012c-.263.119-.526.244-.784.375-.587,1.166-1.184,2.486-1.747,3.952q-1.713-.183-3.415-.418c-.213.194-.424.39-.631.592l-.205.2c-.135.135-.27.274-.4.412l-.008.008q-.191.2-.377.406l-.008.01a1.01,1.01,0,0,0,.551.268q1.889.274,3.793.486a44,44,0,0,0-1.465,5.646c-2.3-.3-4.477-.67-6.482-1.109q-.229.459-.435.93c-.069.157-.136.316-.2.474s-.13.318-.192.478a.93.93,0,0,0,.168.053c2.127.474,4.411.869,6.812,1.184a43.278,43.278,0,0,0-.426,6.284,69.767,69.767,0,0,1-7.824-1.51.93.93,0,0,0-.17-.027c-.016.156-.031.311-.043.469-.009.1-.016.2-.024.306-.005.081-.009.163-.015.244-.009.171-.018.343-.024.513s-.009.345-.012.517a72.978,72.978,0,0,0,8.17,1.545,43.3,43.3,0,0,0,.82,6.45,74.6,74.6,0,0,1-7.6-1.352,1.014,1.014,0,0,0-.53.018l.077.268c.031.106.064.21.095.316.05.161.1.321.155.481s.12.349.182.524c.031.087.064.173.1.259s.065.173.1.259h0a79.621,79.621,0,0,0,7.907,1.334,43.651,43.651,0,0,0,1.808,5.509q-2.627-.339-5.227-.819a1.011,1.011,0,0,0-.842.226c.218.265.439.525.668.781l.23.255q.233.252.47.5c.08.083.159.164.241.244l.245.24q2.566.437,5.157.739a44.123,44.123,0,0,0,2.143,4.032h0c.1.042.2.083.3.12l.255.1.172.066q.33.124.666.236c.189.064.38.125.57.183l.286.087h0a1.016,1.016,0,0,0-.028-1.04c-.65-1.028-1.331-2.21-2-3.537q1.928.177,3.861.276.511,2.5,1.17,4.965l.3.045c.132.018.265.035.4.05l.332.038.262.026.261.023q.264.02.527.037a1.047,1.047,0,0,0-.03-.375q-.641-2.346-1.136-4.722,1.267.037,2.532.045h.387q.965,0,1.931-.02-.527,2.389-1.189,4.748a1,1,0,0,0-.035.344h.024l.218-.011c.123-.007.247-.015.37-.024l.18-.014c.262-.02.524-.045.784-.076h.015c.169-.02.336-.041.5-.064q.683-2.466,1.219-4.965,2.053-.085,4.1-.257c-.658,1.3-1.327,2.462-1.966,3.472a1.016,1.016,0,0,0-.028,1.04h0l.287-.087c.191-.058.381-.119.57-.183.236-.079.472-.163.7-.249l.154-.06c.157-.06.312-.12.468-.183l.072-.028s0,0,0,0a44.342,44.342,0,0,0,2.1-3.945q2.532-.274,5.045-.68c.082-.079.165-.157.246-.237l.011-.009.232-.232c.081-.081.161-.162.239-.245l.236-.248c.155-.167.309-.336.459-.506.076-.085.151-.172.226-.259s.147-.173.22-.261a1,1,0,0,0-.839-.234q-2.554.449-5.135.76a43.558,43.558,0,0,0,1.847-5.6,79.611,79.611,0,0,0,7.907-1.334h0c.034-.085.066-.172.1-.259s.065-.172.1-.259q.093-.262.182-.524c.053-.16.105-.32.155-.481.031-.1.064-.21.095-.314l.077-.268A1,1,0,0,0,129.832,193.31Zm-34.27-13.195c2.095.229,4.27.4,6.5.509q-.274,3.161-.314,6.341c-2.272-.12-4.482-.306-6.6-.553A41.231,41.231,0,0,1,95.561,180.115Zm.563,14.8a41.515,41.515,0,0,1-.9-6.446c2.1.238,4.287.418,6.528.535q.041,3.193.318,6.373C100.038,195.27,98.048,195.114,96.125,194.911Zm2.478,7.634A41.805,41.805,0,0,1,96.645,197c1.827.181,3.711.32,5.63.412q.308,2.755.8,5.488Q100.835,202.776,98.6,202.545Zm3.662-23.948c-2.178-.107-4.312-.274-6.366-.5a41.78,41.78,0,0,1,1.513-5.676q2.842.264,5.7.386Q102.589,175.687,102.265,178.6Zm2.892-5.719q1.386.035,2.773.035h.188q1.575,0,3.154-.049.478,2.891.754,5.813c-1.293.042-2.6.064-3.909.064q-1.922,0-3.822-.061.328-2.915.862-5.8Zm5.673,30.15q-1.368.035-2.735.03-1.472-.006-2.946-.06-.5-2.736-.824-5.5c1.254.039,2.52.058,3.792.058,1.208,0,2.412-.018,3.6-.053q-.355,2.777-.891,5.526Zm1.127-7.565c-1.269.041-2.551.061-3.841.061-1.345,0-2.681-.022-4-.066q-.29-3.175-.331-6.371c1.428.05,2.876.077,4.334.077q2.149,0,4.257-.075Q112.284,192.285,111.957,195.463Zm.451-8.406c-1.414.05-2.847.076-4.292.076q-2.191,0-4.339-.079v-.038q.036-3.163.316-6.31,1.986.063,4.023.065,2.064,0,4.077-.066.223,3.141.215,6.3Zm6.4-14.667a41.673,41.673,0,0,1,1.526,5.71c-2.027.221-4.131.386-6.28.493q-.274-2.915-.742-5.809,2.751-.13,5.5-.394Zm-1.211,30.23q-2.341.226-4.688.333.521-2.751.866-5.53c1.981-.092,3.927-.233,5.812-.42A41.942,41.942,0,0,1,117.6,202.621Zm2.511-7.71c-1.973.209-4.016.367-6.107.47q.318-3.177.4-6.377c2.269-.118,4.48-.3,6.6-.539A41.516,41.516,0,0,1,120.109,194.911Zm.973-8.5c-2.132.248-4.358.435-6.646.555q.01-3.179-.215-6.346c2.215-.11,4.373-.279,6.451-.507A41.236,41.236,0,0,1,121.082,186.413Z" transform="translate(-80.617 -141.686)"/><path class="l" d="M146.582,181.72c-.587,1.166-1.184,2.486-1.747,3.952q-1.713-.183-3.415-.418A23.064,23.064,0,0,1,146.582,181.72Z" transform="translate(-129.404 -157.11)"/><path class="m" d="M144.6,462.671a23.125,23.125,0,0,1-7.3-4.771q2.566.437,5.157.739A44.124,44.124,0,0,0,144.6,462.671Z" transform="translate(-125.841 -395.887)"/><path class="n" d="M195.037,469.747a1.016,1.016,0,0,0-.028-1.04c-.65-1.028-1.331-2.21-2-3.537q1.928.177,3.861.276.511,2.5,1.17,4.965a22.754,22.754,0,0,1-3-.664Z" transform="translate(-174.022 -402.173)"/><path class="o" d="M240.7,472.612a1,1,0,0,0-.035.344q-.529.024-1.063.024-.971,0-1.923-.08.264.02.527.037a1.047,1.047,0,0,0-.03-.375q-.641-2.346-1.136-4.722,1.267.037,2.532.045h.386q.965,0,1.931-.02Q241.363,470.253,240.7,472.612Z" transform="translate(-212.102 -404.481)"/><path class="p" d="M282.726,469.122a1.016,1.016,0,0,0-.028,1.04,22.729,22.729,0,0,1-3.327.71q.683-2.466,1.219-4.965,2.053-.085,4.1-.257C284.034,466.951,283.365,468.112,282.726,469.122Z" transform="translate(-248.712 -402.588)"/><path class="q" d="M327.837,458.97a23.081,23.081,0,0,1-7.147,4.625,44.341,44.341,0,0,0,2.1-3.945Q325.324,459.376,327.837,458.97Z" transform="translate(-284.448 -396.812)"/><path class="r" d="M337.491,185.207q-1.684.238-3.378.424c-.559-1.449-1.151-2.756-1.732-3.911A23.033,23.033,0,0,1,337.491,185.207Z" transform="translate(-294.558 -157.11)"/><path class="s" d="M189.246,165.11q-.981,3.342-1.682,6.747-2.68-.106-5.354-.341a41.461,41.461,0,0,1,1.857-4.013,1.019,1.019,0,0,0-.08-1.078A22.921,22.921,0,0,1,189.246,165.11Z" transform="translate(-164.682 -142.749)"/><path class="t" d="M242.424,170.729q-1.4.039-2.8.041-1.277,0-2.557-.026.693-3.3,1.654-6.534a1,1,0,0,0,.03-.442c.291-.012.581-.018.874-.018.415,0,.828.011,1.238.033a1.042,1.042,0,0,0,.032.345Q241.794,167.4,242.424,170.729Z" transform="translate(-212.128 -141.574)"/><path class="u" d="M287.286,171.836q-2.552.232-5.112.348-.624-3.358-1.514-6.664a22.774,22.774,0,0,1,4.861,1.261,1.02,1.02,0,0,0-.078,1.077A41.5,41.5,0,0,1,287.286,171.836Z" transform="translate(-249.827 -143.104)"/><path class="v" d="M352.964,396.87a23.014,23.014,0,0,1-3.78,6.413,1,1,0,0,0-.839-.234q-2.554.449-5.135.76a43.557,43.557,0,0,0,1.847-5.6A79.6,79.6,0,0,0,352.964,396.87Z" transform="translate(-303.925 -343.123)"/><path class="w" d="M369.456,329.186a23.16,23.16,0,0,1-.868,6.3,1,1,0,0,0-.53-.019,74.579,74.579,0,0,1-7.6,1.352,43.306,43.306,0,0,0,.82-6.45,72.968,72.968,0,0,0,8.17-1.545c0-.172-.007-.345-.012-.517C369.451,328.6,369.456,328.892,369.456,329.186Z" transform="translate(-318.844 -283.847)"/><path class="x" d="M372.22,278.8a.929.929,0,0,0-.17.027,69.764,69.764,0,0,1-7.824,1.51,43.264,43.264,0,0,0-.426-6.284c2.4-.314,4.685-.71,6.812-1.184a.931.931,0,0,0,.168-.053,22.777,22.777,0,0,1,.786,2.408A23.127,23.127,0,0,1,372.22,278.8Z" transform="translate(-321.733 -235.872)"/><path class="y" d="M358.371,224.813c-2.005.439-4.184.811-6.482,1.109a44.029,44.029,0,0,0-1.478-5.688q1.887-.215,3.761-.493a1,1,0,0,0,.55-.271A23.142,23.142,0,0,1,358.371,224.813Z" transform="translate(-310.152 -189.748)"/><path class="z" d="M110.627,220.6a44,44,0,0,0-1.465,5.646c-2.3-.3-4.477-.67-6.482-1.109a23.12,23.12,0,0,1,3.6-5.291,1.011,1.011,0,0,0,.551.268Q108.723,220.392,110.627,220.6Z" transform="translate(-95.899 -190.076)"/><path class="aa" d="M94.31,274.056a43.279,43.279,0,0,0-.426,6.284,69.753,69.753,0,0,1-7.824-1.51.934.934,0,0,0-.17-.027,22.97,22.97,0,0,1,1.441-5.983.927.927,0,0,0,.168.053C89.625,273.347,91.909,273.742,94.31,274.056Z" transform="translate(-81.378 -235.872)"/><path class="ab" d="M93.966,336.823a74.579,74.579,0,0,1-7.6-1.352,1.014,1.014,0,0,0-.53.018,23.2,23.2,0,0,1-.868-6.3c0-.294.005-.585.018-.876-.005.172-.009.345-.012.517a72.964,72.964,0,0,0,8.17,1.545A43.3,43.3,0,0,0,93.966,336.823Z" transform="translate(-80.582 -283.847)"/><path class="ac" d="M106.325,403.713q-2.627-.339-5.227-.819a1.01,1.01,0,0,0-.842.226,23.107,23.107,0,0,1-3.646-6.25,79.6,79.6,0,0,0,7.907,1.334A43.645,43.645,0,0,0,106.325,403.713Z" transform="translate(-90.649 -343.123)"/><path class="ad" d="M301.472,232.43c-2.027.221-4.131.386-6.28.493q-.274-2.915-.742-5.809,2.751-.13,5.5-.394A41.668,41.668,0,0,1,301.472,232.43Z" transform="translate(-261.754 -196.016)"/><path class="ae" d="M177.536,414.369q-2.236-.128-4.468-.359a41.8,41.8,0,0,1-1.958-5.54c1.827.181,3.711.32,5.63.412Q177.048,411.636,177.536,414.369Z" transform="translate(-155.082 -353.152)"/><path class="q" d="M167.456,352.318c-2.034-.1-4.024-.259-5.947-.462a41.517,41.517,0,0,1-.9-6.446c2.1.238,4.287.418,6.528.535Q167.179,349.138,167.456,352.318Z" transform="translate(-146 -298.632)"/><path class="af" d="M166.956,284.269q-.274,3.161-.314,6.341c-2.272-.121-4.482-.306-6.6-.552a41.233,41.233,0,0,1,.409-6.3C162.546,283.989,164.722,284.159,166.956,284.269Z" transform="translate(-145.507 -245.331)"/><path class="ag" d="M172.8,227.356q-.521,2.876-.845,5.787c-2.178-.107-4.312-.274-6.366-.5a41.778,41.778,0,0,1,1.514-5.676Q169.946,227.234,172.8,227.356Z" transform="translate(-150.308 -196.232)"/><path class="ah" d="M235.451,236.033c-1.293.042-2.6.064-3.909.064q-1.922,0-3.822-.061.328-2.915.862-5.8,1.386.035,2.773.035h.188q1.575,0,3.154-.049Q235.175,233.111,235.451,236.033Z" transform="translate(-204.042 -199.042)"/><path class="ai" d="M232.521,294.416v.056c-1.414.05-2.847.076-4.292.076q-2.191,0-4.339-.079v-.038q.037-3.163.316-6.31,1.986.063,4.023.065,2.064,0,4.077-.066Q232.529,291.261,232.521,294.416Z" transform="translate(-200.729 -249.1)"/><path class="p" d="M235.336,412.115q-.355,2.777-.891,5.526-1.368.035-2.735.03-1.472-.006-2.946-.06-.5-2.736-.824-5.5c1.254.039,2.52.058,3.792.058C232.94,412.168,234.144,412.151,235.336,412.115Z" transform="translate(-204.232 -356.298)"/><path class="v" d="M232.52,350.013q-.089,3.2-.416,6.373c-1.269.041-2.551.061-3.841.061-1.345,0-2.681-.022-4-.066q-.29-3.175-.331-6.371c1.428.05,2.876.077,4.334.077Q230.412,350.087,232.52,350.013Z" transform="translate(-200.764 -302.609)"/><path class="aj" d="M298.148,408.47a41.943,41.943,0,0,1-1.991,5.616q-2.341.226-4.688.333.521-2.75.866-5.53C294.317,408.8,296.263,408.657,298.148,408.47Z" transform="translate(-259.177 -353.151)"/><path class="ak" d="M306.555,345.41a41.512,41.512,0,0,1-.9,6.446c-1.973.209-4.016.367-6.107.47q.318-3.177.4-6.377C302.22,345.831,304.431,345.651,306.555,345.41Z" transform="translate(-266.165 -298.632)"/><path class="al" d="M92.965,103.085c-2.132.248-4.358.435-6.646.555q.01-3.179-.215-6.346c2.215-.11,4.373-.279,6.451-.507A41.232,41.232,0,0,1,92.965,103.085Zm14.535-30.8a7.752,7.752,0,0,0-4.77,4.781A7.745,7.745,0,0,0,101.4,74.68c-.158-.194-.327-.381-.5-.558a7.745,7.745,0,0,0-2.932-1.842,7.745,7.745,0,0,0,4.77-4.781,7.776,7.776,0,0,0,1.478,2.553c.115.133.235.261.359.386A7.745,7.745,0,0,0,107.5,72.281ZM62.041,80.406h0a7.753,7.753,0,0,0-4.77,4.781h0a7.753,7.753,0,0,0-4.77-4.781h0a7.753,7.753,0,0,0,4.77-4.781h0A7.753,7.753,0,0,0,62.041,80.406Z" transform="translate(-52.5 -58.359)"/><path class="am" d="M129.494,88.578a7.752,7.752,0,0,0-4.77,4.781,7.745,7.745,0,0,0-1.334-2.381,7.875,7.875,0,0,0,2.573-3.686,7.526,7.526,0,0,0,.239-.941c.115.133.235.261.359.386a7.745,7.745,0,0,0,2.932,1.842ZM84.035,96.7a7.752,7.752,0,0,0-4.77,4.781A7.745,7.745,0,0,0,77.931,99.1,7.875,7.875,0,0,0,80.5,95.417a7.522,7.522,0,0,0,.239-.941c.115.133.235.261.359.386A7.745,7.745,0,0,0,84.035,96.7Z" transform="translate(-74.494 -74.656)"/></g></svg>