<svg height="156" viewBox="0 0 163 156" width="163" xmlns="http://www.w3.org/2000/svg" xmlns:xlink="http://www.w3.org/1999/xlink"><linearGradient id="a" gradientUnits="objectBoundingBox" x1=".048" x2=".952" y1=".289" y2=".71"><stop offset="0" stop-color="#fff" stop-opacity=".2"/><stop offset="1" stop-color="#fff" stop-opacity="0"/></linearGradient><filter id="b" filterUnits="userSpaceOnUse" height="47.4" width="53.3" x="22" y="81.6"><feOffset dy="3"/><feGaussianBlur result="c" stdDeviation="3"/><feFlood flood-opacity=".161"/><feComposite in2="c" operator="in"/><feComposite in="SourceGraphic"/></filter><filter id="c" filterUnits="userSpaceOnUse" height="50.816" width="27.1" x="68" y="78.184"><feOffset dy="3"/><feGaussianBlur result="e" stdDeviation="3"/><feFlood flood-opacity=".161"/><feComposite in2="e" operator="in"/><feComposite in="SourceGraphic"/></filter><filter id="d" filterUnits="userSpaceOnUse" height="47.4" width="53.3" x="87.7" y="81.6"><feOffset dy="3"/><feGaussianBlur result="g" stdDeviation="3"/><feFlood flood-opacity=".161"/><feComposite in2="g" operator="in"/><feComposite in="SourceGraphic"/></filter><g fill="#242424"><path d="m128.22999573 155h-93.4600029c-1.74164581 0-3.27135468-1.11355591-3.80650139-2.77095032l-28.90133238-89.51016998c-.53139591-1.64579392.0495832-3.43735504 1.44568753-4.45808411l75.63133645-55.29598021c.68987275-.50437498 1.50622559-.77097917 2.36080933-.77097917s1.67093659.26660419 2.36080933.77097917l75.63134002 55.29598021c1.39611817 1.02072907 1.97709656 2.81227112 1.44567871 4.45806122l-28.90132141 89.51019287c-.53512573 1.65739441-2.06486511 2.77095032-3.80650329 2.77095032z"/><path d="m81.49999237 3.19381714c-.64095306 0-1.2532196.19995117-1.77060699.57823181l-75.63134766 55.29600525c-1.04708862.76554108-1.48280334 2.10922241-1.08425903 3.34356689l28.90133667 89.51017762c.40135193 1.24304199 1.54864502 2.07818603 2.85487365 2.07818603h93.46000672c1.30622864 0 2.45349121-.83514404 2.85487365-2.07818603l28.90133667-89.51022339c.39854432-1.23429871-.03718566-2.57798004-1.08427429-3.34354401l-75.63133239-55.29598236c-.51741028-.37828064-1.12966919-.57823181-1.770607-.57823181m-.00000763-2c1.03612518 0 2.072258.32124328 2.95102692.96374512l75.63132477 55.29597473c1.74143982 1.27321624 2.46995544 3.51971435 1.80711364 5.57258606l-28.90135193 89.51019287c-.66661071 2.06459045-2.58859252 3.46366882-4.75810241 3.46366882h-93.46000672c-2.16952514 0-4.09152221-1.39907837-4.75813293-3.46366882l-28.90132141-89.51016998c-.6628418-2.05287171.06567383-4.29939271 1.80708313-5.57259369l75.63135528-55.29598999c.8787613-.64250184 1.91488648-.96374512 2.95101166-.96374512z" fill="#242424"/></g><g stroke="#efefef" stroke-width=".2" transform="translate(68.445 122.184)"><path d="m26.868 13.018-.011-.205a.56.56 0 0 0 -.276-.457c-.851-.5-.953-.773-.963-.845s0-.378.655-1.111a.56.56 0 0 0 .122-.521q-.164-.6-.383-1.176a.559.559 0 0 0 -.4-.35c-.965-.213-1.149-.443-1.182-.509s-.113-.353.285-1.269a.561.561 0 0 0 -.047-.532q-.339-.513-.724-.991a.568.568 0 0 0 -.493-.207c-.993.1-1.238-.067-1.291-.118s-.214-.3-.118-1.292a.56.56 0 0 0 -.207-.492c-.32-.255-.65-.5-.991-.724a.556.556 0 0 0 -.532-.046c-.916.4-1.2.317-1.269.283s-.3-.217-.507-1.182a.56.56 0 0 0 -.35-.4c-.386-.148-.78-.274-1.18-.387a.559.559 0 0 0 -.521.123c-.737.655-1.033.672-1.112.655s-.343-.113-.845-.965a.56.56 0 0 0 -.456-.276l-.205-.011a6.433 6.433 0 0 0 -.847 0l-.205.013a.56.56 0 0 0 -.456.274c-.5.851-.773.953-.845.963s-.375 0-1.112-.655a.56.56 0 0 0 -.521-.122q-.6.167-1.181.385a.56.56 0 0 0 -.35.4c-.211.967-.441 1.151-.507 1.184s-.353.113-1.269-.285a.56.56 0 0 0 -.532.047c-.342.225-.672.468-.99.724a.56.56 0 0 0 -.207.492c.1.991-.067 1.239-.119 1.291s-.3.215-1.291.119a.557.557 0 0 0 -.493.207q-.381.479-.724.991a.56.56 0 0 0 -.045.531c.4.918.317 1.2.283 1.27s-.217.3-1.182.507a.56.56 0 0 0 -.4.35q-.216.582-.382 1.18a.562.562 0 0 0 .123.522c.654.734.668 1.037.655 1.111s-.114.344-.963.845a.56.56 0 0 0 -.276.457l-.012.205c-.01.14-.019.28-.019.423s.009.282.019.423l.011.205a.56.56 0 0 0 .276.456c.851.5.953.773.963.845s0 .378-.655 1.112a.56.56 0 0 0 -.122.521c.11.4.239.792.383 1.176a.56.56 0 0 0 .4.35c.965.213 1.149.443 1.182.507s.113.353-.283 1.269a.56.56 0 0 0 .045.532c.227.342.471.672.725.993a.568.568 0 0 0 .493.207c.993-.1 1.238.066 1.291.118s.214.3.118 1.292a.56.56 0 0 0 .207.492c.32.255.65.5.991.724a.56.56 0 0 0 .532.046c.919-.4 1.2-.318 1.269-.283s.3.217.507 1.182a.56.56 0 0 0 .35.4c.385.146.776.274 1.176.384a.564.564 0 0 0 .522-.123c.735-.654 1.034-.672 1.111-.655s.343.114.845.963a.56.56 0 0 0 .456.276l.205.012c.141.01.28.019.423.019s.282-.009.423-.019l.205-.011a.56.56 0 0 0 .456-.276c.5-.851.773-.953.845-.965s.376 0 1.112.656a.56.56 0 0 0 .521.122c.4-.11.792-.239 1.176-.383a.56.56 0 0 0 .35-.4c.212-.966.441-1.149.507-1.183s.352-.112 1.269.285a.564.564 0 0 0 .532-.047c.342-.225.672-.468.99-.724a.56.56 0 0 0 .207-.492c-.1-.993.067-1.239.119-1.291s.3-.215 1.291-.119a.571.571 0 0 0 .493-.207c.254-.32.5-.65.724-.991a.56.56 0 0 0 .045-.532c-.4-.916-.317-1.2-.283-1.27s.217-.295 1.182-.506a.56.56 0 0 0 .4-.35q.218-.578.384-1.176a.562.562 0 0 0 -.123-.522c-.654-.735-.668-1.037-.655-1.112s.114-.343.963-.845a.56.56 0 0 0 .276-.456l.012-.205c.01-.141.019-.28.019-.423s-.009-.283-.019-.423zm-21.268 4.75a8.887 8.887 0 0 1 0-8.649 4.463 4.463 0 0 1 0 8.649zm11.16 4a8.971 8.971 0 0 1 -6.643 0 3.086 3.086 0 0 1 -.039-.479 3.361 3.361 0 0 1 6.722 0 3.141 3.141 0 0 1 -.035.476zm-4.442-8.322a1.12 1.12 0 1 1 1.12 1.12 1.122 1.122 0 0 1 -1.115-1.122zm1.12-4.481a3.365 3.365 0 0 1 -3.355-3.365 3.141 3.141 0 0 1 .039-.479 8.971 8.971 0 0 1 6.643 0 3.141 3.141 0 0 1 .035.479 3.365 3.365 0 0 1 -3.356 3.362zm7.84 8.806a4.463 4.463 0 0 1 0-8.649 8.891 8.891 0 0 1 0 8.649z" fill="#303c42"/><path d="m25.635 13.6c.006-.092.011-.184.011-.277s-.006-.185-.011-.277a2.431 2.431 0 0 1 -1.246-1.479 2.421 2.421 0 0 1 .723-1.795q-.078-.259-.168-.515a2.417 2.417 0 0 1 -1.636-1.021 2.442 2.442 0 0 1 .135-1.936c-.1-.146-.207-.291-.316-.432a2.443 2.443 0 0 1 -1.882-.468 2.445 2.445 0 0 1 -.466-1.882q-.212-.163-.431-.317a2.445 2.445 0 0 1 -1.938.134 2.422 2.422 0 0 1 -1.02-1.635q-.256-.09-.516-.168a2.438 2.438 0 0 1 -1.795.723 2.431 2.431 0 0 1 -1.479-1.244 4.561 4.561 0 0 0 -.553 0 2.431 2.431 0 0 1 -1.479 1.246 2.45 2.45 0 0 1 -1.795-.723q-.26.077-.515.168a2.42 2.42 0 0 1 -1.021 1.636 2.442 2.442 0 0 1 -1.937-.138c-.146.1-.291.207-.432.316a2.439 2.439 0 0 1 -.468 1.884 2.448 2.448 0 0 1 -1.882.466c-.109.141-.215.286-.317.431a2.445 2.445 0 0 1 .134 1.938 2.417 2.417 0 0 1 -1.635 1.021q-.091.255-.168.516a2.418 2.418 0 0 1 .723 1.795 2.431 2.431 0 0 1 -1.246 1.479c-.006.092-.011.184-.011.277s.006.185.011.277a2.431 2.431 0 0 1 1.246 1.479 2.421 2.421 0 0 1 -.723 1.795q.077.26.168.515a2.417 2.417 0 0 1 1.636 1.021 2.442 2.442 0 0 1 -.136 1.936c.1.146.207.291.316.432a2.446 2.446 0 0 1 1.882.465 2.445 2.445 0 0 1 .466 1.882c.141.109.286.215.431.317a2.44 2.44 0 0 1 1.938-.134 2.42 2.42 0 0 1 1.019 1.636q.255.091.516.168a2.43 2.43 0 0 1 1.795-.723 2.431 2.431 0 0 1 1.479 1.246 4.561 4.561 0 0 0 .553 0 2.431 2.431 0 0 1 1.479-1.246 2.433 2.433 0 0 1 1.795.723q.26-.077.515-.168a2.417 2.417 0 0 1 1.021-1.636 2.438 2.438 0 0 1 1.937.134c.146-.1.291-.207.432-.316a2.434 2.434 0 0 1 .466-1.882 2.433 2.433 0 0 1 1.882-.466c.108-.141.213-.286.316-.431a2.445 2.445 0 0 1 -.134-1.938 2.417 2.417 0 0 1 1.636-1.019q.091-.255.168-.516a2.418 2.418 0 0 1 -.723-1.795 2.431 2.431 0 0 1 1.25-1.479zm-16.671-9.127a.56.56 0 0 1 .322-.387 10.1 10.1 0 0 1 8.075 0 .56.56 0 0 1 .322.387 4.481 4.481 0 1 1 -8.718 0zm6.6 8.85a2.241 2.241 0 1 1 -2.241-2.241 2.243 2.243 0 0 1 2.241 2.241zm-10.264 5.509a.56.56 0 0 1 -.571-.26 10.018 10.018 0 0 1 0-10.5.566.566 0 0 1 .571-.26 5.585 5.585 0 0 1 0 11.017zm12.384 3.342a.56.56 0 0 1 -.322.387 10.051 10.051 0 0 1 -8.074 0 .56.56 0 0 1 -.322-.387 4.44 4.44 0 0 1 -.122-1.007 4.481 4.481 0 1 1 8.84 1.007zm4.238-3.6a.56.56 0 0 1 -.571.259 5.585 5.585 0 0 1 0-11.018.56.56 0 0 1 .571.26 10.02 10.02 0 0 1 0 10.5z" fill="#495966" transform="translate(.12 .121)"/><path d="m23.613 13.363c.006-.092.011-.184.011-.277s-.006-.185-.011-.277a2.431 2.431 0 0 1 -1.246-1.479 2.421 2.421 0 0 1 .723-1.795q-.078-.259-.168-.515a2.417 2.417 0 0 1 -1.636-1.02 2.442 2.442 0 0 1 .134-1.937c-.1-.146-.207-.291-.316-.432a2.443 2.443 0 0 1 -1.882-.465 2.445 2.445 0 0 1 -.466-1.882q-.212-.163-.431-.317a5.131 5.131 0 0 1 -.51.17l.179.146a2.642 2.642 0 0 0 .419 1.882 2.022 2.022 0 0 0 1.688.466q.146.213.285.432a2.693 2.693 0 0 0 -.121 1.937 2.158 2.158 0 0 0 1.468 1.021c.054.17.1.342.151.515a2.572 2.572 0 0 0 -.65 1.795 2.387 2.387 0 0 0 1.119 1.479c.006.092.01.184.01.277s0 .185-.011.277a2.384 2.384 0 0 0 -1.117 1.479 2.56 2.56 0 0 0 .65 1.795c-.048.174-.1.346-.152.515a2.159 2.159 0 0 0 -1.468 1.021 2.7 2.7 0 0 0 .12 1.938c-.092.146-.187.29-.283.431a2.02 2.02 0 0 0 -1.689.466 2.648 2.648 0 0 0 -.419 1.882c-.058.049-.119.1-.179.146a5.135 5.135 0 0 1 .51.171c.146-.1.291-.208.432-.317a2.434 2.434 0 0 1 .466-1.882 2.433 2.433 0 0 1 1.882-.466c.108-.141.213-.286.316-.431a2.445 2.445 0 0 1 -.134-1.938 2.417 2.417 0 0 1 1.636-1.019q.091-.255.168-.516a2.418 2.418 0 0 1 -.723-1.795 2.431 2.431 0 0 1 1.245-1.481z" fill="#010101" opacity=".1" transform="translate(2.143 .357)"/><path d="m6.63 22.889a2.645 2.645 0 0 0 -.419-1.882 2.023 2.023 0 0 0 -1.688-.465q-.147-.213-.285-.432a2.693 2.693 0 0 0 .121-1.937 2.158 2.158 0 0 0 -1.468-1.021q-.081-.256-.151-.515a2.572 2.572 0 0 0 .65-1.795 2.387 2.387 0 0 0 -1.12-1.478c-.006-.092-.01-.184-.01-.277s0-.185.011-.277a2.384 2.384 0 0 0 1.117-1.479 2.56 2.56 0 0 0 -.65-1.795c.048-.174.1-.346.152-.515a2.159 2.159 0 0 0 1.469-1.021 2.7 2.7 0 0 0 -.12-1.938c.092-.146.187-.29.283-.431a2.03 2.03 0 0 0 1.691-.467 2.65 2.65 0 0 0 .418-1.881c.058-.049.119-.1.179-.146a5.313 5.313 0 0 1 -.51-.171c-.146.1-.291.208-.432.317a2.439 2.439 0 0 1 -.468 1.882 2.448 2.448 0 0 1 -1.882.466c-.109.141-.215.286-.317.431a2.445 2.445 0 0 1 .137 1.938 2.417 2.417 0 0 1 -1.638 1.02q-.091.255-.168.516a2.418 2.418 0 0 1 .723 1.795 2.431 2.431 0 0 1 -1.244 1.479c-.006.092-.011.184-.011.277s.006.185.011.277a2.431 2.431 0 0 1 1.246 1.479 2.421 2.421 0 0 1 -.723 1.795q.077.26.168.515a2.417 2.417 0 0 1 1.636 1.021 2.442 2.442 0 0 1 -.138 1.936c.1.146.207.291.316.432a2.446 2.446 0 0 1 1.882.465 2.445 2.445 0 0 1 .466 1.882c.141.109.286.215.431.317.165-.064.336-.123.51-.171-.059-.048-.12-.1-.179-.146z" fill="#fff" opacity=".2" transform="translate(.12 .357)"/><path d="m26.868 13.018-.011-.205a.56.56 0 0 0 -.276-.457c-.851-.5-.953-.773-.963-.845s0-.378.655-1.111a.56.56 0 0 0 .122-.521q-.164-.6-.383-1.176a.559.559 0 0 0 -.4-.35c-.965-.213-1.149-.443-1.182-.509s-.113-.353.285-1.269a.561.561 0 0 0 -.047-.532q-.339-.513-.724-.991a.568.568 0 0 0 -.493-.207c-.993.1-1.238-.067-1.291-.118s-.214-.3-.118-1.292a.56.56 0 0 0 -.207-.492c-.32-.255-.65-.5-.991-.724a.556.556 0 0 0 -.532-.046c-.916.4-1.2.317-1.269.283s-.3-.217-.507-1.182a.56.56 0 0 0 -.35-.4c-.386-.148-.78-.274-1.18-.387a.559.559 0 0 0 -.521.123c-.737.655-1.033.672-1.112.655s-.343-.113-.845-.965a.56.56 0 0 0 -.456-.276l-.205-.011a6.433 6.433 0 0 0 -.847 0l-.205.013a.56.56 0 0 0 -.456.274c-.5.851-.773.953-.845.963s-.375 0-1.112-.655a.56.56 0 0 0 -.521-.122q-.6.167-1.181.385a.56.56 0 0 0 -.35.4c-.211.967-.441 1.151-.507 1.184s-.353.113-1.269-.285a.56.56 0 0 0 -.532.047c-.342.225-.672.468-.99.724a.56.56 0 0 0 -.207.492c.1.991-.067 1.239-.119 1.291s-.3.215-1.291.119a.557.557 0 0 0 -.493.207q-.381.479-.724.991a.56.56 0 0 0 -.045.531c.4.918.317 1.2.283 1.27s-.217.3-1.182.507a.56.56 0 0 0 -.4.35q-.216.582-.382 1.18a.562.562 0 0 0 .123.522c.654.734.668 1.037.655 1.111s-.114.344-.963.845a.56.56 0 0 0 -.276.457l-.012.205c-.01.14-.019.28-.019.423s.009.282.019.423l.011.205a.56.56 0 0 0 .276.456c.851.5.953.773.963.845s0 .378-.655 1.112a.56.56 0 0 0 -.122.521c.11.4.239.792.383 1.176a.56.56 0 0 0 .4.35c.965.213 1.149.443 1.182.507s.113.353-.283 1.269a.56.56 0 0 0 .045.532c.227.342.471.672.725.993a.568.568 0 0 0 .493.207c.993-.1 1.238.066 1.291.118s.214.3.118 1.292a.56.56 0 0 0 .207.492c.32.255.65.5.991.724a.56.56 0 0 0 .532.046c.919-.4 1.2-.318 1.269-.283s.3.217.507 1.182a.56.56 0 0 0 .35.4c.385.146.776.274 1.176.384a.564.564 0 0 0 .522-.123c.735-.654 1.034-.672 1.111-.655s.343.114.845.963a.56.56 0 0 0 .456.276l.205.012c.141.01.28.019.423.019s.282-.009.423-.019l.205-.011a.56.56 0 0 0 .456-.276c.5-.851.773-.953.845-.965s.376 0 1.112.656a.56.56 0 0 0 .521.122c.4-.11.792-.239 1.176-.383a.56.56 0 0 0 .35-.4c.212-.966.441-1.149.507-1.183s.352-.112 1.269.285a.564.564 0 0 0 .532-.047c.342-.225.672-.468.99-.724a.56.56 0 0 0 .207-.492c-.1-.993.067-1.239.119-1.291s.3-.215 1.291-.119a.571.571 0 0 0 .493-.207c.254-.32.5-.65.724-.991a.56.56 0 0 0 .045-.532c-.4-.916-.317-1.2-.283-1.27s.217-.295 1.182-.506a.56.56 0 0 0 .4-.35q.218-.578.384-1.176a.562.562 0 0 0 -.123-.522c-.654-.735-.668-1.037-.655-1.112s.114-.343.963-.845a.56.56 0 0 0 .276-.456l.012-.205c.01-.141.019-.28.019-.423s-.009-.283-.019-.423zm-21.268 4.75a8.887 8.887 0 0 1 0-8.649 4.463 4.463 0 0 1 0 8.649zm11.16 4a8.971 8.971 0 0 1 -6.643 0 3.086 3.086 0 0 1 -.039-.479 3.361 3.361 0 0 1 6.722 0 3.141 3.141 0 0 1 -.035.476zm-4.442-8.322a1.12 1.12 0 1 1 1.12 1.12 1.122 1.122 0 0 1 -1.115-1.122zm1.12-4.481a3.365 3.365 0 0 1 -3.355-3.365 3.141 3.141 0 0 1 .039-.479 8.971 8.971 0 0 1 6.643 0 3.141 3.141 0 0 1 .035.479 3.365 3.365 0 0 1 -3.356 3.362zm7.84 8.806a4.463 4.463 0 0 1 0-8.649 8.891 8.891 0 0 1 0 8.649z" fill="url(#a)"/></g><g filter="url(#b)"><path d="m4.5 0v-25.4l-.5-4h23.2q6.05 0 9.075 2.4t3.025 7.5v9.55q0 5.2-3 7.575t-9.1 2.375zm9.75-6.9h11.45q3.85 0 3.9-3.55v-8.65a3.751 3.751 0 0 0 -.85-2.475 3.8 3.8 0 0 0 -3.05-1.025h-11.45z" fill="#efefef" transform="translate(27 117)"/></g><g filter="url(#c)"><path d="m3 0v-22.4h9.1v22.4zm4.58-25.75q-4.174 0-4.174-3.554a3.182 3.182 0 0 1 1.054-2.748 5.291 5.291 0 0 1 3.12-.764 5.347 5.347 0 0 1 3.2.764 3.247 3.247 0 0 1 1.015 2.752q0 3.55-4.215 3.55z" fill="#efefef" transform="translate(74 117)"/></g><g filter="url(#d)"><path d="m4.5-30v25.4l-.5 4h23.2q6.05 0 9.075-2.4t3.025-7.5v-9.55q0-5.2-3-7.575t-9.1-2.375zm9.75 6.9h11.45q3.85 0 3.9 3.55v8.65a3.751 3.751 0 0 1 -.85 2.475 3.8 3.8 0 0 1 -3.05 1.025h-11.45z" fill="#efefef" transform="matrix(-1 0 0 -1 136 87)"/></g><path d="m249.514 18.838a1.015 1.015 0 0 1 -1.014-1.016v-16.806a1.014 1.014 0 1 1 2.027 0v16.806a1.015 1.015 0 0 1 -1.014 1.016z" fill="#816b6b" transform="translate(-168.013 11)"/><path d="m212.351 131.6h9.46a1.353 1.353 0 0 1 1.351 1.354v4.469h-12.162v-4.469a1.353 1.353 0 0 1 1.351-1.354z" fill="#685e68" transform="translate(-135.581 -102.778)"/><path d="m221.811 131.6h-1.18v.6a2.3 2.3 0 0 1 -2.3 2.307h-7.331v2.912h12.162v-4.469a1.353 1.353 0 0 0 -1.351-1.35z" fill="#554e56" transform="translate(-135.581 -102.778)"/><path d="m129.832 193.31a74.6 74.6 0 0 1 -7.6 1.352 43.3 43.3 0 0 0 .82-6.45 72.977 72.977 0 0 0 8.17-1.545c0-.172-.007-.345-.012-.517s-.015-.343-.024-.513c-.005-.081-.009-.163-.015-.244-.008-.1-.015-.2-.024-.306-.012-.157-.027-.313-.043-.469a.932.932 0 0 0 -.17.027 69.762 69.762 0 0 1 -7.824 1.51 43.279 43.279 0 0 0 -.426-6.284c2.4-.314 4.685-.71 6.812-1.184a.933.933 0 0 0 .168-.053c-.062-.16-.126-.32-.192-.478s-.132-.317-.2-.474q-.207-.471-.435-.93c-2.005.439-4.184.811-6.482 1.109a44.024 44.024 0 0 0 -1.478-5.688q1.887-.215 3.761-.493a1 1 0 0 0 .55-.271c-.065-.072-.13-.142-.2-.213l-.2-.209-.2-.207q-.2-.205-.409-.406c-.138-.134-.278-.265-.419-.4-.072-.065-.142-.13-.214-.194q-1.684.238-3.378.424c-.559-1.449-1.151-2.756-1.732-3.911-.258-.131-.52-.256-.784-.375a.089.089 0 0 1 -.026-.012q-.375-.169-.757-.325c-.115-.047-.231-.091-.347-.137l-.107-.043c-.035-.015-.072-.028-.107-.042a1.02 1.02 0 0 0 -.078 1.077 41.484 41.484 0 0 1 1.843 3.979q-2.552.232-5.112.348-.624-3.358-1.514-6.664c-.173-.024-.345-.047-.519-.069l-.261-.03c-.159-.018-.32-.034-.481-.049-.277-.024-.554-.045-.834-.06a1.043 1.043 0 0 0 .032.345q.9 3.271 1.526 6.6-1.4.039-2.8.041-1.277 0-2.557-.026.693-3.3 1.654-6.534a1 1 0 0 0 .03-.442c-.169.007-.339.015-.508.024l-.27.018-.241.018-.182.015-.2.019-.153.015c-.17.018-.342.038-.511.058q-.981 3.342-1.682 6.747-2.68-.106-5.354-.341a41.452 41.452 0 0 1 1.864-4.008 1.019 1.019 0 0 0 -.08-1.078c-.223.084-.445.173-.664.264-.109.046-.218.092-.326.139s-.218.095-.326.144a.09.09 0 0 1 -.026.012c-.263.119-.526.244-.784.375-.587 1.166-1.184 2.486-1.747 3.952q-1.713-.183-3.415-.418c-.213.194-.424.39-.631.592l-.205.2c-.135.135-.27.274-.4.412l-.008.008q-.191.2-.377.406l-.008.01a1.01 1.01 0 0 0 .551.268q1.889.274 3.793.486a44 44 0 0 0 -1.465 5.646c-2.3-.3-4.477-.67-6.482-1.109q-.229.459-.435.93c-.069.157-.136.316-.2.474s-.13.318-.192.478a.93.93 0 0 0 .168.053c2.127.474 4.411.869 6.812 1.184a43.278 43.278 0 0 0 -.426 6.284 69.767 69.767 0 0 1 -7.824-1.51.93.93 0 0 0 -.17-.027c-.016.156-.031.311-.043.469-.009.1-.016.2-.024.306-.005.081-.009.163-.015.244-.009.171-.018.343-.024.513s-.009.345-.012.517a72.978 72.978 0 0 0 8.17 1.545 43.3 43.3 0 0 0 .82 6.45 74.6 74.6 0 0 1 -7.6-1.352 1.014 1.014 0 0 0 -.53.018l.077.268c.031.106.064.21.095.316.05.161.1.321.155.481s.12.349.182.524c.031.087.064.173.1.259s.065.173.1.259a79.621 79.621 0 0 0 7.907 1.334 43.651 43.651 0 0 0 1.808 5.509q-2.627-.339-5.227-.819a1.011 1.011 0 0 0 -.842.226c.218.265.439.525.668.781l.23.255q.233.252.47.5c.08.083.159.164.241.244l.245.24q2.566.437 5.157.739a44.123 44.123 0 0 0 2.143 4.032c.1.042.2.083.3.12l.255.1.172.066q.33.124.666.236c.189.064.38.125.57.183l.286.087a1.016 1.016 0 0 0 -.028-1.04c-.65-1.028-1.331-2.21-2-3.537q1.928.177 3.861.276.511 2.5 1.17 4.965l.3.045c.132.018.265.035.4.05l.332.038.262.026.261.023q.264.02.527.037a1.047 1.047 0 0 0 -.03-.375q-.641-2.346-1.136-4.722 1.267.037 2.532.045h.387q.965 0 1.931-.02-.527 2.389-1.189 4.748a1 1 0 0 0 -.035.344h.024l.218-.011c.123-.007.247-.015.37-.024l.18-.014c.262-.02.524-.045.784-.076h.015c.169-.02.336-.041.5-.064q.683-2.466 1.219-4.965 2.053-.085 4.1-.257c-.658 1.3-1.327 2.462-1.966 3.472a1.016 1.016 0 0 0 -.028 1.04l.287-.087c.191-.058.381-.119.57-.183.236-.079.472-.163.7-.249l.154-.06c.157-.06.312-.12.468-.183l.072-.028s0 0 0 0a44.342 44.342 0 0 0 2.1-3.945q2.532-.274 5.045-.68c.082-.079.165-.157.246-.237l.011-.009.232-.232c.081-.081.161-.162.239-.245l.236-.248c.155-.167.309-.336.459-.506.076-.085.151-.172.226-.259s.147-.173.22-.261a1 1 0 0 0 -.839-.234q-2.554.449-5.135.76a43.558 43.558 0 0 0 1.847-5.6 79.611 79.611 0 0 0 7.907-1.334c.034-.085.066-.172.1-.259s.065-.172.1-.259q.093-.262.182-.524c.053-.16.105-.32.155-.481.031-.1.064-.21.095-.314l.077-.268a1 1 0 0 0 -.516-.034zm-34.27-13.195c2.095.229 4.27.4 6.5.509q-.274 3.161-.314 6.341c-2.272-.12-4.482-.306-6.6-.553a41.231 41.231 0 0 1 .413-6.297zm.563 14.8a41.515 41.515 0 0 1 -.9-6.446c2.1.238 4.287.418 6.528.535q.041 3.193.318 6.373c-2.033-.107-4.023-.263-5.946-.466zm2.478 7.634a41.805 41.805 0 0 1 -1.958-5.549c1.827.181 3.711.32 5.63.412q.308 2.755.8 5.488-2.24-.124-4.475-.355zm3.662-23.948c-2.178-.107-4.312-.274-6.366-.5a41.78 41.78 0 0 1 1.513-5.676q2.842.264 5.7.386-.523 2.876-.847 5.789zm2.892-5.719q1.386.035 2.773.035h.188q1.575 0 3.154-.049.478 2.891.754 5.813c-1.293.042-2.6.064-3.909.064q-1.922 0-3.822-.061.328-2.915.862-5.8zm5.673 30.15q-1.368.035-2.735.03-1.472-.006-2.946-.06-.5-2.736-.824-5.5c1.254.039 2.52.058 3.792.058 1.208 0 2.412-.018 3.6-.053q-.355 2.777-.891 5.526zm1.127-7.565c-1.269.041-2.551.061-3.841.061-1.345 0-2.681-.022-4-.066q-.29-3.175-.331-6.371c1.428.05 2.876.077 4.334.077q2.149 0 4.257-.075-.092 3.192-.419 6.37zm.451-8.406c-1.414.05-2.847.076-4.292.076q-2.191 0-4.339-.079v-.038q.036-3.163.316-6.31 1.986.063 4.023.065 2.064 0 4.077-.066.223 3.141.215 6.3zm6.4-14.667a41.673 41.673 0 0 1 1.526 5.71c-2.027.221-4.131.386-6.28.493q-.274-2.915-.742-5.809 2.751-.13 5.5-.394zm-1.211 30.23q-2.341.226-4.688.333.521-2.751.866-5.53c1.981-.092 3.927-.233 5.812-.42a41.942 41.942 0 0 1 -1.987 5.614zm2.511-7.71c-1.973.209-4.016.367-6.107.47q.318-3.177.4-6.377c2.269-.118 4.48-.3 6.6-.539a41.516 41.516 0 0 1 -.892 6.443zm.973-8.5c-2.132.248-4.358.435-6.646.555q.01-3.179-.215-6.346c2.215-.11 4.373-.279 6.451-.507a41.236 41.236 0 0 1 .411 6.297z" fill="#f1f6f9" transform="translate(-26.617 -130.686)"/><path d="m146.582 181.72c-.587 1.166-1.184 2.486-1.747 3.952q-1.713-.183-3.415-.418a23.064 23.064 0 0 1 5.162-3.534z" fill="#01c0fa" transform="translate(-75.404 -146.11)"/><path d="m144.6 462.671a23.125 23.125 0 0 1 -7.3-4.771q2.566.437 5.157.739a44.124 44.124 0 0 0 2.143 4.032z" fill="#fd544d" transform="translate(-71.841 -384.887)"/><path d="m195.037 469.747a1.016 1.016 0 0 0 -.028-1.04c-.65-1.028-1.331-2.21-2-3.537q1.928.177 3.861.276.511 2.5 1.17 4.965a22.754 22.754 0 0 1 -3-.664z" fill="#fe6c55" transform="translate(-120.022 -391.173)"/><path d="m240.7 472.612a1 1 0 0 0 -.035.344q-.529.024-1.063.024-.971 0-1.923-.08.264.02.527.037a1.047 1.047 0 0 0 -.03-.375q-.641-2.346-1.136-4.722 1.267.037 2.532.045h.386q.965 0 1.931-.02-.526 2.388-1.189 4.747z" fill="#fe7c66" transform="translate(-158.102 -393.481)"/><path d="m282.726 469.122a1.016 1.016 0 0 0 -.028 1.04 22.729 22.729 0 0 1 -3.327.71q.683-2.466 1.219-4.965 2.053-.085 4.1-.257c-.656 1.301-1.325 2.462-1.964 3.472z" fill="#fe8f83" transform="translate(-194.712 -391.588)"/><path d="m327.837 458.97a23.081 23.081 0 0 1 -7.147 4.625 44.341 44.341 0 0 0 2.1-3.945q2.534-.274 5.047-.68z" fill="#ffa799" transform="translate(-230.448 -385.812)"/><path d="m337.491 185.207q-1.684.238-3.378.424c-.559-1.449-1.151-2.756-1.732-3.911a23.033 23.033 0 0 1 5.11 3.487z" fill="#2ed1e2" transform="translate(-240.558 -146.11)"/><path d="m189.246 165.11q-.981 3.342-1.682 6.747-2.68-.106-5.354-.341a41.461 41.461 0 0 1 1.857-4.013 1.019 1.019 0 0 0 -.08-1.078 22.921 22.921 0 0 1 5.259-1.315z" fill="#07b2cd" transform="translate(-110.682 -131.749)"/><path d="m242.424 170.729q-1.4.039-2.8.041-1.277 0-2.557-.026.693-3.3 1.654-6.534a1 1 0 0 0 .03-.442c.291-.012.581-.018.874-.018.415 0 .828.011 1.238.033a1.042 1.042 0 0 0 .032.345q.899 3.272 1.529 6.601z" fill="#2ea741" transform="translate(-158.128 -130.574)"/><path d="m287.286 171.836q-2.552.232-5.112.348-.624-3.358-1.514-6.664a22.774 22.774 0 0 1 4.861 1.261 1.02 1.02 0 0 0 -.078 1.077 41.5 41.5 0 0 1 1.843 3.978z" fill="#02c7dd" transform="translate(-195.827 -132.104)"/><path d="m352.964 396.87a23.014 23.014 0 0 1 -3.78 6.413 1 1 0 0 0 -.839-.234q-2.554.449-5.135.76a43.557 43.557 0 0 0 1.847-5.6 79.6 79.6 0 0 0 7.907-1.339z" fill="#f99675" transform="translate(-249.925 -332.123)"/><path d="m369.456 329.186a23.16 23.16 0 0 1 -.868 6.3 1 1 0 0 0 -.53-.019 74.579 74.579 0 0 1 -7.6 1.352 43.306 43.306 0 0 0 .82-6.45 72.968 72.968 0 0 0 8.17-1.545c0-.172-.007-.345-.012-.517.015.293.02.585.02.879z" fill="#fec165" transform="translate(-264.844 -272.847)"/><path d="m372.22 278.8a.929.929 0 0 0 -.17.027 69.764 69.764 0 0 1 -7.824 1.51 43.264 43.264 0 0 0 -.426-6.284c2.4-.314 4.685-.71 6.812-1.184a.931.931 0 0 0 .168-.053 22.777 22.777 0 0 1 .786 2.408 23.127 23.127 0 0 1 .654 3.576z" fill="#fef48b" transform="translate(-267.733 -224.872)"/><path d="m358.371 224.813c-2.005.439-4.184.811-6.482 1.109a44.029 44.029 0 0 0 -1.478-5.688q1.887-.215 3.761-.493a1 1 0 0 0 .55-.271 23.142 23.142 0 0 1 3.649 5.343z" fill="#57be92" transform="translate(-256.152 -178.748)"/><path d="m110.627 220.6a44 44 0 0 0 -1.465 5.646c-2.3-.3-4.477-.67-6.482-1.109a23.12 23.12 0 0 1 3.6-5.291 1.011 1.011 0 0 0 .551.268q1.892.278 3.796.486z" fill="#46cc8d" transform="translate(-41.899 -179.076)"/><path d="m94.31 274.056a43.279 43.279 0 0 0 -.426 6.284 69.753 69.753 0 0 1 -7.824-1.51.934.934 0 0 0 -.17-.027 22.97 22.97 0 0 1 1.441-5.983.927.927 0 0 0 .168.053c2.126.474 4.41.869 6.811 1.183z" fill="#fee903" transform="translate(-27.378 -224.872)"/><path d="m93.966 336.823a74.579 74.579 0 0 1 -7.6-1.352 1.014 1.014 0 0 0 -.53.018 23.2 23.2 0 0 1 -.868-6.3c0-.294.005-.585.018-.876-.005.172-.009.345-.012.517a72.964 72.964 0 0 0 8.17 1.545 43.3 43.3 0 0 0 .822 6.448z" fill="#f68157" transform="translate(-26.582 -272.847)"/><path d="m106.325 403.713q-2.627-.339-5.227-.819a1.01 1.01 0 0 0 -.842.226 23.107 23.107 0 0 1 -3.646-6.25 79.6 79.6 0 0 0 7.907 1.334 43.645 43.645 0 0 0 1.808 5.509z" fill="#fd5426" transform="translate(-36.649 -332.123)"/><path d="m301.472 232.43c-2.027.221-4.131.386-6.28.493q-.274-2.915-.742-5.809 2.751-.13 5.5-.394a41.668 41.668 0 0 1 1.522 5.71z" fill="#22b37f" transform="translate(-207.754 -185.016)"/><path d="m177.536 414.369q-2.236-.128-4.468-.359a41.8 41.8 0 0 1 -1.958-5.54c1.827.181 3.711.32 5.63.412q.308 2.754.796 5.487z" fill="#db5a42" transform="translate(-101.082 -342.152)"/><path d="m167.456 352.318c-2.034-.1-4.024-.259-5.947-.462a41.517 41.517 0 0 1 -.9-6.446c2.1.238 4.287.418 6.528.535q.042 3.193.319 6.373z" fill="#ffa799" transform="translate(-92 -287.632)"/><path d="m166.956 284.269q-.274 3.161-.314 6.341c-2.272-.121-4.482-.306-6.6-.552a41.233 41.233 0 0 1 .409-6.3c2.095.231 4.271.401 6.505.511z" fill="#fef6ad" transform="translate(-91.507 -234.331)"/><path d="m172.8 227.356q-.521 2.876-.845 5.787c-2.178-.107-4.312-.274-6.366-.5a41.778 41.778 0 0 1 1.514-5.676q2.843.267 5.697.389z" fill="#6ed5a1" transform="translate(-96.308 -185.232)"/><path d="m235.451 236.033c-1.293.042-2.6.064-3.909.064q-1.922 0-3.822-.061.328-2.915.862-5.8 1.386.035 2.773.035h.188q1.575 0 3.154-.049.478 2.889.754 5.811z" fill="#7acaa6" transform="translate(-150.042 -188.042)"/><path d="m232.521 294.416v.056c-1.414.05-2.847.076-4.292.076q-2.191 0-4.339-.079v-.038q.037-3.163.316-6.31 1.986.063 4.023.065 2.064 0 4.077-.066.223 3.141.215 6.296z" fill="#fdb441" transform="translate(-146.729 -238.1)"/><path d="m235.336 412.115q-.355 2.777-.891 5.526-1.368.035-2.735.03-1.472-.006-2.946-.06-.5-2.736-.824-5.5c1.254.039 2.52.058 3.792.058 1.208-.001 2.412-.018 3.604-.054z" fill="#fe8f83" transform="translate(-150.232 -345.298)"/><path d="m232.52 350.013q-.089 3.2-.416 6.373c-1.269.041-2.551.061-3.841.061-1.345 0-2.681-.022-4-.066q-.29-3.175-.331-6.371c1.428.05 2.876.077 4.334.077q2.146 0 4.254-.074z" fill="#f99675" transform="translate(-146.764 -291.609)"/><path d="m298.148 408.47a41.943 41.943 0 0 1 -1.991 5.616q-2.341.226-4.688.333.521-2.75.866-5.53c1.982-.089 3.928-.232 5.813-.419z" fill="#fd4755" transform="translate(-205.177 -342.151)"/><path d="m306.555 345.41a41.512 41.512 0 0 1 -.9 6.446c-1.973.209-4.016.367-6.107.47q.318-3.177.4-6.377c2.272-.118 4.483-.298 6.607-.539z" fill="#fea95c" transform="translate(-212.165 -287.632)"/><path d="m92.965 103.085c-2.132.248-4.358.435-6.646.555q.01-3.179-.215-6.346c2.215-.11 4.373-.279 6.451-.507a41.232 41.232 0 0 1 .41 6.298zm14.535-30.8a7.752 7.752 0 0 0 -4.77 4.781 7.745 7.745 0 0 0 -1.33-2.386c-.158-.194-.327-.381-.5-.558a7.745 7.745 0 0 0 -2.932-1.842 7.745 7.745 0 0 0 4.77-4.781 7.776 7.776 0 0 0 1.478 2.553c.115.133.235.261.359.386a7.745 7.745 0 0 0 2.925 1.843zm-45.459 8.121a7.753 7.753 0 0 0 -4.77 4.781 7.753 7.753 0 0 0 -4.77-4.781 7.753 7.753 0 0 0 4.77-4.781 7.753 7.753 0 0 0 4.77 4.781z" fill="#fed402" transform="translate(1.5 -47.359)"/><path d="m129.494 88.578a7.752 7.752 0 0 0 -4.77 4.781 7.745 7.745 0 0 0 -1.334-2.381 7.875 7.875 0 0 0 2.573-3.686 7.526 7.526 0 0 0 .239-.941c.115.133.235.261.359.386a7.745 7.745 0 0 0 2.932 1.842zm-45.459 8.122a7.752 7.752 0 0 0 -4.77 4.781 7.745 7.745 0 0 0 -1.334-2.381 7.875 7.875 0 0 0 2.569-3.683 7.522 7.522 0 0 0 .239-.941c.115.133.235.261.359.386a7.745 7.745 0 0 0 2.937 1.838z" fill="#fac600" transform="translate(-20.494 -63.656)"/></svg>