<svg height="512" width="512" xmlns="http://www.w3.org/2000/svg"><g transform="matrix(1.3960467 0 0 1.3960467 -101.38795 -854.97041)"><path d="m606-808.63782c0 20.43454-97.60192 37-218 37s-218-16.56546-218-37c0-20.43453 97.60192-37 218-37s218 16.56547 218 37z" fill="#494949" transform="matrix(.7885964 0 0 .83050249 -49.975404 1456.232)"/><rect fill="#494949" height="141.95558" opacity=".98" rx="83.543571" ry="24.454451" width="167.08714" x="172.45642" y="640.30249"/><path d="m338.58175 735.23457c.0789.10032.14808.21069.21634.31143v-.31143zm-165.98091 3.14037.69721 46.71577c-.55453.71216-.84138 1.43984-.84138 2.18007 0 8.44986 37.37709 15.31239 83.49523 15.31239 46.11822 0 83.49531-6.86253 83.49531-15.31239 0-.5444-.15414-1.07941-.45677-1.6091h.55295l-.69721-46.40433c-4.92297 7.58963-40.14624 13.49567-82.89428 13.49567-44.39534 0-80.70059-6.36597-83.35106-14.37808z" fill="#dd6858"/><path d="m24-36.332c7.667-10.001 18.042676-8.683523 18.042676-8.683523 14.667-.333 18.082324 10.224523 18.082324 10.224523 2.625 8.5-3.875 11-3.875 11-4.875 1.875-6.875-2.5-6.875-2.5 4 1.25 3.792-2.542 3.792-2.542.083-3.208-3.167-3.5-3.167-3.5-6.75-.833-7.666 7-7.666 7-.333 2.333-.959 9.167-.959 9.167-.875 7.375-4.125 14.125-4.125 14.125-13.375 27.875-37.75 16.375-37.75 16.375h-.917s-24.375 11.5-37.75-16.375c0 0-3.25-6.75-4.125-14.125 0 0-.626-6.834-.959-9.167 0 0-.916-7.833-7.666-7 0 0-3.25.292-3.167 3.5 0 0-.208 3.792 3.792 2.542 0 0-2 4.375-6.875 2.5 0 0-6.5-2.5-3.875-11 0 0 3.624-10.558523 18.291-10.224523 0 0 10.167-1.316477 17.834 8.683523 30.3306067 41.9156395 24.5170957 36.68094083 49.917 0z" fill="#484c4b" transform="matrix(1.4187427 0 0 -1.4187427 258.65695 887.3457)"/></g></svg>