<svg xmlns="http://www.w3.org/2000/svg" width="30" height="30" viewBox="0 0 30 30"><path d="M26.25,1.875H3.75A1.875,1.875,0,0,0,1.875,3.75v22.5A1.875,1.875,0,0,0,3.75,28.125h22.5a1.875,1.875,0,0,0,1.875-1.875V3.75A1.875,1.875,0,0,0,26.25,1.875ZM3.75,0A3.75,3.75,0,0,0,0,3.75v22.5A3.75,3.75,0,0,0,3.75,30h22.5A3.75,3.75,0,0,0,30,26.25V3.75A3.75,3.75,0,0,0,26.25,0Z" fill="#efefef" fill-rule="evenodd"/><path d="M11.5,25.875a1.024,1.024,0,0,1,.875-1.125h5.25a1.161,1.161,0,0,1,0,2.25h-5.25A1.024,1.024,0,0,1,11.5,25.875ZM8,19.125A1.024,1.024,0,0,1,8.875,18h12.25A1.024,1.024,0,0,1,22,19.125a1.024,1.024,0,0,1-.875,1.125H8.875A1.024,1.024,0,0,1,8,19.125Zm-3.5-6.75a1.024,1.024,0,0,1,.875-1.125h19.25a1.024,1.024,0,0,1,.875,1.125,1.024,1.024,0,0,1-.875,1.125H5.375A1.024,1.024,0,0,1,4.5,12.375Z" transform="translate(0 -3.333)" fill="#efefef" fill-rule="evenodd"/></svg>