<?xml version="1.0" encoding="iso-8859-1"?>
<!-- Generator: Adobe Illustrator 19.0.0, SVG Export Plug-In . SVG Version: 6.00 Build 0)  -->
<svg version="1.1" id="Capa_1" xmlns="http://www.w3.org/2000/svg" xmlns:xlink="http://www.w3.org/1999/xlink" x="0px" y="0px"
	 viewBox="0 0 511.996 511.996" style="enable-background:new 0 0 511.996 511.996;" xml:space="preserve">
<path style="fill:#546E7A;" d="M437.331,0h-256c-29.455,0-53.333,23.878-53.333,53.333L128.19,192h39.893l-9.365-9.365
	c-12.501-12.495-12.506-32.758-0.011-45.259c12.495-12.501,32.758-12.506,45.259-0.011l64,64
	c12.501,12.493,12.507,32.754,0.014,45.255c-0.005,0.005-0.01,0.01-0.014,0.015l-64,64c-12.278,12.712-32.536,13.064-45.248,0.786
	c-12.712-12.278-13.064-32.536-0.786-45.248c0.257-0.267,0.52-0.529,0.786-0.786l9.365-9.387h-39.808l0.213,156.373
	c-0.003,5.702,2.426,11.134,6.677,14.933c12.011,12.781,28.632,20.231,46.165,20.693h256c5.891,0,10.667-4.776,10.667-10.667V10.667
	C447.998,4.776,443.222,0,437.331,0z"/>
<path style="fill:#607D8B;" d="M444.606,0c-6.243-0.009-12.422,1.262-18.155,3.733L305.256,55.659
	c-16.951,7.247-27.94,23.912-27.925,42.347v367.936c0.002,25.438,20.626,46.057,46.063,46.054c6.24-0.001,12.415-1.269,18.15-3.729
	L462.76,456.32c16.935-7.251,27.913-23.903,27.904-42.325V46.059C490.629,20.636,470.029,0.035,444.606,0z"/>
<path style="fill:#455A64;" d="M330.664,298.667c-5.891,0-10.667-4.776-10.667-10.667v-42.667c0-5.891,4.776-10.667,10.667-10.667
	c5.891,0,10.667,4.776,10.667,10.667V288C341.331,293.891,336.556,298.667,330.664,298.667z"/>
<path style="fill:#FFC107;" d="M255.187,228.075c1.649-3.989,0.731-8.579-2.325-11.627l-64-64
	c-4.237-4.092-10.99-3.975-15.083,0.262c-3.992,4.134-3.992,10.687,0,14.82l45.803,45.803H31.998
	c-5.891,0-10.667,4.776-10.667,10.667c0,5.891,4.776,10.667,10.667,10.667h187.584l-45.803,45.781
	c-4.237,4.092-4.355,10.845-0.262,15.083s10.845,4.355,15.083,0.262c0.089-0.086,0.176-0.173,0.262-0.262l64-64
	C253.857,230.543,254.647,229.368,255.187,228.075z"/>
<g>
</g>
<g>
</g>
<g>
</g>
<g>
</g>
<g>
</g>
<g>
</g>
<g>
</g>
<g>
</g>
<g>
</g>
<g>
</g>
<g>
</g>
<g>
</g>
<g>
</g>
<g>
</g>
<g>
</g>
</svg>
