<svg height="512" viewBox="0 0 512 512" width="512" xmlns="http://www.w3.org/2000/svg"><path d="m363.51 94.449-3.51 17.551-38.93 19.465-33.07-59.465z" fill="#f6bb92"/><path d="m306.674 115.556a8 8 0 0 1 -4.445-14.657l37.547-25.031a8 8 0 1 1 8.875 13.312l-37.551 25.031a7.954 7.954 0 0 1 -4.426 1.345z" fill="#eaeae8"/><path d="m208 152h42.806a70.009 70.009 0 0 0 38.829-11.756l28.279-24.688-29.914-43.556h-.057a226.007 226.007 0 0 0 -47.354 5.017l-35.189 7.541a128.947 128.947 0 0 0 -53.4 25.281z" fill="#0276b4"/><path d="m392 224h-46.899l-17.101-8 16-24z" fill="#a8a8a8"/><path d="m299 152 21 32 40 40h56l-8-32h-24l-24-24-24-32.727z" fill="#f6bb92"/><path d="m204.957 376a87.141 87.141 0 0 0 -.843-11.956l8.711-8.579-5.934-18.265-12.071-1.818a86.616 86.616 0 0 0 -14.076-19.333l2.007-12.076-15.534-11.285-10.827 5.62a85.784 85.784 0 0 0 -22.765-7.375l-5.468-10.933h-19.2l-5.469 10.937a85.8 85.8 0 0 0 -22.765 7.375l-10.823-5.62-15.537 11.285 2.006 12.076a86.647 86.647 0 0 0 -14.076 19.333l-12.071 1.814-5.933 18.261 8.711 8.583a85.306 85.306 0 0 0 0 23.912l-8.71 8.579 5.932 18.265 12.071 1.818a86.647 86.647 0 0 0 14.076 19.333l-2.006 12.076 15.537 11.281 10.827-5.62a85.8 85.8 0 0 0 22.765 7.375l5.465 10.937h19.2l5.468-10.937a85.784 85.784 0 0 0 22.765-7.375l10.827 5.62 15.534-11.285-2.007-12.076a86.616 86.616 0 0 0 14.076-19.333l12.071-1.818 5.934-18.261-8.711-8.579a87.141 87.141 0 0 0 .843-11.956zm-86.4 56a56 56 0 1 1 56-56 56 56 0 0 1 -56 56z" fill="#656666"/><path d="m480.132 376a86.984 86.984 0 0 0 -.843-11.956l8.711-8.579-5.933-18.265-12.067-1.814a86.62 86.62 0 0 0 -14.077-19.333l2.007-12.076-15.533-11.285-10.827 5.62a85.8 85.8 0 0 0 -22.766-7.375l-5.472-10.937h-19.2l-5.468 10.937a85.8 85.8 0 0 0 -22.766 7.375l-10.827-5.62-15.533 11.285 2.007 12.076a86.62 86.62 0 0 0 -14.077 19.333l-12.068 1.814-5.933 18.261 8.711 8.579a85.206 85.206 0 0 0 0 23.912l-8.711 8.579 5.933 18.269 12.071 1.818a86.62 86.62 0 0 0 14.077 19.333l-2.007 12.076 15.533 11.285 10.827-5.62a85.8 85.8 0 0 0 22.766 7.375l5.465 10.933h19.2l5.468-10.937a85.8 85.8 0 0 0 22.766-7.375l10.827 5.62 15.533-11.285-2.007-12.076a86.62 86.62 0 0 0 14.081-19.333l12.071-1.818 5.929-18.261-8.711-8.579a86.984 86.984 0 0 0 .843-11.956zm-86.4 56a56 56 0 1 1 56-56 56 56 0 0 1 -56 56z" fill="#656666"/><g fill="#e82f3e"><path d="m278.872 384h-134.872a8 8 0 0 1 0-16h134.872a8 8 0 1 1 0 16z"/><path d="m136 376a8 8 0 0 1 -5.354-13.946l82.739-75.265-67.413-96.3a8 8 0 0 1 13.108-9.176l71.472 102.1a8 8 0 0 1 -1.2 10.534l-88 80a7.973 7.973 0 0 1 -5.352 2.053z"/><path d="m260 280h84l-13-32h-67z"/></g><path d="m152 109.839a128.954 128.954 0 0 0 -24.595 25.96 32.737 32.737 0 0 0 -5.545 13.44 33.244 33.244 0 0 0 3.024 20.53 74.567 74.567 0 0 0 33.347 33.346l73.769 36.885-8.621 25.864a69.994 69.994 0 0 0 0 44.272l8.621 25.864h24l14.694-110.2a20 20 0 0 0 -5.683-16.786l-57.011-57.014z" fill="#0a9acd"/><path d="m319.137 233.445 64.863 158.555 32-8-66.647-162.916a16.324 16.324 0 0 0 -19.067-9.655 16.322 16.322 0 0 0 -11.149 22.016z" fill="#a8a8a8"/><circle cx="395.175" cy="376" fill="#cbcbcb" r="24"/><circle cx="395.175" cy="376" fill="#656666" r="11"/><path d="m232 336-8 40 72 10 5.072-21.555a14 14 0 0 0 -9.2-16.488l-35.872-11.957z" fill="#cbcbcb"/><circle cx="120" cy="376" fill="#cbcbcb" r="24"/><circle cx="120" cy="376" fill="#656666" r="11"/><g fill="#0a9acd"><path d="m336 135.273-27.947-33.028a19.789 19.789 0 0 0 -26.981-3.045 19.791 19.791 0 0 0 -3.02 28.864l20.948 23.936z"/><path d="m288 72 84.087 25-.055-13.123a41.272 41.272 0 0 0 -13.165-30.05 41.274 41.274 0 0 0 -34.893-10.488l-3.031.505a42 42 0 0 0 -32.943 28.146z"/></g></svg>