<svg xmlns="http://www.w3.org/2000/svg" data-name="Layer 1" viewBox="0 0 512 512"><path fill="#7a6d79" d="M256,139.10059a7.49944,7.49944,0,0,1-7.5-7.5V7.5a7.5,7.5,0,0,1,15,0V131.60059A7.49944,7.49944,0,0,1,256,139.10059Z"/><path fill="#685e68" d="M221,131.60046h70a10,10,0,0,1,10,10v33a0,0,0,0,1,0,0H211a0,0,0,0,1,0,0v-33A10,10,0,0,1,221,131.60046Z"/><path fill="#554e56" d="M291,131.60059h-8.73145v4.46377a17.03622,17.03622,0,0,1-17.03622,17.03623H211v21.5h90v-33A10,10,0,0,0,291,131.60059Z"/><path fill="#f1f6f9" d="M416.68994,381.18994a553.04659,553.04659,0,0,1-56.23,9.98A319.07575,319.07575,0,0,0,366.53,343.54a540.9945,540.9945,0,0,0,60.46-11.41016c-.02-1.27-.05-2.5498-.09009-3.81982-.0498-1.26-.10986-2.53-.17993-3.79-.04-.6001-.07007-1.2-.11011-1.8-.05981-.75-.10986-1.51-.17993-2.26-.08984-1.15991-.2-2.31006-.32007-3.46a6.87152,6.87152,0,0,0-1.25976.2A517.231,517.231,0,0,1,366.95,328.3501a318.89283,318.89283,0,0,0-3.1499-46.40015c17.77-2.32007,34.66992-5.24,50.40991-8.74a6.894,6.894,0,0,0,1.24-.38989c-.46-1.17993-.92993-2.36011-1.41992-3.53-.48-1.16992-.98-2.34009-1.49-3.5q-1.53-3.4801-3.22-6.87012c-14.84009,3.24-30.96021,5.99-47.97,8.18994a324.53418,324.53418,0,0,0-10.94019-42Q364.375,223.52015,378.24,221.47a7.41108,7.41108,0,0,0,4.07007-2c-.48-.53-.96-1.05-1.4502-1.57007-.48-.50976-.96972-1.02978-1.46-1.54-.5-.52-.99-1.02-1.49-1.52978q-1.5-1.515-3.03-3c-1.02-.99024-2.05981-1.96-3.09985-2.93018-.53-.48-1.05-.96-1.58008-1.42993q-12.46472,1.75526-25,3.13013c-4.13989-10.7002-8.52-20.3501-12.82007-28.88013-1.90991-.97-3.84985-1.88989-5.7998-2.77a.65936.65936,0,0,1-.18994-.09009q-2.77515-1.24474-5.6001-2.3999c-.8501-.3501-1.71-.66992-2.57007-1.01-.26-.11011-.53-.21-.79-.32007-.26-.10986-.53-.21-.78979-.30981a.00988.00988,0,0,1-.01026.01,7.51532,7.51532,0,0,0-.57983,7.95,306.03289,306.03289,0,0,1,13.63989,29.37988q-18.88476,1.71021-37.83008,2.57007-4.61975-24.795-11.2-49.21c-1.28-.18018-2.55-.3501-3.83984-.51-.64014-.08008-1.28-.15015-1.92993-.22-1.18018-.13013-2.37012-.25-3.56006-.36011-2.05-.17993-4.1001-.32983-6.17017-.43994a7.68136,7.68136,0,0,0,.24,2.55q6.63025,24.15015,11.29,48.74-10.36486.28491-20.69995.3-9.45007.03-18.91992-.18994,5.12988-24.33033,12.24-48.25a7.40042,7.40042,0,0,0,.22-3.26026c-1.25.05-2.51.11011-3.76.18018-.66016.04-1.33008.08008-2,.12988-.59009.04-1.18994.08008-1.78.13013-.45.03979-.8999.07007-1.34985.10986-.48023.04-.97022.09009-1.4502.14014-.37988.03-.76.07007-1.12988.10986-1.26.13013-2.53.28-3.78.42993q-7.26013,24.6753-12.45,49.82007-19.83033-.78-39.62012-2.52A305.77859,305.77859,0,0,1,195.95,182.78a7.51236,7.51236,0,0,0-.59009-7.96c-1.6499.61987-3.28979,1.28-4.90991,1.95h-.02c-.80981.33984-1.60986.67993-2.40991,1.03-.81006.34985-1.61011.7-2.41016,1.05981a.65936.65936,0,0,1-.18994.09009c-1.95.88013-3.88989,1.8-5.7998,2.77-4.34009,8.61011-8.76026,18.36011-12.93018,29.17993q-12.67493-1.34985-25.27-3.08984c-1.57983,1.42993-3.13989,2.87988-4.66992,4.36987-.51.5-1.01,1-1.52,1.5-1,1-2,2.02-2.98,3.04l-.06006.06006q-1.40991,1.485-2.79,3c-.02.02-.04.05-.05981.07007a7.48334,7.48334,0,0,0,4.07983,1.98Q147.4,223.85486,161.49,225.41992a324.35123,324.35123,0,0,0-10.84009,41.68994c-17.00976-2.2-33.12988-4.95-47.97-8.18994q-1.69482,3.39-3.22,6.87012c-.51,1.15991-1.01,2.33008-1.49,3.5-.49,1.16992-.96,2.3501-1.41992,3.53a6.894,6.894,0,0,0,1.24.38989c15.74,3.5,32.63989,6.41992,50.40991,8.74a318.89283,318.89283,0,0,0-3.1499,46.40015A517.231,517.231,0,0,1,87.1499,317.2a6.87152,6.87152,0,0,0-1.25976-.2c-.12012,1.1499-.23023,2.3-.32007,3.46-.07007.75-.12012,1.51-.17993,2.26-.04.6001-.07007,1.2-.11011,1.8-.07007,1.26-.13013,2.53-.17993,3.79-.04,1.27-.07007,2.5498-.09009,3.81982A540.9945,540.9945,0,0,0,145.47,343.54,319.07575,319.07575,0,0,0,151.54,391.16992a553.04659,553.04659,0,0,1-56.23-9.98,7.52084,7.52084,0,0,0-3.91992.13013q.28491.98987.56982,1.98c.23.78.47,1.55.7,2.32983.37012,1.19019.76,2.37012,1.15015,3.55q.65991,1.93506,1.34985,3.87012c.23023.63989.47,1.28.71021,1.90991.23974.64014.48,1.28.73,1.91016h.00976A590.24108,590.24108,0,0,0,155.12012,406.72,321.81352,321.81352,0,0,0,168.5,447.3999q-19.43994-2.50488-38.67993-6.0498a7.48912,7.48912,0,0,0-6.23,1.66992c1.60986,1.96,3.25,3.87988,4.93994,5.77.57007.62988,1.13989,1.26,1.7,1.87988q1.72485,1.86,3.48,3.66016c.59009.60986,1.18018,1.21,1.78,1.7998.6001.59009,1.2,1.18018,1.81006,1.77q18.98987,3.22523,38.15991,5.46a325.55312,325.55312,0,0,0,15.86011,29.77.01.01,0,0,1,.01.01026c.74.30981,1.49.60986,2.24.88989.62988.24,1.25.48,1.88989.72.41992.15991.8501.33008,1.27.49q2.44482.91517,4.92993,1.74c1.40015.47,2.81006.91992,4.22,1.3501.71021.22,1.41016.42993,2.12012.63989h.01a7.48875,7.48875,0,0,0-.21-7.67993C202.99,483.7,197.95,474.97,193.01,465.16992q14.265,1.30518,28.57007,2.04,3.78,18.43506,8.65991,36.66016,1.125.16479,2.25.32983c.98.13013,1.96.26,2.95.37012.82007.09985,1.64014.18994,2.46.28.65015.05981,1.29.12988,1.94019.18994.63989.06006,1.28979.10986,1.92993.16992q1.95007.15015,3.8999.27a7.70721,7.70721,0,0,0-.22-2.77q-4.73987-17.32507-8.40991-34.87012,9.375.27027,18.74.33008h2.86011q7.13964,0,14.28979-.1499-3.89977,17.64-8.8,35.06006a7.36535,7.36535,0,0,0-.25976,2.54c.05981,0,.11987-.01026.17993-.01026.54-.02,1.07007-.0498,1.60986-.07983.91016-.05,1.83008-.11011,2.74-.17993.44019-.03.89014-.06006,1.33008-.1001,1.93994-.1499,3.87988-.33008,5.8-.56006a.4479.4479,0,0,1,.11011-.01c1.25-.1499,2.48974-.3,3.73-.47q5.0548-18.20984,9.02-36.65991Q303.585,466.9198,318.75,465.6499c-4.87012,9.61011-9.82007,18.18018-14.55,25.64014a7.48875,7.48875,0,0,0-.21,7.67993H304c.71-.21,1.40991-.41992,2.12012-.63989,1.40991-.43018,2.81982-.88013,4.22-1.3501,1.75-.58008,3.49-1.2,5.21-1.83984.37988-.15015.76-.29,1.13989-.44019,1.16016-.43994,2.31006-.88989,3.46-1.34985.18018-.07007.3501-.14014.53-.21,0-.01026.01-.01026.01-.02A327.169,327.169,0,0,0,336.25,463.99q18.735-2.02478,37.33008-5.02c.60986-.57983,1.22-1.15991,1.81982-1.75a.4375.4375,0,0,1,.08008-.07007c.58008-.57983,1.1499-1.13989,1.72-1.71.6001-.6001,1.19019-1.2,1.77-1.81006.59009-.60986,1.17017-1.22,1.75-1.82983,1.15015-1.23,2.29-2.48,3.40015-3.74.55981-.63013,1.11987-1.27,1.66992-1.91016.55-.63989,1.08984-1.27978,1.62988-1.92993a7.42671,7.42671,0,0,0-6.21-1.73q-18.90015,3.31494-38,5.61011A321.11957,321.11957,0,0,0,356.87988,406.72a590.24108,590.24108,0,0,0,58.51026-9.84985h.00976c.25-.63013.49024-1.27.73-1.91016.24024-.62988.48-1.27.71021-1.90991q.68994-1.93506,1.34985-3.87012c.39014-1.17993.78-2.35986,1.15015-3.55.23-.77.47-1.5498.7-2.31982q.28491-.99024.56982-1.98A7.41652,7.41652,0,0,0,416.68994,381.18994ZM163.09009,283.76c15.5,1.68994,31.59985,2.95,48.12988,3.76q-2.02478,23.34009-2.32007,46.81982C192.09009,333.45,175.73,332.08008,160.06006,330.26A303.81043,303.81043,0,0,1,163.09009,283.76ZM167.26,393.01a305.92376,305.92376,0,0,1-6.65015-47.6001c15.55005,1.76,31.72022,3.09009,48.31006,3.95q.3003,23.58033,2.3501,47.06006C196.22,395.65991,181.49,394.51,167.26,393.01Zm18.34009,56.36987A308.22605,308.22605,0,0,1,171.10986,408.47c13.52,1.34009,27.46021,2.36011,41.66016,3.04q2.28,20.34009,5.88989,40.52Q202.11487,451.08484,185.6001,449.37988ZM212.7,272.55005c-16.11987-.79-31.90991-2.02-47.10986-3.67017A307.97671,307.97671,0,0,1,176.79,226.97q21.03,1.95007,42.15991,2.8501Q215.09485,251.05994,212.7,272.55005Zm21.40015-42.23q10.25976.25488,20.52.26H256.01q11.655-.015,23.34009-.36011,3.53979,21.345,5.57983,42.92017c-9.57007.30981-19.23.46972-28.92993.46972q-14.22,0-28.28-.45Q230.15015,251.63514,234.1001,230.32007Zm41.98,222.62988q-10.125.25525-20.24.22-10.89-.04467-21.8-.43994-3.735-20.205-6.1001-40.62012c9.28.29,18.65015.43018,28.06006.43018,8.93994,0,17.8501-.13013,26.66992-.39014Q280.04492,432.65516,276.08008,452.95Zm8.33984-55.86011C275.03,397.39014,265.54,397.54,256,397.54c-9.95,0-19.84009-.16016-29.62012-.49q-2.1449-23.4452-2.45-47.04c10.57007.36987,21.28.57007,32.07007.57007q15.90015,0,31.5-.55Q286.84009,373.625,284.41992,397.08984ZM287.76,335.02c-10.46.37012-21.07007.56006-31.76.56006q-16.21509,0-32.10986-.58008v-.28q.26989-23.3551,2.33984-46.59009,14.70007.46509,29.77.48,15.2699,0,30.16992-.48974,1.65015,23.18994,1.59009,46.48974Zm47.36011-108.3a307.15718,307.15718,0,0,1,11.28979,42.15991c-15,1.63013-30.56982,2.8501-46.47,3.64014q-2.02477-21.52515-5.49-42.89014Q314.80506,228.67,335.12012,226.72Zm-8.96021,223.22q-17.32508,1.66517-34.68994,2.46,3.8551-20.31006,6.40991-40.82983c14.66016-.67993,29.06006-1.72,43.01026-3.1001A309.24472,309.24472,0,0,1,326.15991,449.93994ZM344.74,393.01c-14.59985,1.54-29.72,2.71-45.18994,3.47q2.3551-23.46021,2.97-47.08984c16.79-.87012,33.1499-2.2002,48.87012-3.98023A305.92376,305.92376,0,0,1,344.74,393.01Zm7.2-62.75c-15.78,1.82983-32.25,3.21-49.17993,4.09985q.07508-23.47485-1.59009-46.85986c16.39014-.81006,32.36011-2.06006,47.74-3.74A303.81043,303.81043,0,0,1,351.93994,330.26Z"/><path fill="#01c0fa" d="M179.62012,181.72c-4.34009,8.61011-8.76026,18.36011-12.93018,29.17993q-12.67493-1.34985-25.27-3.08984A170.69064,170.69064,0,0,1,179.62012,181.72Z"/><path fill="#fd544d" d="M191.32007,493.12988a171.15816,171.15816,0,0,1-54.02-35.23q18.98987,3.22523,38.15991,5.46A325.55312,325.55312,0,0,0,191.32007,493.12988Z"/><path fill="#fe6c55" d="M208.01,498.97a7.48875,7.48875,0,0,0-.21-7.67993C202.99,483.7,197.95,474.97,193.01,465.16992q14.265,1.30518,28.57007,2.04,3.78,18.43506,8.65991,36.66016A168.74475,168.74475,0,0,1,208.01,498.97Z"/><path fill="#fe7c66" d="M264.12988,503.08008a7.36535,7.36535,0,0,0-.25976,2.54q-3.91516.1798-7.87012.17993-7.18506,0-14.23-.59009,1.95007.15015,3.8999.27a7.70721,7.70721,0,0,0-.22-2.77q-4.73987-17.32507-8.40991-34.87012,9.375.27027,18.74.33008h2.86011q7.13964,0,14.28979-.1499Q269.03016,485.66,264.12988,503.08008Z"/><path fill="#fe8f83" d="M304.2,491.29a7.48875,7.48875,0,0,0-.21,7.67993,168.42246,168.42246,0,0,1-24.61987,5.24q5.0548-18.20984,9.02-36.65991Q303.585,466.9198,318.75,465.6499C313.87988,475.26,308.92993,483.83008,304.2,491.29Z"/><path fill="#ffa799" d="M373.58008,458.97a170.83,170.83,0,0,1-52.89014,34.15015A327.169,327.169,0,0,0,336.25,463.99Q354.985,461.96521,373.58008,458.97Z"/><path fill="#2ed1e2" d="M370.2,207.47q-12.46472,1.75526-25,3.13013c-4.13989-10.7002-8.52-20.3501-12.82007-28.88013A170.47387,170.47387,0,0,1,370.2,207.47Z"/><path fill="#07b2cd" d="M234.28,165.10986q-7.26013,24.6753-12.45,49.82007-19.83033-.78-39.62012-2.52A305.77859,305.77859,0,0,1,195.95,182.78a7.51236,7.51236,0,0,0-.59009-7.96A169.92675,169.92675,0,0,1,234.28,165.10986Z"/><path fill="#03bed7" d="M276.68994,215.28q-10.36486.28491-20.69995.3-9.45007.03-18.91992-.18994,5.12988-24.33033,12.24-48.25a7.40042,7.40042,0,0,0,.22-3.26026c2.1499-.08984,4.3-.12988,6.47-.12988,3.07007,0,6.12988.08008,9.15991.24a7.68136,7.68136,0,0,0,.24,2.55Q272.03015,190.69019,276.68994,215.28Z"/><path fill="#02c7dd" d="M329.68994,212.15991q-18.88476,1.71021-37.83008,2.57007-4.61975-24.795-11.2-49.21a168.81656,168.81656,0,0,1,35.97,9.31006,7.51532,7.51532,0,0,0-.57983,7.95A306.03289,306.03289,0,0,1,329.68994,212.15991Z"/><path fill="#f99675" d="M415.39014,396.87012A169.85457,169.85457,0,0,1,387.41992,444.22a7.42671,7.42671,0,0,0-6.21-1.73q-18.90015,3.31494-38,5.61011A321.11957,321.11957,0,0,0,356.87988,406.72,590.24108,590.24108,0,0,0,415.39014,396.87012Z"/><path fill="#fec165" d="M427.03,334.78a170.67366,170.67366,0,0,1-6.42017,46.55005,7.41652,7.41652,0,0,0-3.91992-.14014,553.04659,553.04659,0,0,1-56.23,9.98A319.07575,319.07575,0,0,0,366.53,343.54a540.9945,540.9945,0,0,0,60.46-11.41016c-.02-1.27-.05-2.5498-.09009-3.81982C426.99,330.46,427.03,332.60986,427.03,334.78Z"/><path fill="#fef48b" d="M426.10986,317a6.87152,6.87152,0,0,0-1.25976.2A517.231,517.231,0,0,1,366.95,328.3501a318.89283,318.89283,0,0,0-3.1499-46.40015c17.77-2.32007,34.66992-5.24,50.40991-8.74a6.894,6.894,0,0,0,1.24-.38989,167.93486,167.93486,0,0,1,5.82007,17.78A170.44582,170.44582,0,0,1,426.10986,317Z"/><path fill="#57be92" d="M409.32007,258.91992c-14.84009,3.24-30.96021,5.99-47.97,8.18994a324.53418,324.53418,0,0,0-10.94019-42Q364.375,223.52015,378.24,221.47a7.41108,7.41108,0,0,0,4.07007-2A170.86721,170.86721,0,0,1,409.32007,258.91992Z"/><path fill="#46cc8d" d="M161.49,225.41992a324.35123,324.35123,0,0,0-10.84009,41.68994c-17.00976-2.2-33.12988-4.95-47.97-8.18994a170.707,170.707,0,0,1,26.66016-39.06982,7.48334,7.48334,0,0,0,4.07983,1.98Q147.4,223.85486,161.49,225.41992Z"/><path fill="#fee903" d="M148.2,281.95a318.89283,318.89283,0,0,0-3.1499,46.40015A517.231,517.231,0,0,1,87.1499,317.2a6.87152,6.87152,0,0,0-1.25976-.2,169.30372,169.30372,0,0,1,10.65991-44.17993,6.894,6.894,0,0,0,1.24.38989C113.53,276.71,130.42993,279.62988,148.2,281.95Z"/><path fill="#f68157" d="M151.54,391.16992a553.04659,553.04659,0,0,1-56.23-9.98,7.52084,7.52084,0,0,0-3.91992.13013A170.98868,170.98868,0,0,1,84.97,334.78c0-2.17017.04-4.32007.13013-6.47-.04,1.27-.07007,2.5498-.09009,3.81982A540.9945,540.9945,0,0,0,145.47,343.54,319.07575,319.07575,0,0,0,151.54,391.16992Z"/><path fill="#fd5426" d="M168.5,447.3999q-19.43994-2.50488-38.67993-6.0498a7.48912,7.48912,0,0,0-6.23,1.66992,170.5355,170.5355,0,0,1-26.98023-46.1499A590.24108,590.24108,0,0,0,155.12012,406.72,321.81352,321.81352,0,0,0,168.5,447.3999Z"/><path fill="#22b37f" d="M346.40991,268.87988c-15,1.63013-30.56982,2.8501-46.47,3.64014q-2.02477-21.52515-5.49-42.89014,20.3551-.95983,40.67017-2.90991A307.15718,307.15718,0,0,1,346.40991,268.87988Z"/><path fill="#fd6930" d="M218.65991,452.03q-16.545-.9452-33.05981-2.65015A308.22605,308.22605,0,0,1,171.10986,408.47c13.52,1.34009,27.46021,2.36011,41.66016,3.04Q215.05005,431.8501,218.65991,452.03Z"/><path fill="#ffa799" d="M211.27,396.41992c-15.05-.76-29.78-1.90991-44.01-3.40991a305.92376,305.92376,0,0,1-6.65015-47.6001c15.55005,1.76,31.72022,3.09009,48.31006,3.95Q209.22022,372.94019,211.27,396.41992Z"/><path fill="#fef6ad" d="M211.22,287.52q-2.02478,23.34009-2.32007,46.81982C192.09009,333.45,175.73,332.08008,160.06006,330.26a303.81043,303.81043,0,0,1,3.03-46.5C178.59009,285.45,194.68994,286.71,211.22,287.52Z"/><path fill="#6ed5a1" d="M218.95,229.82007q-3.8551,21.23987-6.25,42.73c-16.11987-.79-31.90991-2.02-47.10986-3.67017A307.97671,307.97671,0,0,1,176.79,226.97Q197.82007,228.92,218.95,229.82007Z"/><path fill="#7acaa6" d="M284.92993,273.14014c-9.57007.30981-19.23.46972-28.92993.46972q-14.22,0-28.28-.45,2.43018-21.52478,6.38013-42.83984,10.25976.25488,20.52.26H256.01q11.655-.015,23.34009-.36011Q282.88989,251.56494,284.92993,273.14014Z"/><path fill="#fdb441" d="M287.76,334.60986V335.02c-10.46.37012-21.07007.56006-31.76.56006q-16.21509,0-32.10986-.58008v-.28q.26989-23.3551,2.33984-46.59009,14.70007.46509,29.77.48,15.2699,0,30.16992-.48974Q287.82007,311.31006,287.76,334.60986Z"/><path fill="#fe8f83" d="M282.66992,412.1499q-2.625,20.50525-6.58984,40.80005-10.125.25525-20.24.22-10.89-.04467-21.8-.43994-3.735-20.205-6.1001-40.62012c9.28.29,18.65015.43018,28.06006.43018C264.93994,412.54,273.8501,412.40991,282.66992,412.1499Z"/><path fill="#f99675" d="M287.5,350.03q-.65991,23.595-3.08008,47.05981C275.03,397.39014,265.54,397.54,256,397.54c-9.95,0-19.84009-.16016-29.62012-.49q-2.1449-23.4452-2.45-47.04c10.57007.36987,21.28.57007,32.07007.57007Q271.90015,350.58008,287.5,350.03Z"/><path fill="#fd4755" d="M340.89014,408.47a309.24472,309.24472,0,0,1-14.73023,41.47q-17.32508,1.66517-34.68994,2.46,3.8551-20.31006,6.40991-40.82983C312.54,410.89014,326.93994,409.8501,340.89014,408.47Z"/><path fill="#fea95c" d="M351.39014,345.40991A305.92376,305.92376,0,0,1,344.74,393.01c-14.59985,1.54-29.72,2.71-45.18994,3.47q2.3551-23.46021,2.97-47.08984C319.31006,348.52,335.66992,347.18994,351.39014,345.40991Z"/><path fill="#fed402" d="M351.93994 330.26c-15.78 1.82983-32.25 3.21-49.17993 4.09985q.07508-23.47485-1.59009-46.85986c16.39014-.81006 32.36011-2.06006 47.74-3.74A303.81043 303.81043 0 0 1 351.93994 330.26zM459.5 102.80005a57.30154 57.30154 0 0 0-35.3 35.30005A57.15514 57.15514 0 0 0 414.33008 120.52c-1.17017-1.43018-2.42017-2.81006-3.73-4.12012a57.33009 57.33009 0 0 0-21.7002-13.59985A57.25334 57.25334 0 0 0 424.2 67.5a57.38066 57.38066 0 0 0 10.94019 18.8501c.84985.98 1.73974 1.92993 2.65991 2.84985A57.33276 57.33276 0 0 0 459.5 102.80005zM123.10046 162.80023h0a57.30774 57.30774 0 0 0-35.30019 35.30019v0A57.30774 57.30774 0 0 0 52.5 162.80024h0A57.30776 57.30776 0 0 0 87.80022 127.5v0a57.30776 57.30776 0 0 0 35.30019 35.30019z"/><path fill="#fac600" d="M459.5 102.80005a57.30154 57.30154 0 0 0-35.3 35.30005A57.15514 57.15514 0 0 0 414.33008 120.52a58.14473 58.14473 0 0 0 19.04-27.22 55.44988 55.44988 0 0 0 1.77-6.95c.84985.98 1.73974 1.92993 2.65991 2.84985A57.33276 57.33276 0 0 0 459.5 102.80005zM123.10046 162.80041a57.30154 57.30154 0 0 0-35.3 35.30005 57.15514 57.15514 0 0 0-9.86987-17.58008 58.14473 58.14473 0 0 0 19.04-27.22 55.44988 55.44988 0 0 0 1.77-6.95c.84985.98 1.73974 1.92993 2.65991 2.84985A57.33276 57.33276 0 0 0 123.10046 162.80041z"/></svg>