<svg enable-background="new 0 0 512 512" height="512" viewBox="0 0 512 512" width="512" xmlns="http://www.w3.org/2000/svg"><path d="m213.712 135.5h-30v-45.25l30-75.25z" fill="#384949"/><path d="m198.712 135.5h15v-120.5l-15 37.625z" fill="#151f1f"/><path d="m316.535 339.726-52.77-106.61c-3.646-7.366-12.542-10.426-19.949-6.862l-44.979 21.648-45.058-22.529c-7.409-3.705-16.419-.701-20.125 6.708l-129.108 258.211c-2.325 4.65-2.076 10.172.657 14.594s7.56 7.114 12.759 7.114h210.88c5.712 0 10.928-3.244 13.454-8.368l74.25-150.62c2.065-4.189 2.061-9.101-.011-13.286z" fill="#a44e3f"/><path d="m289.087 90.25h-105.375v-75.25c0-8.284 6.716-15 15-15h90.016c5.139 0 10.073 2.437 12.885 6.739 3.979 6.085 3.033 13.916-1.919 18.868l-19.518 19.519 19.264 19.264c3.634 3.634 5.399 8.846 4.346 13.876-1.49 7.115-7.697 11.984-14.699 11.984z" fill="#ff4c5b"/><path d="m289.087 90.25c7.002 0 13.209-4.869 14.698-11.985 1.053-5.03-.713-10.242-4.346-13.876l-19.264-19.264 19.518-19.519c4.952-4.952 5.897-12.783 1.919-18.868-2.812-4.301-7.745-6.738-12.884-6.738h-90.016v90.25z" fill="#d90048"/><path d="m263.765 233.116c-3.646-7.366-12.542-10.426-19.949-6.862l-44.979 21.648-.126-.063v264.161h5.922l111.912-158.988c2.065-4.189 2.061-9.101-.011-13.287z" fill="#87363e"/><path d="m507.454 490.292-91.86-183.72c-3.666-7.332-12.539-10.364-19.924-6.807l-37.226 17.925-36.696-18.356c-3.557-1.78-7.678-2.074-11.453-.815-3.775 1.258-7.779 5.732-9.558 9.291l-102.027 204.19h295.328c5.199 0 10.027-2.692 12.76-7.114s2.981-9.945.656-14.594z" fill="#ca5742"/><path d="m416.214 307.81c-3.666-7.332-13.158-11.602-20.543-8.045l-37.192 17.909v194.326h135.56c5.199 0 10.027-2.692 12.76-7.114s2.981-9.945.657-14.594z" fill="#a44e3f"/><path d="m415.595 306.573-43.7-87.41c-2.541-5.082-7.734-8.292-13.416-8.292-5.681 0-10.875 3.21-13.417 8.292l-44.324 88.648 48.844 38.312c2.192 1.832 4.877 3.052 7.728 3.244.336.023.672.034 1.009.034h.067c3.12-.014 6.118-1.222 8.537-3.192z" fill="#eef8ff"/><path d="m366.922 346.208 49.292-38.397-44.319-88.648c-2.541-5.082-7.734-8.292-13.416-8.292v138.525c3.085-.039 6.048-1.238 8.443-3.188z" fill="#d9e9fa"/><path d="m263.765 233.116-51.623-104.297c-2.522-5.095-7.715-8.319-13.4-8.319h-.03c-5.682 0-10.876 3.21-13.416 8.292l-51.64 103.29 56.427 44.431c2.189 1.724 4.819 2.87 7.599 3.061.343.024.687.035 1.031.035h.067c3.061-.014 6.011-1.155 8.438-3.021z" fill="#eef8ff"/><path d="m198.779 279.61c3.061-.014 6.011-1.155 8.438-3.021l56.548-43.473-51.623-104.297c-2.522-5.095-7.715-8.319-13.4-8.319h-.03v159.11z" fill="#d9e9fa"/></svg>