<svg id="Capa_1" enable-background="new 0 0 512 512" height="512" viewBox="0 0 512 512" width="512" xmlns="http://www.w3.org/2000/svg"><g><path d="m505.8 442.274h-499.601c-3.424 0-6.199-2.776-6.199-6.199v-19.309c0-5.745 4.657-10.401 10.401-10.401h491.197c5.745 0 10.401 4.657 10.401 10.401v19.309c.001 3.424-2.775 6.199-6.199 6.199z" fill="#365e7d"/><path d="m501.598 406.364h-21.7c5.744 0 10.401 4.657 10.401 10.401v25.508h15.501c3.424 0 6.199-2.776 6.199-6.199v-19.309c.001-5.744-4.656-10.401-10.401-10.401z" fill="#2b4d66"/><g fill="#c3d5ef"><path d="m112.82 471.21h-79.906c-5.479 0-9.92-4.441-9.92-9.92v-19.016h99.747v19.016c0 5.479-4.442 9.92-9.921 9.92z"/><path d="m295.953 471.21h-79.906c-5.479 0-9.92-4.441-9.92-9.92v-19.016h99.747v19.016c0 5.479-4.442 9.92-9.921 9.92z"/><path d="m479.086 471.21h-79.906c-5.479 0-9.92-4.441-9.92-9.92v-19.016h99.747v19.016c-.001 5.479-4.442 9.92-9.921 9.92z"/></g><path d="m101.04 442.274v19.016c0 5.479-4.441 9.921-9.92 9.921h21.7c5.479 0 9.92-4.442 9.92-9.921v-19.016z" fill="#b7c8ea"/><path d="m284.173 442.274v19.016c0 5.479-4.441 9.921-9.92 9.921h21.7c5.479 0 9.92-4.442 9.92-9.921v-19.016z" fill="#b7c8ea"/><path d="m467.306 442.274v19.016c0 5.479-4.442 9.921-9.92 9.921h21.7c5.479 0 9.92-4.442 9.92-9.921v-19.016z" fill="#b7c8ea"/><path d="m179.32 406.365h-153.359v-122.43c0-2.814 2.281-5.095 5.095-5.095h148.264z" fill="#eab14d"/><path d="m161.587 278.84h17.733v127.525h-17.733z" fill="#e49542"/><path d="m112.337 322.961h-19.393c-2.547 0-4.611-2.064-4.611-4.611v-39.51h28.615v39.51c0 2.546-2.064 4.611-4.611 4.611z" fill="#df6b57"/><path d="m179.32 278.84h153.359v127.525h-153.359z" fill="#eab14d"/><path d="m314.946 278.84h17.733v127.525h-17.733z" fill="#e49542"/><path d="m265.696 322.961h-19.393c-2.547 0-4.611-2.064-4.611-4.611v-39.51h28.615v39.51c0 2.546-2.064 4.611-4.611 4.611z" fill="#df6b57"/><path d="m486.039 406.365h-153.359v-127.525h148.264c2.814 0 5.095 2.281 5.095 5.095z" fill="#eab14d"/><path d="m468.306 278.84v127.525h17.733v-122.43c0-2.814-2.281-5.095-5.095-5.095z" fill="#e49542"/><path d="m419.056 322.961h-19.393c-2.547 0-4.611-2.064-4.611-4.611v-39.51h28.615v39.51c0 2.546-2.065 4.611-4.611 4.611z" fill="#365e7d"/><path d="m256 278.84h-176.036v-67.849c0-2.814 2.281-5.095 5.095-5.095h170.941z" fill="#f1cb86"/><path d="m234.3 205.895h21.7v72.945h-21.7z" fill="#ecbe6b"/><path d="m177.271 242.367h-18.578c-2.945 0-5.333-2.388-5.333-5.333v-31.139h29.243v31.139c0 2.946-2.387 5.333-5.332 5.333z" fill="#365e7d"/><path d="m432.036 278.84h-176.036v-72.944h170.94c2.814 0 5.095 2.281 5.095 5.095v67.849z" fill="#f1cb86"/><path d="m410.335 205.895v72.945h21.7v-67.849c0-2.814-2.281-5.095-5.095-5.095h-16.605z" fill="#ecbe6b"/><path d="m353.307 242.367h-18.578c-2.945 0-5.333-2.388-5.333-5.333v-31.139h29.243v31.139c0 2.946-2.387 5.333-5.332 5.333z" fill="#df6b57"/><path d="m344.018 205.895h-176.036v-156.768c0-4.605 3.733-8.337 8.337-8.337h159.362c4.604 0 8.337 3.733 8.337 8.337z" fill="#eab14d"/><path d="m335.681 40.79h-20.401c4.604 0 8.337 3.733 8.337 8.337v156.768h20.401v-156.768c0-4.605-3.733-8.337-8.337-8.337z" fill="#e49542"/><path d="m265.797 85.837h-19.594c-4.149 0-7.513-3.364-7.513-7.513v-37.534h34.62v37.534c0 4.149-3.364 7.513-7.513 7.513z" fill="#df6b57"/><g fill="#e7ecf6"><path d="m314.343 153.403-10.72-7.614c-2.68-1.901-6.268-1.901-8.948 0l-10.72 7.614c-3.479 2.471-4.297 7.295-1.826 10.774 2.136 3.008 6.03 4.021 9.294 2.645v5.384c0 4.268 3.459 7.726 7.726 7.726s7.726-3.459 7.726-7.726v-5.402c.963.407 1.975.627 2.987.627 2.419 0 4.8-1.132 6.307-3.254 2.47-3.48 1.652-8.304-1.826-10.774z"/><path d="m151.678 362.846-10.72-7.613c-2.68-1.901-6.268-1.901-8.948 0l-10.719 7.613c-3.479 2.471-4.297 7.295-1.826 10.774 1.507 2.122 3.888 3.254 6.307 3.254 1.011 0 2.023-.22 2.986-.626v5.403c0 4.268 3.459 7.726 7.726 7.726 4.268 0 7.726-3.459 7.726-7.726v-5.385c3.265 1.376 7.158.362 9.294-2.645 2.47-3.481 1.653-8.304-1.826-10.775z"/><path d="m306.22 362.846-10.72-7.613c-2.68-1.901-6.268-1.901-8.948 0l-10.719 7.613c-3.479 2.471-4.297 7.295-1.826 10.774 1.507 2.122 3.888 3.254 6.307 3.254 1.011 0 2.023-.22 2.986-.626v5.403c0 4.268 3.459 7.726 7.726 7.726s7.726-3.459 7.726-7.726v-5.385c3.265 1.376 7.158.362 9.294-2.645 2.471-3.481 1.653-8.304-1.826-10.775z"/><path d="m458.702 362.846-10.72-7.613c-2.68-1.901-6.268-1.901-8.948 0l-10.719 7.613c-3.479 2.471-4.297 7.295-1.826 10.774 1.507 2.122 3.888 3.254 6.307 3.254 1.011 0 2.023-.22 2.986-.626v5.403c0 4.268 3.459 7.726 7.726 7.726s7.726-3.459 7.726-7.726v-5.385c3.265 1.376 7.157.362 9.294-2.645 2.47-3.481 1.653-8.304-1.826-10.775z"/></g></g></svg>