<svg enable-background="new 0 0 512 512" viewBox="0 0 512 512" xmlns="http://www.w3.org/2000/svg"><path d="m288.273 221.708h-54.62c.495.535.805 1.245.805 2.032v35.841h13.19l-32.746 32.745c3.03 6.737 3.097 13.474 3.097 13.474v23.285l82.362-73.866c4.182-3.474 6.848-8.712 6.848-14.574 0-10.459-8.477-18.937-18.936-18.937z" fill="#ffd5b3"/><path d="m232.854 220.74h-24.304l-25.861 25.861c-.391.391-.391 1.023 0 1.414l25.44 25.44h24.725c1.657 0 3-1.343 3-3v-46.715c0-1.657-1.343-3-3-3z" fill="#08375e"/><path d="m88.356 313.346c-44.656 0-80.856 36.201-80.856 80.857s36.2 80.857 80.856 80.857c44.657 0 80.857-36.201 80.857-80.857.001-44.656-36.199-80.857-80.857-80.857zm0 140.152c-32.695 0-59.295-26.6-59.295-59.295s26.6-59.295 59.295-59.295c32.696 0 59.296 26.6 59.296 59.295s-26.599 59.295-59.296 59.295z" fill="#9ea7af"/><path d="m88.356 460.998c-36.831 0-66.795-29.964-66.795-66.795s29.964-66.795 66.795-66.795 66.796 29.964 66.796 66.795-29.964 66.795-66.796 66.795zm0-118.59c-28.559 0-51.795 23.235-51.795 51.795s23.235 51.795 51.795 51.795c28.561 0 51.796-23.235 51.796-51.795s-23.235-51.795-51.796-51.795z" fill="#c5ccd3"/><path d="m411.784 313.346c-44.656 0-80.857 36.201-80.857 80.857s36.2 80.857 80.857 80.857c44.656 0 80.856-36.201 80.856-80.857.001-44.656-36.2-80.857-80.856-80.857zm0 140.152c-32.695 0-59.295-26.6-59.295-59.295s26.6-59.295 59.295-59.295 59.295 26.6 59.295 59.295-26.6 59.295-59.295 59.295z" fill="#9ea7af"/><path d="m411.784 460.998c-36.831 0-66.795-29.964-66.795-66.795s29.964-66.795 66.795-66.795 66.795 29.964 66.795 66.795-29.964 66.795-66.795 66.795zm0-118.59c-28.56 0-51.795 23.235-51.795 51.795s23.235 51.795 51.795 51.795 51.795-23.235 51.795-51.795-23.235-51.795-51.795-51.795z" fill="#c5ccd3"/><path d="m186.385 401.359c0-1.638 1.043-3.136 2.595-3.727.417-.159.678-.573.641-1.018l-.823-9.912h-82.828l70.454-73.299c-.121-.078-.235-.165-.34-.27l-10.303-10.303-80.751 84.011c-2.649 2.755-3.446 6.458-2.082 9.663 1.365 3.206 4.588 5.197 8.409 5.197h95.028z" fill="#368c0e"/><path d="m438.15 265.371c0-15.728-12.795-28.522-28.522-28.522h-26.738c1.177 2.139 1.849 4.593 1.849 7.202 0 2.858-.817 5.522-2.211 7.798h27.101c7.456 0 13.522 6.066 13.522 13.522 0 7.457-6.066 13.523-13.522 13.523h-197.118c-.047.455-.237.879-.565 1.208l-2.962 2.962c-.198.198-.304.47-.292.749.012.28.141.542.354.722 3.102 2.618 5.131 6.033 6.464 9.359h121.25l-76.739 79.838c4.578 2.25 8.499 5.634 11.403 9.782l86.141-89.62h4.725l42.561 103.169c1.194 2.894 3.989 4.642 6.937 4.642.953 0 1.922-.183 2.857-.569 2.895-1.194 4.643-3.991 4.642-6.939 0-.952-.183-1.92-.568-2.855l-40.202-97.449h31.112c15.726.001 28.521-12.795 28.521-28.522z" fill="#368c0e"/><path d="m246.836 369.671c-13.06 0-24.225 8.08-28.791 19.51v7.178c0 .552.447 1 1 1h20.635c2.206 0 4 1.794 4 4v12.64c0 2.206-1.794 4-4 4h-18.553c5.571 8.248 15.007 13.672 25.709 13.672 17.121 0 31-13.879 31-31 0-17.12-13.879-31-31-31z" fill="#9ea7af"/><path d="m219.044 305.799s-.152-15.057-10.138-22.659l-27.438 27.437 7.24 87.145c.527-.19 1.086-.311 1.676-.311h28.66z" fill="#ffb98a"/><path d="m228.829 101.646c0 23.045 18.684 41.729 41.73 41.729s41.728-18.684 41.728-41.729v-22.024h-83.458z" fill="#ffd5b3"/><path d="m228.939 79.622c-.072 1.009-.11 2.028-.11 3.056v18.968c0 16.554 9.641 30.857 23.614 37.601v-59.625z" fill="#775436"/><path d="m270.56 29.44c-23.047 0-41.73 11.479-41.73 34.525v1.201h-35.08c-4.422 0-8.006 3.585-8.006 8.006 0 4.422 3.584 8.006 8.006 8.006h118.537v-16.011-.05c0-23.046-18.682-35.677-41.727-35.677z" fill="#ef5050"/><path d="m270.56 29.44c-2.045 0-4.054.095-6.021.276 20.336 1.936 36.004 14.298 36.004 35.401v.05 16.012h11.744v-16.012-.05c0-23.046-18.682-35.677-41.727-35.677z" opacity=".1"/><path d="m244.68 413.999c0 2.75-2.25 5-5 5h-49.295c-2.75 0-5-2.25-5-5v-12.64c0-2.75 2.25-5 5-5h49.295c2.75 0 5 2.25 5 5z" fill="#f7931e"/><path d="m206 413.999v-12.64c0-2.75 2.25-5 5-5h-20.615c-2.75 0-5 2.25-5 5v12.64c0 2.75 2.25 5 5 5h20.615c-2.75 0-5-2.25-5-5z" opacity=".1"/><path d="m182.63 248.074 61.97-61.97c-.889.585-1.924.89-2.969.89-.842 0-1.691-.198-2.476-.604-17.593-9.11-28.521-27.086-28.521-46.914 0-3.99.451-7.98 1.342-11.861.19-.832.577-1.601 1.12-2.249-.655.517-1.294 1.065-1.898 1.669l-74.805 74.805z" fill="#fcdb67"/><path d="m146.46 211.905 63.225-63.225c-.38-2.566-.581-5.181-.581-7.83 0-3.99.451-7.98 1.342-11.861.22-.961.711-1.83 1.394-2.534-.212.196-.435.373-.641.579l-74.805 74.805z" opacity=".1"/><path d="m381.699 214.162h-30.706l-48.611-26.438-60.689-60.69c-4.057-4.056-9.472-6.29-15.247-6.29-5.309 0-10.396 1.926-14.329 5.423-.837.745-1.421 1.731-1.671 2.822-.891 3.881-1.342 7.871-1.342 11.861 0 19.828 10.928 37.804 28.52 46.914.784.406 1.634.604 2.476.604 1.398 0 2.779-.544 3.814-1.579l5.473-5.474 38.977 31.349c.345.277.722.511 1.124.696l63.286 29.132c.629.289 1.289.44 1.947.477.022.02.047.037.069.056.529-7.794 7.022-13.977 14.948-13.977 8.271 0 15 6.729 15 14.999 0 .305-.027.604-.046.904 3.931-1.264 6.776-4.947 6.776-9.299v-11.724c.001-5.393-4.372-9.766-9.769-9.766z" fill="#ffb98a"/><circle cx="369.74" cy="244.05" fill="#046699" r="16"/><path d="m292.232 109.95c-4.422 0-8.006-3.585-8.006-8.006v-7.444c0-4.422 3.584-8.006 8.006-8.006s8.006 3.584 8.006 8.006v7.444c0 4.422-3.584 8.006-8.006 8.006z" fill="#775436"/><path d="m504.5 482.56h-497c-4.143 0-7.5-3.358-7.5-7.5s3.357-7.5 7.5-7.5h497c4.143 0 7.5 3.358 7.5 7.5s-3.357 7.5-7.5 7.5z" fill="#c5ccd3"/><path d="m212.652 276.566-75.395-75.394c-.033-.033-.063-.068-.097-.101l-22.031 22.032c-8.386 8.386-8.386 22.107 0 30.493l60.246 60.246c.586.586 1.354.879 2.121.879.768 0 1.535-.293 2.121-.878l33.034-33.033c.563-.563.879-1.326.879-2.122.001-.796-.315-1.56-.878-2.122z" fill="#046699"/></svg>