<svg enable-background="new 0 0 511.999 511.999" height="512" viewBox="0 0 511.999 511.999" width="512" xmlns="http://www.w3.org/2000/svg"><path d="m409.678 210.675c-56.511 0-102.322 45.811-102.322 102.321s45.811 102.322 102.322 102.322c56.51 0 102.321-45.811 102.321-102.322s-45.811-102.321-102.321-102.321zm0 178.697c-42.181 0-76.375-34.194-76.375-76.375 0-42.18 34.194-76.375 76.375-76.375 42.18 0 76.375 34.195 76.375 76.375s-34.195 76.375-76.375 76.375z" fill="#365e7d"/><path d="m346.931 356.521c-8.583-12.35-13.628-27.345-13.628-43.524s5.045-31.173 13.628-43.524c14.328-30.438 43.213-52.666 77.685-57.709-4.877-.713-9.863-1.089-14.938-1.089-56.511 0-102.322 45.811-102.322 102.321 0 56.511 45.811 102.322 102.322 102.322 5.075 0 10.061-.375 14.938-1.089-34.471-5.042-63.357-27.27-77.685-57.708z" fill="#294b64"/><path d="m102.322 210.675c-56.511 0-102.322 45.811-102.322 102.322s45.811 102.322 102.322 102.322c56.51 0 102.321-45.811 102.321-102.322s-45.811-102.322-102.321-102.322zm0 178.697c-42.181 0-76.375-34.194-76.375-76.375 0-42.18 34.194-76.375 76.375-76.375 42.18 0 76.375 34.195 76.375 76.375s-34.195 76.375-76.375 76.375z" fill="#365e7d"/><path d="m39.575 356.521c-8.583-12.35-13.628-27.345-13.628-43.524s5.045-31.173 13.628-43.524c14.328-30.438 43.213-52.666 77.685-57.709-4.877-.713-9.863-1.089-14.938-1.089-56.511 0-102.322 45.811-102.322 102.322s45.811 102.322 102.322 102.322c5.074 0 10.061-.375 14.938-1.089-34.471-5.043-63.357-27.271-77.685-57.709z" fill="#294b64"/><g fill="#dbedff"><path d="m409.678 397.098c-46.373 0-84.101-37.728-84.101-84.101 0-46.374 37.728-84.102 84.101-84.102 46.374 0 84.102 37.728 84.102 84.102-.001 46.373-37.728 84.101-84.102 84.101zm0-152.75c-37.853 0-68.648 30.796-68.648 68.649 0 37.852 30.795 68.648 68.648 68.648s68.649-30.796 68.649-68.648c-.001-37.854-30.797-68.649-68.649-68.649z"/><path d="m102.322 397.098c-46.374 0-84.102-37.728-84.102-84.101 0-46.374 37.728-84.102 84.102-84.102s84.102 37.728 84.102 84.102c-.001 46.373-37.728 84.101-84.102 84.101zm0-152.75c-37.853 0-68.649 30.796-68.649 68.649 0 37.852 30.796 68.648 68.649 68.648s68.649-30.796 68.649-68.648c0-37.854-30.796-68.649-68.649-68.649z"/><path d="m401.508 136.626h-60.583c-4.267 0-7.726-3.459-7.726-7.726s3.459-7.726 7.726-7.726h60.583c4.267 0 7.726 3.459 7.726 7.726s-3.458 7.726-7.726 7.726z"/></g><path d="m415.21 188.411h-9.404c-7.007 0-12.687-5.68-12.687-12.687s5.68-12.687 12.687-12.687h9.404c5.914 0 10.726-4.811 10.726-10.725s-4.812-10.725-10.726-10.725c-7.007 0-12.687-5.68-12.687-12.687s5.68-12.687 12.687-12.687c19.906 0 36.1 16.194 36.1 36.099s-16.194 36.099-36.1 36.099z" fill="#477b9e"/><path d="m415.211 173.216h-9.404c-4.153 0-7.828-2.005-10.143-5.089-1.59 2.119-2.544 4.744-2.544 7.598 0 7.007 5.68 12.687 12.687 12.687h9.404c19.906 0 36.1-16.194 36.1-36.099 0-2.606-.284-5.147-.811-7.598-3.501 16.268-17.99 28.501-35.289 28.501z" fill="#365e7d"/><path d="m411.759 296.485-63.595-170.289c-1.492-3.997-5.942-6.025-9.941-4.535-3.997 1.493-6.028 5.944-4.535 9.942l7.837 20.984h-157.572l-7.392-19.793c-1.492-3.996-5.941-6.025-9.941-4.535-3.998 1.493-6.028 5.944-4.535 9.942l8.092 21.667-70.208 140.55c-1.626 3.254-.733 7.1 1.928 9.347-.455.984-.715 2.077-.715 3.232 0 4.268 3.459 7.726 7.726 7.726h105.058c4.267 0 7.726-3.459 7.726-7.726 0-4.268-3.459-7.726-7.726-7.726h-99.148l62.749-125.617 42.897 114.865c1.16 3.107 4.107 5.025 7.239 5.025.898 0 1.811-.158 2.702-.49 3.997-1.493 6.028-5.944 4.535-9.942l-45.216-121.073h157.571l1.94 5.195-105.416 116.76c-2.86 3.168-2.61 8.053.557 10.913 1.478 1.335 3.329 1.992 5.175 1.992 2.11 0 4.212-.859 5.737-2.548l100.039-110.803 41.955 112.344c1.16 3.107 4.107 5.025 7.239 5.025.898 0 1.811-.158 2.702-.49 3.998-1.494 6.028-5.944 4.536-9.942z" fill="#f87c68"/><path d="m409.678 298.258c-8.14 0-14.739 6.599-14.739 14.739s6.599 14.739 14.739 14.739 14.739-6.599 14.739-14.739c-.001-8.14-6.599-14.739-14.739-14.739z" fill="#365e7d"/><path d="m102.322 298.258c-8.14 0-14.739 6.599-14.739 14.739s6.599 14.739 14.739 14.739 14.739-6.599 14.739-14.739-6.599-14.739-14.739-14.739z" fill="#365e7d"/><path d="m409.678 312.997c0-5.452 2.968-10.201 7.37-12.751-2.17-1.257-4.682-1.988-7.37-1.988-8.14 0-14.739 6.599-14.739 14.739s6.599 14.739 14.739 14.739c2.688 0 5.2-.731 7.37-1.988-4.402-2.55-7.37-7.299-7.37-12.751z" fill="#294b64"/><path d="m102.322 312.997c0-5.452 2.968-10.201 7.369-12.751-2.17-1.257-4.682-1.988-7.37-1.988-8.14 0-14.739 6.599-14.739 14.739s6.599 14.739 14.739 14.739c2.688 0 5.2-.731 7.37-1.988-4.401-2.55-7.369-7.299-7.369-12.751z" fill="#294b64"/><path d="m234.121 283.52c-16.28 0-29.478 13.197-29.478 29.478 0 16.28 13.198 29.478 29.478 29.478s29.478-13.198 29.478-29.478c0-16.281-13.198-29.478-29.478-29.478z" fill="#f4dd45"/><path d="m230.727 312.997c0-11.596 6.699-21.624 16.436-26.437-3.933-1.944-8.358-3.041-13.042-3.041-16.281 0-29.478 13.197-29.478 29.478 0 16.28 13.198 29.478 29.478 29.478 4.684 0 9.109-1.097 13.042-3.041-9.737-4.813-16.436-14.841-16.436-26.437z" fill="#fcc101"/><path d="m234.121 379.616c-4.267 0-7.726-3.459-7.726-7.726v-58.893c0-4.268 3.459-7.726 7.726-7.726s7.726 3.459 7.726 7.726v58.893c0 4.267-3.459 7.726-7.726 7.726z" fill="#365e7d"/><path d="m248.615 380.631h-28.989c-4.267 0-7.726-3.459-7.726-7.726 0-4.268 3.459-7.726 7.726-7.726h28.989c4.267 0 7.726 3.459 7.726 7.726s-3.459 7.726-7.726 7.726z" fill="#477b9e"/><path d="m230.346 113.196c-4.07-9.987-13.78-16.516-24.564-16.516h-79.154c-6.306 0-11.418 5.112-11.418 11.418 0 14.901 12.08 26.981 26.981 26.981h25.017c5.291 0 10.175-2.842 12.789-7.443 2.614-4.6 7.498-7.443 12.789-7.443h32.854c3.61.001 6.068-3.655 4.706-6.997z" fill="#477b9e"/><path d="m142.767 108.099c0-6.306 5.112-11.418 11.418-11.418h-27.557c-6.306 0-11.418 5.112-11.418 11.418 0 14.901 12.08 26.981 26.981 26.981h25.017c.359 0 .715-.016 1.069-.041-14.216-.765-25.51-12.533-25.51-26.94z" fill="#365e7d"/></svg>