<svg enable-background="new 0 0 511.99 511.99" viewBox="0 0 511.99 511.99" xmlns="http://www.w3.org/2000/svg"><path d="m403.183 505.612c-52.609 0-95.409-42.801-95.409-95.409s42.8-95.408 95.409-95.408 95.408 42.8 95.408 95.408-42.8 95.409-95.408 95.409zm0-175.791c-44.323 0-80.382 36.059-80.382 80.382s36.059 80.382 80.383 80.382 80.382-36.059 80.382-80.383c-.002-44.322-36.061-80.381-80.383-80.381z" fill="#e64b55"/><path d="m403.183 322.307c48.544 0 87.895 39.352 87.895 87.895s-39.352 87.896-87.895 87.896-87.895-39.352-87.895-87.896 39.351-87.895 87.895-87.895m0-13.89c-56.125 0-101.787 45.661-101.787 101.787s45.662 101.786 101.787 101.786 101.787-45.661 101.787-101.787c-.002-56.125-45.662-101.786-101.787-101.786z" fill="#50555a"/><path d="m403.182 308.417c-.151 0-.302.005-.452.006v13.891c.151-.001.301-.006.452-.006 48.544 0 87.896 39.352 87.896 87.895s-39.352 87.896-87.896 87.896c-.151 0-.302-.005-.452-.006v13.891c.151.001.301.006.452.006 56.125 0 101.787-45.661 101.787-101.787-.001-56.125-45.661-101.786-101.787-101.786z" fill="#373c41"/><path d="m403.183 385.866c-13.42 0-24.337 10.918-24.337 24.336 0 13.42 10.918 24.337 24.337 24.337s24.337-10.918 24.337-24.337c-.001-13.419-10.918-24.336-24.337-24.336z" fill="#b9b9be"/><path d="m403.183 385.866c-13.42 0-24.337 10.918-24.337 24.336 0 13.42 10.918 24.337 24.337 24.337s24.337-10.918 24.337-24.337c-.001-13.419-10.918-24.336-24.337-24.336z" fill="#b9b9be"/><path d="m108.807 505.612c-52.609 0-95.408-42.801-95.408-95.409s42.8-95.408 95.408-95.408 95.408 42.8 95.408 95.408-42.799 95.409-95.408 95.409zm0-175.791c-44.323 0-80.382 36.059-80.382 80.382s36.059 80.382 80.382 80.382 80.381-36.059 80.381-80.383c.001-44.322-36.058-80.381-80.381-80.381z" fill="#e64b55"/><path d="m108.807 322.307c48.544 0 87.895 39.352 87.895 87.895s-39.352 87.896-87.895 87.896-87.895-39.352-87.895-87.895 39.352-87.896 87.895-87.896m0-13.89c-56.125 0-101.787 45.661-101.787 101.787s45.662 101.786 101.787 101.786 101.787-45.661 101.787-101.787c0-56.125-45.662-101.786-101.787-101.786z" fill="#50555a"/><path d="m108.807 308.417c-.151 0-.302.005-.452.006v13.891c.151-.001.301-.006.452-.006 48.544 0 87.896 39.352 87.896 87.895s-39.352 87.896-87.896 87.896c-.151 0-.302-.005-.452-.006v13.891c.151.001.301.006.452.006 56.125 0 101.787-45.661 101.787-101.787 0-56.125-45.662-101.786-101.787-101.786z" fill="#373c41"/><path d="m108.807 385.866c-13.419 0-24.337 10.918-24.337 24.336 0 13.42 10.917 24.337 24.337 24.337s24.337-10.918 24.337-24.337-10.918-24.336-24.337-24.336z" fill="#b9b9be"/><path d="m227.209 419.268c-3.748 0-7.303-2.219-8.828-5.897l-59.003-142.284c-2.021-4.874.292-10.463 5.165-12.483 4.872-2.021 10.463.292 12.483 5.164l59.003 142.284c2.021 4.874-.292 10.463-5.165 12.484-1.196.497-2.436.732-3.655.732z" fill="#55879b"/><path d="m232.178 419.653c-2.716 0-5.421-1.106-7.383-3.282-3.678-4.076-3.354-10.361.721-14.039l110.162-99.386-151.183.091-66.137 96.737h114.242c5.49 0 9.94 4.45 9.94 9.94s-4.45 9.94-9.94 9.94h-133.08c-3.687 0-7.071-2.041-8.792-5.301-1.721-3.261-1.495-7.206.585-10.249l79.726-116.613c1.851-2.708 4.919-4.328 8.2-4.33l182.305-.109h.006c4.112 0 7.801 2.533 9.277 6.37 1.478 3.84.437 8.194-2.619 10.951l-129.375 116.721c-1.901 1.714-4.282 2.559-6.655 2.559z" fill="#6c9baa"/><path d="m400.832 419.656c-4.151 0-8.023-2.621-9.42-6.773l-62.697-186.303c-2.166-6.433 2.628-13.11 9.421-13.11h38.322c5.49 0 9.94 4.45 9.94 9.94s-4.451 9.94-9.94 9.94h-24.49l58.285 173.193c1.751 5.203-1.048 10.84-6.25 12.591-1.051.354-2.12.522-3.171.522z" fill="#55879b"/><path d="m386.399 223.41c0-5.49-4.451-9.94-9.94-9.94h-38.322c-6.788 0-11.589 6.672-9.421 13.11l2.278 6.77h45.465c5.489 0 9.94-4.45 9.94-9.94z" fill="#373c41"/><circle cx="259.308" cy="42.406" fill="#ba6746" r="42.406"/><path d="m211.55 275.84h-75.375c-7.914 0-14.33-6.415-14.33-14.33s6.415-14.33 14.33-14.33h75.375c7.914 0 14.33 6.415 14.33 14.33s-6.416 14.33-14.33 14.33z" fill="#823214"/><path d="m211.554 429.175c-4.739 0-9.223-2.841-11.091-7.509-2.449-6.123.529-13.072 6.652-15.522l53.838-21.535c6.124-2.451 13.073.53 15.523 6.652 2.449 6.123-.529 13.072-6.652 15.522l-53.839 21.535c-1.455.582-2.956.857-4.431.857z" fill="#373c41"/><path d="m280.277 285.988c3.753-10.202-1.385-21.527-11.534-25.422l-46.775-17.955 38.281-101.262c5.643-14.779-.343-30.792-13.368-35.765l-42.06-16.06c-13.026-4.974-28.16 2.975-33.803 17.754l-40.763 106.645c-6.65 17.398 2.051 36.894 19.441 43.563l86.496 33.174-29.481 80.14c-3.791 10.304 1.49 21.73 11.794 25.521 2.264.832 4.582 1.228 6.861 1.228 8.094 0 15.702-4.982 18.659-13.022z" fill="#ba6746"/><path d="m246.91 252.183-24.941-9.574 38.281-101.262c5.643-14.778-.343-30.791-13.368-35.765l-42.06-16.06c-13.026-4.974-28.16 2.975-33.803 17.755l-40.763 106.645c-6.65 17.397 2.051 36.894 19.441 43.563l66.174 25.379z" fill="#3c5a73"/><path d="m128.619 232.265c-1.134-5.948-.683-12.273 1.638-18.343l40.763-106.645c5.643-14.779 20.777-22.728 33.803-17.754l42.06 16.06c13.026 4.974 19.011 20.986 13.368 35.765l-38.281 101.262z" fill="#fa503c"/><path d="m332.081 235.387c-1.252.092-2.532.046-3.824-.15l-75.884-11.518c-5.643-.857-10.483-4.48-12.892-9.654l-39.504-84.81c-3.974-8.533-.28-18.671 8.254-22.646 8.531-3.975 18.671-.28 22.645 8.254l35.645 76.528 66.85 10.146c9.307 1.413 15.706 10.102 14.294 19.408-1.216 8.013-7.828 13.872-15.584 14.442z" fill="#ba6746"/><path d="m219.158 170.435 30.972-14.235-19.254-41.337c-3.974-8.533-14.115-12.228-22.645-8.254-8.533 3.974-12.228 14.113-8.254 22.646z" fill="#fa735f"/></svg>