<svg height="512" viewBox="0 0 512 512" width="512" xmlns="http://www.w3.org/2000/svg" xmlns:xlink="http://www.w3.org/1999/xlink"><linearGradient id="New_Gradient_Swatch_15" gradientUnits="userSpaceOnUse" x1="298.788" x2="357.212" y1="113.212" y2="54.788"><stop offset=".015" stop-color="#cacad5"/><stop offset="1" stop-color="#dcdce3"/></linearGradient><linearGradient id="New_Gradient_Swatch_13" gradientUnits="userSpaceOnUse" x1="200.78" x2="455.22" y1="399.22" y2="144.78"><stop offset="0" stop-color="#d46669"/><stop offset="1" stop-color="#dd888a"/></linearGradient><linearGradient id="New_Gradient_Swatch_3" gradientUnits="userSpaceOnUse" x1="231.878" x2="424.122" y1="368.122" y2="175.878"><stop offset=".011" stop-color="#606082"/><stop offset="1" stop-color="#83839e"/></linearGradient><linearGradient id="New_Gradient_Swatch_5" gradientUnits="userSpaceOnUse" x1="293.515" x2="362.485" y1="70.485" y2="1.515"><stop offset=".011" stop-color="#f8c73f"/><stop offset="1" stop-color="#fada7f"/></linearGradient><linearGradient id="New_Gradient_Swatch_5-2" x1="235.393" x2="424.122" xlink:href="#New_Gradient_Swatch_5" y1="364.607" y2="175.878"/><g id="_16-express" data-name="16-express"><g id="gradient"><path d="m344 44h-32c-4.418 0-8 5.373-8 12v56c0 6.627 3.582 12 8 12h32c4.418 0 8-5.373 8-12v-56c0-6.627-3.582-12-8-12z" fill="url(#New_Gradient_Swatch_15)"/><path d="m440 164a12 12 0 0 1 -8.485-20.485l24-24a12 12 0 1 1 16.97 16.97l-24 24a11.963 11.963 0 0 1 -8.485 3.515z" fill="#a6a6b9"/><path d="m216 164a11.963 11.963 0 0 1 -8.485-3.515l-24-24a12 12 0 1 1 16.97-16.97l24 24a12 12 0 0 1 -8.485 20.485z" fill="#a6a6b9"/><circle cx="328" cy="272" fill="url(#New_Gradient_Swatch_13)" r="180"/><circle cx="328" cy="272" fill="url(#New_Gradient_Swatch_3)" r="136"/><rect fill="url(#New_Gradient_Swatch_5)" height="48" rx="12" width="104" x="276" y="12"/><path d="m328 136v130a6 6 0 0 0 6 6h130c0-74.991-61.009-136-136-136z" fill="url(#New_Gradient_Swatch_5-2)"/><path d="m136 212h-80a12 12 0 0 1 0-24h80a12 12 0 0 1 0 24z" fill="#fada7f"/><path d="m120 308h-80a12 12 0 0 1 0-24h80a12 12 0 0 1 0 24z" fill="#fada7f"/><g fill="#f9cd55"><path d="m128 356h-56a12 12 0 0 1 0-24h56a12 12 0 0 1 0 24z"/><path d="m120 260h-104a12 12 0 0 1 0-24h104a12 12 0 0 1 0 24z"/></g></g></g></svg>