<svg viewBox="0 0 48 48" xmlns="http://www.w3.org/2000/svg"><path d="m9 9v30a2 2 0 0 1 -2-2v-26a2 2 0 0 1 2-2zm32 2v26a2 2 0 0 1 -2 2h-16v-30h16a2 2 0 0 1 2 2z" fill="#4891d3"/><rect fill="#2d71ba" height="34" rx="1" width="10" x="11" y="7"/><path d="m10 7h-1a4 4 0 0 0 -4 4v26a4 4 0 0 0 4 4h1a1 1 0 0 0 1-1v-32a1 1 0 0 0 -1-1zm-3 30v-26a2 2 0 0 1 2-2v30a2 2 0 0 1 -2-2zm32-30h-17a1 1 0 0 0 -1 1v32a1 1 0 0 0 1 1h17a4 4 0 0 0 4-4v-26a4 4 0 0 0 -4-4zm2 30a2 2 0 0 1 -2 2h-16v-30h16a2 2 0 0 1 2 2z" fill="#192835"/><path d="m38 11h-12a1 1 0 0 0 -1 1v5a1 1 0 0 0 1 1h12a1 1 0 0 0 1-1v-5a1 1 0 0 0 -1-1zm-1 5h-10v-3h10z" fill="#192835"/><path d="m27 13h10v3h-10z" fill="#f9e109"/><path d="m28 22h-2a1 1 0 0 1 0-2h2a1 1 0 0 1 0 2zm5 0h-2a1 1 0 0 1 0-2h2a1 1 0 0 1 0 2zm5 0h-2a1 1 0 0 1 0-2h2a1 1 0 0 1 0 2zm-10 3h-2a1 1 0 0 1 0-2h2a1 1 0 0 1 0 2zm5 0h-2a1 1 0 0 1 0-2h2a1 1 0 0 1 0 2zm5 0h-2a1 1 0 0 1 0-2h2a1 1 0 0 1 0 2zm-10 3h-2a1 1 0 0 1 0-2h2a1 1 0 0 1 0 2zm5 0h-2a1 1 0 0 1 0-2h2a1 1 0 0 1 0 2zm0 3h-2a1 1 0 0 1 0-2h2a1 1 0 0 1 0 2zm5-3h-2a1 1 0 0 1 0-2h2a1 1 0 0 1 0 2z" fill="#192835"/><path d="m38 37h-16a1 1 0 0 1 0-2h16a1 1 0 0 1 0 2z" fill="#2d71ba"/><path d="m22.82 7a3 3 0 0 0 -2.82-2h-8a3 3 0 0 0 -2.82 2 2.77 2.77 0 0 0 -.18 1v32a2.77 2.77 0 0 0 .18 1 3 3 0 0 0 2.82 2h8a3 3 0 0 0 2.82-2 2.77 2.77 0 0 0 .18-1v-32a2.77 2.77 0 0 0 -.18-1zm-2.82 34h-8a1 1 0 0 1 -1-1v-32a1 1 0 0 1 1-1h8a1 1 0 0 1 1 1v32a1 1 0 0 1 -1 1z" fill="#192835"/></svg>