<?xml version="1.0" standalone="no"?>
<!DOCTYPE svg PUBLIC "-//W3C//DTD SVG 20010904//EN"
 "http://www.w3.org/TR/2001/REC-SVG-20010904/DTD/svg10.dtd">
<svg version="1.0" xmlns="http://www.w3.org/2000/svg"
 width="512.000000pt" height="512.000000pt" viewBox="0 0 512.000000 512.000000"
 preserveAspectRatio="xMidYMid meet">
<metadata>
Created by potrace 1.11, written by Peter Selinger 2001-2013
</metadata>
<g transform="translate(0.000000,512.000000) scale(0.100000,-0.100000)"
fill="#000000" stroke="none">
<path d="M2519 5107 c-9 -7 -20 -21 -26 -32 -6 -12 -9 -256 -9 -645 l1 -626
-140 1 c-155 1 -186 -5 -215 -42 -18 -23 -20 -41 -20 -184 l0 -158 -57 -16
c-87 -25 -253 -96 -253 -108 0 -6 -3 -8 -6 -4 -14 14 -221 -117 -333 -211
-324 -273 -518 -623 -596 -1072 -13 -77 -14 -367 0 -460 92 -656 533 -1192
1150 -1399 106 -35 155 -47 275 -66 19 -3 59 -9 88 -14 53 -8 349 -6 389 3 11
2 43 8 70 11 26 4 93 18 148 32 430 106 820 401 1053 796 76 130 155 327 188
472 31 136 39 214 39 390 0 135 -6 222 -20 295 -44 228 -126 438 -242 619
-117 181 -246 320 -433 465 -104 80 -316 189 -465 238 l-95 31 0 156 c0 223
-6 229 -220 226 -74 -1 -140 0 -145 2 -7 2 -10 217 -10 626 1 354 -3 631 -8
643 -16 38 -76 55 -108 31z"/>
<path d="M4209 4372 c-41 -85 -160 -205 -240 -245 -31 -15 -62 -27 -70 -27 -8
-1 13 -14 46 -31 130 -66 221 -160 276 -285 l20 -44 34 67 c58 116 166 219
281 268 l39 17 -43 19 c-111 48 -219 150 -275 259 l-35 68 -33 -66z"/>
<path d="M842 3770 c-45 -94 -145 -195 -240 -243 l-71 -35 67 -33 c91 -44 196
-151 244 -246 l36 -72 31 62 c56 113 145 202 258 258 l62 31 -72 36 c-96 48
-202 153 -247 245 -18 37 -33 67 -34 66 0 0 -16 -31 -34 -69z"/>
</g>
</svg>
