<svg xmlns="http://www.w3.org/2000/svg" width="19.486" height="11.17" viewBox="0 0 19.486 11.17"><path d="M71.644,32.365a.822.822,0,0,1,1.15,0l4.871,4.786a.788.788,0,0,1,0,1.13l-4.871,4.786a.823.823,0,0,1-1.15,0,.789.789,0,0,1,0-1.13l4.3-4.222-4.3-4.222a.788.788,0,0,1,0-1.13Z" transform="translate(-58.417 -32.131)" fill="#efefef" fill-rule="evenodd"/><path d="M14.283,54.357a.8.8,0,0,1,.812-.8H32.143a.8.8,0,1,1,0,1.6H15.094A.8.8,0,0,1,14.283,54.357Z" transform="translate(-14.283 -48.773)" fill="#efefef" fill-rule="evenodd"/></svg>