<svg xmlns="http://www.w3.org/2000/svg" width="19.997" height="12.5" viewBox="0 0 19.997 12.5"><path d="M16,16.748a.9.9,0,0,1,.09-.395.771.771,0,0,1,.277-.317L24.938,10.6a.67.67,0,0,1,.969.317.906.906,0,0,1,.09.395v10.87a.768.768,0,0,1-.712.814.645.645,0,0,1-.347-.1l-8.573-5.436A.838.838,0,0,1,16,16.748v5.436a.768.768,0,0,1-.712.814.645.645,0,0,1-.347-.1L6.366,17.461a.877.877,0,0,1-.277-1.106.771.771,0,0,1,.277-.317L14.939,10.6a.67.67,0,0,1,.969.317.906.906,0,0,1,.09.395Z" transform="translate(-5.999 -10.499)" fill="#efefef" fill-rule="evenodd"/></svg>