<?xml version="1.0" encoding="UTF-8"?><svg xmlns="http://www.w3.org/2000/svg" xmlns:xlink="http://www.w3.org/1999/xlink" version="1.1" id="Layer_1" x="0px" y="0px" viewBox="0 0 24 24" xml:space="preserve"><path fill="#303C42" d="M23.983 11.62l-.01-.183a.5.5 0 0 0-.246-.408c-.76-.447-.851-.69-.86-.754-.012-.067 0-.337.585-.992a.5.5 0 0 0 .109-.465 11.992 11.992 0 0 0-.342-1.05.499.499 0 0 0-.36-.312c-.861-.19-1.026-.395-1.055-.454-.03-.059-.101-.315.254-1.133a.501.501 0 0 0-.042-.475c-.202-.305-.418-.6-.646-.885a.507.507 0 0 0-.44-.185c-.886.086-1.105-.06-1.152-.105-.046-.047-.191-.267-.105-1.153a.5.5 0 0 0-.185-.439c-.286-.228-.58-.444-.885-.646a.496.496 0 0 0-.475-.041c-.818.354-1.075.283-1.133.253s-.264-.194-.453-1.055a.5.5 0 0 0-.312-.36c-.344-.13-.693-.245-1.05-.343a.499.499 0 0 0-.465.11c-.658.585-.922.6-.993.585-.063-.01-.306-.102-.754-.86a.5.5 0 0 0-.407-.246l-.183-.012a5.742 5.742 0 0 0-.756 0l-.183.012a.5.5 0 0 0-.407.245c-.448.76-.69.851-.754.86-.066.014-.335.001-.993-.585a.5.5 0 0 0-.465-.11c-.357.099-.707.213-1.05.343a.5.5 0 0 0-.312.36C7.27 2 7.064 2.164 7.005 2.194c-.058.03-.315.101-1.133-.254a.5.5 0 0 0-.475.042c-.305.201-.6.418-.884.646a.5.5 0 0 0-.185.439c.086.885-.06 1.106-.106 1.152-.047.047-.267.192-1.152.106a.497.497 0 0 0-.44.185c-.227.285-.443.58-.646.885a.5.5 0 0 0-.04.474c.354.819.283 1.075.253 1.134-.03.059-.194.264-1.055.453a.5.5 0 0 0-.36.312c-.13.344-.245.694-.343 1.05a.502.502 0 0 0 .11.466c.584.655.596.926.585.992-.01.064-.102.307-.86.754a.5.5 0 0 0-.246.408l-.011.183c-.009.125-.017.25-.017.378 0 .127.008.252.017.378l.01.183a.5.5 0 0 0 .246.407c.76.448.851.69.86.754.012.067 0 .337-.585.993a.5.5 0 0 0-.109.465c.098.357.213.707.342 1.05a.5.5 0 0 0 .36.312c.861.19 1.026.395 1.055.453.03.06.101.315-.253 1.133a.5.5 0 0 0 .04.475c.203.305.42.6.647.886.106.131.271.2.44.185.886-.087 1.105.059 1.152.105s.191.267.105 1.153a.5.5 0 0 0 .185.439c.286.228.58.444.885.646a.5.5 0 0 0 .475.041c.82-.355 1.073-.284 1.133-.253.058.03.264.194.453 1.055a.5.5 0 0 0 .312.36c.344.13.693.245 1.05.343a.503.503 0 0 0 .466-.11c.656-.584.923-.6.992-.585.063.01.306.102.754.86a.5.5 0 0 0 .407.246l.183.011c.126.009.25.017.378.017s.252-.008.378-.017l.183-.01a.5.5 0 0 0 .407-.246c.448-.76.69-.851.754-.861.065-.013.336 0 .993.586a.5.5 0 0 0 .465.109c.357-.098.707-.213 1.05-.342a.5.5 0 0 0 .312-.36c.189-.862.394-1.026.453-1.056.058-.03.314-.1 1.133.254a.503.503 0 0 0 .475-.042c.305-.201.6-.418.884-.646a.5.5 0 0 0 .185-.439c-.086-.886.06-1.106.106-1.152s.265-.192 1.152-.106a.51.51 0 0 0 .44-.185c.227-.286.443-.58.646-.885a.5.5 0 0 0 .04-.475c-.354-.818-.283-1.074-.253-1.134.03-.058.194-.263 1.055-.452a.5.5 0 0 0 .36-.312c.13-.344.245-.694.343-1.05a.502.502 0 0 0-.11-.466c-.584-.656-.596-.926-.585-.993.01-.063.102-.306.86-.754a.5.5 0 0 0 .246-.407l.011-.183c.009-.126.017-.25.017-.378s-.008-.253-.017-.378zm-18.98 4.24A7.966 7.966 0 0 1 4 12c0-1.347.345-2.675 1.002-3.86C6.758 8.59 8 10.163 8 12s-1.242 3.41-2.998 3.86zm9.962 3.568a8.008 8.008 0 0 1-5.93 0A2.755 2.755 0 0 1 9 19c0-1.654 1.346-3 3-3s3 1.346 3 3c0 .137-.012.279-.035.428zM11 12c0-.551.449-1 1-1s1 .449 1 1-.449 1-1 1-1-.449-1-1zm1-4c-1.654 0-3-1.346-3-3 0-.137.012-.279.035-.428a8.008 8.008 0 0 1 5.93 0c.023.15.035.29.035.428 0 1.654-1.346 3-3 3zm6.998 7.86C17.242 15.41 16 13.837 16 12s1.242-3.41 2.998-3.86A7.967 7.967 0 0 1 20 12a7.966 7.966 0 0 1-1.002 3.86z"/><path fill="#495966" d="M22.99 12.247c.005-.082.01-.164.01-.247s-.005-.165-.01-.247c-.507-.323-1.022-.752-1.112-1.32-.09-.576.264-1.14.645-1.602a11.237 11.237 0 0 0-.15-.46c-.58-.15-1.199-.398-1.46-.911-.263-.514-.1-1.166.12-1.729-.09-.13-.185-.26-.282-.386-.603.037-1.272-.009-1.68-.415-.407-.409-.452-1.078-.416-1.68a11.003 11.003 0 0 0-.385-.283c-.564.22-1.216.383-1.73.12-.512-.262-.76-.88-.91-1.46a10.56 10.56 0 0 0-.461-.15c-.461.381-1.024.73-1.602.645-.568-.09-.997-.605-1.32-1.112-.164-.01-.33-.01-.494 0-.323.507-.752 1.022-1.32 1.112-.572.085-1.14-.264-1.602-.645-.155.046-.308.096-.46.15-.15.58-.398 1.198-.911 1.46-.514.263-1.166.1-1.729-.12-.13.09-.26.185-.386.282.037.602-.008 1.272-.415 1.68-.409.407-1.08.452-1.68.416-.097.126-.192.255-.283.385.22.563.383 1.215.12 1.73-.26.512-.88.76-1.46.91-.054.152-.104.306-.15.461.381.461.735 1.025.645 1.602-.09.568-.605.997-1.112 1.32-.005.082-.01.164-.01.247s.005.165.01.247c.507.323 1.022.752 1.112 1.32.09.576-.264 1.14-.645 1.602.046.155.096.308.15.46.58.15 1.199.398 1.46.911.263.514.1 1.166-.12 1.729.09.13.185.26.282.386.604-.037 1.272.01 1.68.415.407.409.452 1.078.416 1.68.126.097.255.192.385.283.563-.22 1.214-.384 1.73-.12.512.261.76.88.91 1.46.152.054.306.104.461.15.461-.381 1.027-.733 1.602-.645.568.09.997.605 1.32 1.112.164.01.33.01.494 0 .323-.507.752-1.022 1.32-1.112.572-.089 1.14.264 1.602.645.155-.046.308-.096.46-.15.15-.58.398-1.199.911-1.46.514-.264 1.166-.1 1.729.12.13-.09.26-.185.386-.282-.037-.603.008-1.272.416-1.68.407-.408 1.077-.453 1.68-.416.096-.126.19-.255.282-.385-.22-.563-.383-1.215-.12-1.73.26-.512.88-.76 1.46-.91.054-.152.104-.306.15-.461-.381-.461-.735-1.025-.645-1.602.09-.568.605-.997 1.112-1.32zM8.109 4.1a.5.5 0 0 1 .287-.345 9.012 9.012 0 0 1 7.208 0 .5.5 0 0 1 .287.345c.073.317.109.611.109.899 0 2.206-1.794 4-4 4S8 7.206 8 5c0-.288.036-.582.109-.899zM14 12c0 1.103-.897 2-2 2s-2-.897-2-2 .897-2 2-2 2 .897 2 2zm-9.164 4.917a.5.5 0 0 1-.51-.232A8.974 8.974 0 0 1 3 12c0-1.647.458-3.268 1.325-4.685a.505.505 0 0 1 .51-.232A4.979 4.979 0 0 1 9 12a4.98 4.98 0 0 1-4.164 4.917zM15.89 19.9a.5.5 0 0 1-.287.345C14.458 20.746 13.246 21 12 21s-2.458-.254-3.604-.756a.5.5 0 0 1-.287-.345A3.963 3.963 0 0 1 8 19c0-2.206 1.794-4 4-4s4 1.794 4 4c0 .288-.036.582-.109.899zm3.783-3.213a.5.5 0 0 1-.51.231A4.98 4.98 0 0 1 15 12a4.979 4.979 0 0 1 4.165-4.917.5.5 0 0 1 .51.232A8.982 8.982 0 0 1 21 12a8.974 8.974 0 0 1-1.326 4.686z"/><path opacity="0.1" fill="#010101" d="M22.99 12.247c.005-.082.01-.164.01-.247s-.005-.165-.01-.247c-.507-.323-1.022-.752-1.112-1.32-.09-.576.264-1.14.645-1.602a11.237 11.237 0 0 0-.15-.46c-.58-.15-1.199-.398-1.46-.911-.263-.514-.1-1.166.12-1.729-.09-.13-.185-.26-.282-.386-.603.037-1.272-.009-1.68-.415-.407-.409-.452-1.078-.416-1.68a11.003 11.003 0 0 0-.385-.283c-.147.057-.3.11-.455.152l.16.13c-.033.603.007 1.272.374 1.68.366.407.966.453 1.507.416.087.127.172.256.254.386-.198.563-.344 1.215-.108 1.729.234.513.79.761 1.31.911.048.152.093.305.135.46-.343.461-.66 1.026-.58 1.602.081.568.544.997.999 1.32.005.082.009.164.009.247s-.004.165-.01.247c-.454.323-.917.752-.997 1.32-.081.577.236 1.141.58 1.602-.043.155-.088.309-.136.46-.521.15-1.076.399-1.31.911-.237.515-.09 1.167.107 1.73-.082.13-.167.259-.253.385-.541-.037-1.143.008-1.508.416-.366.408-.407 1.077-.374 1.68-.052.044-.106.086-.16.13.155.043.308.095.455.153.13-.092.26-.186.386-.283-.037-.603.008-1.272.416-1.68.407-.408 1.077-.453 1.68-.416.096-.126.19-.255.282-.385-.22-.563-.383-1.215-.12-1.73.26-.512.88-.76 1.46-.91.054-.152.104-.306.15-.461-.381-.461-.735-1.025-.645-1.602.09-.568.605-.997 1.112-1.32z"/><path opacity="0.2" fill="#FFF" d="M6.025 20.75c.033-.602-.007-1.271-.374-1.68-.365-.406-.965-.452-1.507-.415a11.051 11.051 0 0 1-.254-.386c.198-.563.344-1.215.108-1.729-.234-.513-.79-.761-1.31-.911a12.21 12.21 0 0 1-.135-.46c.343-.461.66-1.026.58-1.602-.081-.568-.544-.997-.999-1.32-.005-.082-.009-.164-.009-.247s.004-.165.01-.247c.454-.323.917-.752.997-1.32.081-.577-.236-1.141-.58-1.602.043-.155.088-.309.136-.46.521-.15 1.076-.399 1.31-.911.237-.515.09-1.167-.107-1.73.082-.13.167-.259.253-.385.539.036 1.142-.009 1.509-.417.365-.407.406-1.077.373-1.679.052-.044.106-.086.16-.13a4.742 4.742 0 0 1-.455-.153c-.13.092-.26.186-.386.283.037.602-.008 1.272-.415 1.68-.409.407-1.08.452-1.68.416-.097.126-.192.255-.283.385.22.563.383 1.215.12 1.73-.26.512-.88.76-1.46.91-.054.152-.104.306-.15.461.381.461.735 1.025.645 1.602-.09.568-.605.997-1.112 1.32-.005.082-.01.164-.01.247s.005.165.01.247c.507.323 1.022.752 1.112 1.32.09.576-.264 1.14-.645 1.602.046.155.096.308.15.46.58.15 1.199.398 1.46.911.263.514.1 1.166-.12 1.729.09.13.185.26.282.386.604-.037 1.272.01 1.68.415.407.409.452 1.078.416 1.68.126.097.255.192.385.283.147-.057.3-.11.455-.153-.053-.043-.107-.085-.16-.13z"/><linearGradient id="SVGID_1_" gradientUnits="userSpaceOnUse" x1="1.1632121" y1="6.9446416" x2="22.8367882" y2="17.0511951"><stop offset="0" stop-color="#FFF" stop-opacity="0.2"/><stop offset="1" stop-color="#FFF" stop-opacity="0"/></linearGradient><path fill="url(#SVGID_1_)" d="M23.983 11.62l-.01-.183a.5.5 0 0 0-.246-.408c-.76-.447-.851-.69-.86-.754-.012-.067 0-.337.585-.992a.5.5 0 0 0 .109-.465 11.992 11.992 0 0 0-.342-1.05.499.499 0 0 0-.36-.312c-.861-.19-1.026-.395-1.055-.454-.03-.059-.101-.315.254-1.133a.501.501 0 0 0-.042-.475c-.202-.305-.418-.6-.646-.885a.507.507 0 0 0-.44-.185c-.886.086-1.105-.06-1.152-.105-.046-.047-.191-.267-.105-1.153a.5.5 0 0 0-.185-.439c-.286-.228-.58-.444-.885-.646a.496.496 0 0 0-.475-.041c-.818.354-1.075.283-1.133.253s-.264-.194-.453-1.055a.5.5 0 0 0-.312-.36c-.344-.13-.693-.245-1.05-.343a.499.499 0 0 0-.465.11c-.658.585-.922.6-.993.585-.063-.01-.306-.102-.754-.86a.5.5 0 0 0-.407-.246l-.183-.012a5.742 5.742 0 0 0-.756 0l-.183.012a.5.5 0 0 0-.407.245c-.448.76-.69.851-.754.86-.066.014-.335.001-.993-.585a.5.5 0 0 0-.465-.11c-.357.099-.707.213-1.05.343a.5.5 0 0 0-.312.36C7.27 2 7.064 2.164 7.005 2.194c-.058.03-.315.101-1.133-.254a.5.5 0 0 0-.475.042c-.305.201-.6.418-.884.646a.5.5 0 0 0-.185.439c.086.885-.06 1.106-.106 1.152-.047.047-.267.192-1.152.106a.497.497 0 0 0-.44.185c-.227.285-.443.58-.646.885a.5.5 0 0 0-.04.474c.354.819.283 1.075.253 1.134-.03.059-.194.264-1.055.453a.5.5 0 0 0-.36.312c-.13.344-.245.694-.343 1.05a.502.502 0 0 0 .11.466c.584.655.596.926.585.992-.01.064-.102.307-.86.754a.5.5 0 0 0-.246.408l-.011.183c-.009.125-.017.25-.017.378 0 .127.008.252.017.378l.01.183a.5.5 0 0 0 .246.407c.76.448.851.69.86.754.012.067 0 .337-.585.993a.5.5 0 0 0-.109.465c.098.357.213.707.342 1.05a.5.5 0 0 0 .36.312c.861.19 1.026.395 1.055.453.03.06.101.315-.253 1.133a.5.5 0 0 0 .04.475c.203.305.42.6.647.886.106.131.271.2.44.185.886-.087 1.105.059 1.152.105s.191.267.105 1.153a.5.5 0 0 0 .185.439c.286.228.58.444.885.646a.5.5 0 0 0 .475.041c.82-.355 1.073-.284 1.133-.253.058.03.264.194.453 1.055a.5.5 0 0 0 .312.36c.344.13.693.245 1.05.343a.503.503 0 0 0 .466-.11c.656-.584.923-.6.992-.585.063.01.306.102.754.86a.5.5 0 0 0 .407.246l.183.011c.126.009.25.017.378.017s.252-.008.378-.017l.183-.01a.5.5 0 0 0 .407-.246c.448-.76.69-.851.754-.861.065-.013.336 0 .993.586a.5.5 0 0 0 .465.109c.357-.098.707-.213 1.05-.342a.5.5 0 0 0 .312-.36c.189-.862.394-1.026.453-1.056.058-.03.314-.1 1.133.254a.503.503 0 0 0 .475-.042c.305-.201.6-.418.884-.646a.5.5 0 0 0 .185-.439c-.086-.886.06-1.106.106-1.152s.265-.192 1.152-.106a.51.51 0 0 0 .44-.185c.227-.286.443-.58.646-.885a.5.5 0 0 0 .04-.475c-.354-.818-.283-1.074-.253-1.134.03-.058.194-.263 1.055-.452a.5.5 0 0 0 .36-.312c.13-.344.245-.694.343-1.05a.502.502 0 0 0-.11-.466c-.584-.656-.596-.926-.585-.993.01-.063.102-.306.86-.754a.5.5 0 0 0 .246-.407l.011-.183c.009-.126.017-.25.017-.378s-.008-.253-.017-.378zm-18.98 4.24A7.966 7.966 0 0 1 4 12c0-1.347.345-2.675 1.002-3.86C6.758 8.59 8 10.163 8 12s-1.242 3.41-2.998 3.86zm9.962 3.568a8.008 8.008 0 0 1-5.93 0A2.755 2.755 0 0 1 9 19c0-1.654 1.346-3 3-3s3 1.346 3 3c0 .137-.012.279-.035.428zM11 12c0-.551.449-1 1-1s1 .449 1 1-.449 1-1 1-1-.449-1-1zm1-4c-1.654 0-3-1.346-3-3 0-.137.012-.279.035-.428a8.008 8.008 0 0 1 5.93 0c.023.15.035.29.035.428 0 1.654-1.346 3-3 3zm6.998 7.86C17.242 15.41 16 13.837 16 12s1.242-3.41 2.998-3.86A7.967 7.967 0 0 1 20 12a7.966 7.966 0 0 1-1.002 3.86z"/><metadata><rdf:RDF xmlns:rdf="http://www.w3.org/1999/02/22-rdf-syntax-ns#" xmlns:rdfs="http://www.w3.org/2000/01/rdf-schema#" xmlns:dc="http://purl.org/dc/elements/1.1/"><rdf:Description about="https://iconscout.com/legal#licenses" dc:title="bicycle,bike,front,cassette,drivetrain,gear,component" dc:description="bicycle,bike,front,cassette,drivetrain,gear,component" dc:publisher="Iconscout" dc:date="2017-11-06" dc:format="image/svg+xml" dc:language="en"><dc:creator><rdf:Bag><rdf:li>Those Icons</rdf:li></rdf:Bag></dc:creator></rdf:Description></rdf:RDF></metadata></svg>